SplineFontDB: 2.0
FontName: CurlyHogRunes-Body-Medium
FullName: CurlyHogRunes body text rune/celtic inspired
FamilyName: CurlyHogRunes-Body
Weight: Medium
Copyright: Copyright (c) 2007, Egil Moeller <redhog@redhog.org>\nLicensed under the LGPL\nCreated with FontForge 2.0 (http://fontforge.sf.net)
Version: 001.000
ItalicAngle: 0
UnderlinePosition: -86
UnderlineWidth: 43
Ascent: 740
Descent: 284
NeedsXUIDChange: 1
XUID: [1021 591 2113447819 9666369]
FSType: 0
OS2Version: 1
OS2_WeightWidthSlopeOnly: 0
OS2_UseTypoMetrics: 1
CreationTime: 1180636559
ModificationTime: 1225750037
PfmFamily: 17
TTFWeight: 500
TTFWidth: 5
LineGap: 79
VLineGap: 0
Panose: 2 0 6 3 0 0 0 0 0 0
OS2TypoAscent: 0
OS2TypoAOffset: 1
OS2TypoDescent: 0
OS2TypoDOffset: 1
OS2TypoLinegap: 79
OS2WinAscent: 0
OS2WinAOffset: 1
OS2WinDescent: 0
OS2WinDOffset: 1
HheadAscent: 0
HheadAOffset: 1
HheadDescent: 0
HheadDOffset: 1
OS2SubXSize: 572
OS2SubYSize: 616
OS2SubXOff: 0
OS2SubYOff: 123
OS2SupXSize: 572
OS2SupYSize: 616
OS2SupXOff: 0
OS2SupYOff: 423
OS2StrikeYSize: 44
OS2StrikeYPos: 228
OS2Vendor: 'PfEd'
DEI: 0
LangName: 1033 
GaspTable: 1 65535 2
Encoding: UnicodeBmp
UnicodeInterp: none
NameList: Adobe Glyph List
DisplaySize: -36
AntiAlias: 1
FitToEm: 1
WinInfo: 0 42 22
BeginChars: 65539 111
StartChar: .notdef
Encoding: 65536 -1 0
Width: 343
VWidth: 881
Flags: W
HStem: 0 29<29 264> 0 587<0 29 264 293 0 293 1.53064e-18 1.53064e-18> 558 29<29 264>
VStem: 0 29<29 558> 264 29<29 558>
Fore
0 0 m 1x58
 0 587 l 1
 293 587 l 1
 293 0 l 1
 0 0 l 1x58
29 29 m 1xb8
 264 29 l 1
 264 558 l 1
 29 558 l 1
 29 29 l 1xb8
EndSplineSet
EndChar
StartChar: numbersign
Encoding: 35 35 4
Width: 414
VWidth: 881
Flags: W
HStem: -47 442<149.245 215.245 308.245 330.245> 52 11<190.228 202.245> 138 6<7.15356 11.2451> 252 6<7.15356 12.2451> 285 11<162.245 173.917>
VStem: 0.245117 364<144 204 237 259>
Fore
163.245 91 m 0x44
 167.245 79 169.245 65 158.245 64 c 1
 148.245 65 154.245 39 155.245 35 c 1
 153.245 24 172.245 14 177.245 9 c 1
 175.245 0 157.245 5 149.245 2 c 25
 147.245 0 150.245 -3 153.245 -6 c 0
 159.245 -13 163.245 -20 165.245 -24 c 0
 168.245 -32 168.245 -38 164.245 -43 c 0
 161.245 -48 156.245 -50 149.245 -47 c 1x84
 142.245 -42 141.245 -38 145.245 -34 c 0
 150.245 -31 152.245 -35 151.245 -40 c 1
 152.245 -42 154.245 -43 156.245 -42 c 0
 173.245 -32 147.245 -9 142.245 -2 c 1
 134.245 6 90.2451 1 75.2451 8 c 1
 72.2451 10 74.2451 13 79.2451 16 c 0
 81.2451 18 92.2451 23 93.2451 27 c 1
 99.2451 36 92.2451 51 93.2451 64 c 1
 91.2451 77 78.2451 86 66.2451 82 c 0
 60.2451 79 55.2451 59 47.2451 64 c 1
 43.2451 78 42.2451 109 43.2451 127 c 1
 36.2451 133 21.2451 164 7.24512 150 c 1
 5.24512 147 6.24512 144 9.24512 144 c 0
 14.2451 143 14.2451 141 11.2451 138 c 0
 5.24512 134 2.24512 141 0.245117 144 c 1
 -0.754883 151 1.24512 156 7.24512 158 c 0
 13.2451 160 19.2451 159 26.2451 155 c 0
 30.2451 152 37.2451 146 43.2451 138 c 1
 41.2451 146 41.2451 165 49.2451 166 c 1
 55.2451 157 69.2451 136 91.2451 145 c 1
 90.2451 152 91.2451 163 89.2451 173 c 1
 93.2451 187 78.2451 202 67.2451 196 c 17
 60.2451 194 55.2451 173 48.2451 178 c 1
 42.2451 189 44.2451 224 43.2451 242 c 1
 36.2451 248 22.2451 279 7.24512 265 c 1
 5.24512 261 6.24512 258 10.2451 258 c 0
 15.2451 257 15.2451 255 12.2451 252 c 1
 5.24512 248 2.24512 255 0.245117 258 c 1
 -0.754883 266 1.24512 270 8.24512 272 c 0
 14.2451 274 20.2451 273 26.2451 269 c 0
 30.2451 266 36.2451 261 42.2451 253 c 1
 43.2451 260 41.2451 281 50.2451 281 c 1
 58.2451 269 66.2451 253 91.2451 258 c 1
 90.2451 271 85.2451 281 77.2451 287 c 1
 74.2451 291 73.2451 295 74.2451 297 c 1
 77.2451 301 93.2451 297 98.2451 297 c 0
 129.245 297 148.245 297 155.245 296 c 0
 159.245 296 174.245 302 174.245 293 c 1
 176.245 285 167.245 285 162.245 285 c 1x3c
 154.245 281 149.245 274 148.245 262 c 0
 147.245 258 201.245 254 199.245 263 c 0
 197.245 273 197.245 283 205.245 284 c 1
 215.245 283 209.245 309 209.245 312 c 1
 210.245 324 191.245 334 187.245 338 c 1
 188.245 348 206.245 342 214.245 346 c 25
 217.245 348 214.245 350 211.245 353 c 0
 204.245 361 200.245 367 199.245 372 c 0
 196.245 379 196.245 386 199.245 391 c 0
 203.245 396 208.245 397 215.245 395 c 1x84
 222.245 390 223.245 386 218.245 382 c 0
 213.245 379 212.245 383 212.245 388 c 1
 211.245 390 209.245 390 207.245 389 c 0
 190.245 380 217.245 357 222.245 349 c 1
 229.245 341 273.245 346 289.245 340 c 1
 291.245 338 290.245 335 285.245 331 c 0
 283.245 330 271.245 324 271.245 321 c 1
 265.245 312 271.245 297 270.245 284 c 1
 273.245 270 286.245 261 298.245 266 c 0
 304.245 268 309.245 289 316.245 284 c 1
 321.245 269 321.245 238 321.245 220 c 1
 328.245 215 342.245 184 357.245 197 c 1
 359.245 201 358.245 203 354.245 204 c 0
 350.245 205 349.245 207 353.245 210 c 0
 358.245 214 362.245 207 364.245 204 c 1
 365.245 196 362.245 192 356.245 190 c 0
 350.245 188 344.245 189 338.245 193 c 0
 333.245 196 326.245 202 320.245 210 c 1
 322.245 202 323.245 182 315.245 182 c 1
 309.245 191 295.245 212 273.245 203 c 1
 273.245 195 273.245 184 274.245 175 c 1
 271.245 161 285.245 146 297.245 151 c 17
 303.245 153 308.245 175 316.245 170 c 1
 322.245 158 320.245 123 321.245 106 c 1
 328.245 100 342.245 69 357.245 83 c 1
 359.245 87 358.245 89 353.245 89 c 0
 349.245 91 348.245 93 352.245 96 c 1
 358.245 99 362.245 93 364.245 89 c 1
 365.245 82 362.245 77 356.245 75 c 0
 350.245 73 344.245 74 338.245 78 c 0
 333.245 81 328.245 87 322.245 95 c 1
 320.245 88 323.245 67 314.245 67 c 1
 305.245 79 297.245 94 273.245 89 c 1
 273.245 77 279.245 67 286.245 60 c 1
 290.245 56 291.245 53 290.245 51 c 1
 286.245 47 271.245 51 266.245 51 c 0
 234.245 51 215.245 51 209.245 52 c 0
 204.245 52 189.245 46 190.245 55 c 1
 187.245 62 196.245 63 202.245 63 c 1
 210.245 67 215.245 75 216.245 88 c 0
 217.245 100 160.245 98 163.245 91 c 0x44
216.245 148 m 0
 216.245 167 216.245 185 215.245 203 c 0
 214.245 216 148.245 220 148.245 204 c 0
 148.245 185 148.245 165 149.245 147 c 0
 150.245 133 215.245 131 216.245 148 c 0
EndSplineSet
EndChar
StartChar: dollar
Encoding: 36 36 5
Width: 398
VWidth: 881
Flags: W
HStem: -81 13<205 286.751> 204 10<206.28 271.119> 380 21G<244 348>
VStem: 127 78<-256.859 -81 -62 204 214 217 227 488 513 571> 256 83<394.382 429 456 478.5 478.5 505.636>
Fore
127 227 m 1
 127 494 l 1
 73 469 79 379 79 328 c 0
 81 276 94 243 127 227 c 1
205 -81 m 1
 204 -248 l 2
 204 -251 205 -254 207 -257 c 0
 208 -260 210 -263 213 -266 c 0
 218 -271 218 -271 220 -273 c 0
 223 -278 223 -281 219 -283 c 0
 218 -284 210 -284 195 -284 c 2
 140 -284 l 2
 139 -284 137 -284 132 -285 c 0
 128 -286 124 -286 120 -286 c 0
 117 -285 115 -284 114 -281 c 0
 113 -279 115 -275 120 -269 c 0
 125 -264 128 -260 128 -260 c 2
 128 -81 l 1
 107 -79 l 0
 37 -70 11 -14 12 69 c 1
 10 75 6 80 0 83 c 1
 26 88 72 83 105 84 c 1
 91 82 90 74 86 61 c 0
 81 43 80 -29 98 -45 c 1
 104 -52 115 -58 127 -62 c 1
 127 217 l 1
 119 219 107 223 95 227 c 1
 23 240 2 321 16 407 c 0
 25 455 53 504 106 511 c 0
 113 512 121 513 127 513 c 1
 127 571 l 1
 123 579 119 583 117 585 c 1
 109 588 104 590 104 592 c 1
 104 593 104 593 105 594 c 0
 107 595 109 595 111 595 c 0
 146 594 198 602 222 591 c 1
 224 589 221 585 215 578 c 0
 206 569 206 569 205 568 c 1
 205 503 l 1
 229 493 244 478 256 456 c 1
 254 465 257 492 253 501 c 1
 253 503 252 504 249 506 c 0
 246 508 244 512 244 516 c 1
 348 516 l 1
 347 514 344 511 337 506 c 1
 339 392 l 1
 344 389 347 385 348 380 c 1
 244 380 l 1
 244 384 246 387 248 389 c 0
 251 390 253 392 255 394 c 1
 257 402 255 420 255 429 c 1
 244 452 231 475 205 488 c 1
 205 214 l 1
 282 204 323 146 325 71 c 0
 326 31 317 -4 304 -32 c 0
 290 -66 249 -77 205 -81 c 1
205 -68 m 5
 245 -63 285 -48 295 -25 c 0
 296 -22 295 -18 293 -14 c 0
 292 -9 291 -6 291 -5 c 1
 294 -5 296 -5 299 -9 c 1
 307 46 318 139 279 168 c 1
 283 156 281 151 273 151 c 1
 275 157 274 165 270 170 c 0
 251 191 236 200 205 204 c 1
 205 -68 l 5
EndSplineSet
EndChar
StartChar: parenleft
Encoding: 40 40 7
Width: 319
VWidth: 881
Flags: W
VStem: 2.28906 73<-104.144 91 91 174.996 174.996 176.491 176.491 259 262 533.053>
Fore
232.289 704 m 1
 238.289 701 243.289 691 248.289 687 c 1
 254.289 704 220.289 717 218.289 724 c 1
 220.289 738 187.289 740 175.289 737 c 0
 -37.3887 716.882 4.1582 466.4 1.86816 259 c 0
 1.76758 249.909 2.58301 99.9023 2.28906 91 c 0
 1.28906 -128 2.28906 -245 169.289 -283 c 0
 205.289 -291 243.289 -253 259.289 -226 c 1
 262.289 -225 264.289 -225 264.289 -227 c 0
 265.289 -229 266.289 -232 267.289 -236 c 1
 269.289 -236 l 1
 271.289 -228 268.289 -223 261.289 -221 c 1
 263.289 -217 264.289 -213 263.289 -209 c 1
 260.289 -210 255.289 -214 248.289 -223 c 2
 237.289 -236 l 2
 233.289 -242 229.289 -246 227.289 -246 c 1
 228.289 -246 227.289 -245 225.289 -244 c 2
 224.289 -241 l 1
 209.289 -260 192.289 -270 174.289 -270 c 1
 174.289 -268 l 1
 180.289 -266 183.289 -262 183.289 -256 c 1
 181.289 -257 178.289 -259 172.289 -263 c 0
 167.289 -267 162.289 -271 159.289 -270 c 0
 58.2891 -255 74.2891 -37 75.2891 91 c 0
 75.2891 100.806 74.1875 251.819 74.0117 262 c 0
 70.8408 445.968 43.5811 684.098 157.289 722 c 0
 167.289 726 172.289 722 192.289 718 c 0
 203.289 716 215.289 717 223.289 710 c 1
 222.289 708 226.289 696 228.289 688 c 0
 231.289 681 230.289 677 225.289 676 c 1
 226.289 677 225.289 677 223.289 678 c 1
 218.289 678 l 1
 218.289 675 219.289 672 221.289 669 c 0
 223.289 666 226.289 666 229.289 668 c 1
 233.289 672 235.289 678 234.289 686 c 0
 234.289 690 233.289 701 232.289 704 c 1
EndSplineSet
EndChar
StartChar: plus
Encoding: 43 43 10
Width: 226
VWidth: 881
Flags: W
HStem: 170 39<4 10 14 41> 179 30<14.0989 41 125 135.931 135.931 142 164 164.677 0 176 41 41> 270 6<61 64>
VStem: 169 7<214.048 216 218 220.907>
Fore
90 179 m 1x70
 142 179 l 1
 164 179 l 1
 165 178 165 178 166 176 c 0
 170 174 172 172 173 173 c 0
 175 174 176 177 176 183 c 2
 176 216 l 2
 176 218 175 219 174 221 c 0
 172 222 171 222 170 221 c 0
 169 221 169 220 169 218 c 0
 169 217 168 215 167 214 c 0
 163 211 156 209 147 209 c 0
 138 208 131 209 125 209 c 2
 94 209 l 0
 94 209 97 212 98 214 c 0
 100 217 99 221 95 228 c 0
 93 234 90 239 86 243 c 1
 87 257 l 1
 89 260 92 262 97 264 c 0
 101 266 104 267 105 268 c 1
 107 269 107 271 107 275 c 1
 107 276 103 276 97 276 c 2
 69 276 l 1
 61 276 l 1
 60 276 60 275 60 274 c 0
 60 272 60 271 61 270 c 1
 64 270 l 1
 65 269 70 266 78 262 c 1
 75 260 71 260 71 255 c 1
 71 253 74 249 80 243 c 0
 80 243 80 239 80 237 c 0
 78 234 77 229 77 222 c 1
 76 217 77 211 75 209 c 1x70
 41 209 l 2
 25 209 14 210 10 212 c 1
 5 215 2 215 0 213 c 1
 0 212 0 209 0 202 c 0
 1 188 2 181 2 180 c 0
 2 174 3 171 4 170 c 0xb0
 5 170 7 171 10 174 c 2
 14 178 l 1
 16 179 25 179 42 179 c 2
 72 179 l 1
 74 176 75 174 77 172 c 0
 78 170 75 169 74 167 c 0
 69 161 72 153 81 144 c 1
 79 130 l 1
 78 127 75 125 70 123 c 0
 65 121 63 120 61 119 c 0
 61 118 60 117 60 115 c 0
 59 114 59 112 60 112 c 1
 70 112 l 1
 97 112 l 1
 105 112 l 2
 107 112 107 113 107 114 c 0
 107 115 107 116 105 117 c 1
 103 117 l 1
 101 119 99 120 95 122 c 0
 92 124 90 125 89 126 c 1
 91 128 96 127 95 133 c 0
 94 135 91 140 84 147 c 1
 84 147 86 148 86 150 c 1
 89 153 90 158 90 165 c 2
 90 179 l 1x70
EndSplineSet
EndChar
StartChar: comma
Encoding: 44 44 11
Width: 221
VWidth: 881
Flags: W
VStem: 0 171<19 28 19 19> 74 2.90311<-60 121 121 121>
Fore
74 68 m 1x40
 82 74 l 0
 89 80 95 86 99 90 c 0
 100 92 101 95 100 98 c 0
 100 101 101 104 104 107 c 1
 171 28 l 1
 169 26 164 27 157 28 c 0
 156 28 142 16 114 -9 c 0
 85 -34 71 -46 70 -46 c 1
 71 -51 70 -56 67 -60 c 1
 0 19 l 1x80
 3 22 6 23 9 22 c 0
 12 21 15 20 18 22 c 1
 20 22 23 24 26 27 c 0
 30 30 33 33 37 37 c 0
 41 40 43 42 44 43 c 1
 46 45 54 52 63 59 c 1
 70 75 75 94 74 121 c 1
 80 116 75 76 74 68 c 1x40
EndSplineSet
EndChar
StartChar: hyphen
Encoding: 45 45 12
Width: 227
VWidth: 881
Flags: W
VStem: 3 174<179.721 180 180 190.7 190.7 207.452 170 221 180 180> 170 7<214.048 220.907>
Fore
171 221 m 0x40
 172 222 173 222 174 221 c 0
 176 219 177 218 177 216 c 2
 177 183 l 2
 177 177 176 174 174 173 c 0
 173 172 171 174 167 176 c 1
 123 184 64 176 15 178 c 1
 11 174 l 2
 8 171 6 170 5 170 c 0
 3 171 3 174 3 180 c 0x80
 3 181 2 188 0 202 c 0
 0 209 0 212 1 213 c 1
 2 215 5 215 11 212 c 1
 52 209 129 203 168 214 c 1
 169 215 170 217 170 218 c 0
 170 220 170 221 171 221 c 0x40
EndSplineSet
EndChar
StartChar: period
Encoding: 46 46 13
Width: 161
VWidth: 881
Flags: W
HStem: 2 106<53 54 54 54>
VStem: 0 111<53 55 55 55>
Fore
53 2 m 5
 40 34 20 40 0 55 c 5
 23 68 42 80 54 108 c 5
 71 91 84 62 111 53 c 5
 91 37 63 25 53 2 c 5
EndSplineSet
EndChar
StartChar: slash
Encoding: 47 47 14
Width: 611
VWidth: 881
Flags: W
HStem: 597 0<441.416 443>
Fore
138 0 m 2
 0 0 l 1
 0 2 1 4 4 6 c 0
 6 8 10 9 14 11 c 0
 18 13 20 14 22 15 c 1
 434 563 l 2
 449 582 445 594 422 597 c 1
 443 597 l 1
 561 597 l 1
 561 594 560 592 557 589 c 0
 554 587 551 585 548 582 c 0
 544 580 541 578 540 577 c 2
 124 15 l 2
 123 13 124 11 127 8 c 0
 131 5 134 3 136 2 c 0
 139 1 139 0 138 0 c 2
EndSplineSet
EndChar
StartChar: zero
Encoding: 48 48 15
Width: 612
VWidth: 881
Flags: W
HStem: 576 20G<0 118 258.5 341> 597 0<118 120.717>
VStem: 360 74<256.898 363 363 490.704>
Fore
337 150 m 1
 154 399 l 1
 151 323 139 216 148 146 c 1
 141 75 184 -20 254 26 c 1
 254 20 251 16 246 14 c 1
 299 24 328 85 337 150 c 1
289 596 m 1
 393 575 434 484 434 363 c 0
 441 299 430 234 412 184 c 1
 539 15 l 1
 550 10 l 2
 557 7 561 3 562 0 c 1
 424 0 l 2
 422 0 423 1 425 2 c 0
 434 8 l 0
 438 11 439 13 438 15 c 258
 376 98 l 1
 354 50 306 5 241 -2 c 1
 130 6 87 103 75 210 c 0
 67 301 84 387 109 453 c 1
 90 491 45 547 21 577 c 1
 20 578 17 580 13 583 c 0
 9 585 6 588 4 590 c 0
 2 593 0 595 0 597 c 1
 118 597 l 1
 139 597 l 1
 116 594 112 583 128 564 c 1
 130 560 136 550 148 534 c 1
 173 575 228 593 289 596 c 1
318 562 m 25
 240 601 193 547 179 494 c 1
 229 426 324 289 360 248 c 1
 357 370 394 510 318 562 c 25
340 46 m 0
118 442 m 1
EndSplineSet
EndChar
StartChar: one
Encoding: 49 49 16
Width: 180
VWidth: 881
Flags: W
VStem: 33.4092 79<24 507.926>
Fore
33.4092 502 m 2
 33.4092 506 28.4092 510 18.4092 515 c 1
 18.4092 515 15.4092 515 10.4092 514 c 0
 4.40918 513 1.40918 513 1.40918 514 c 1
 -1.59082 515 0.40918 518 5.40918 521 c 0
 45.4092 547 89.4092 568 130.409 594 c 257
 131.409 591 129.409 587 123.409 581 c 0
 113.409 571 113.409 571 113.409 571 c 1
 112.409 27 l 1
 114.409 24 116.409 21 119.409 18 c 0
 124.409 13 124.409 13 126.409 11 c 0
 129.409 6 129.409 3 125.409 1 c 1
 101.409 -1 51.4092 2 26.4092 -2 c 5
 23.4092 -1 21.4092 0 20.4092 3 c 0
 19.4092 5 21.4092 9 26.4092 15 c 0
 31.4092 20 33.4092 24 33.4092 24 c 2
 33.4092 502 l 2
EndSplineSet
EndChar
StartChar: two
Encoding: 50 50 17
Width: 451
VWidth: 881
Flags: W
HStem: -3 5<132.327 147 147 149.689 247 255 0 401 147 147> 2 8<353 366.766 382 391.28> 573 24<140.089 204 207 285.447>
Fore
319 2 m 1
 337 -4 353 -6 368 -3 c 0
 381 -1 392 0 401 0 c 1
 401 10 401 15 400 17 c 1
 399 13 396 9 392 7 c 0
 389 5 385 3 382 3 c 1
 382 4 373 6 367 7 c 1
 362 9 358 10 353 10 c 0
 349 10 345 10 342 10 c 0
 337 10 337 10 328 10 c 0
 319 10 319 10 314 10 c 1
 314 7 l 1
 317 7 312 6 307 7 c 1
 294 11 276 10 255 3 c 0
 248 2 235 -3 233 2 c 1
 230 2 225 2 216 2 c 0
 208 2 201 2 196 2 c 0
 191 1 197 -2 196 -2 c 24
 180 -3 160 -3 156 -2 c 0
 151 0 148 1 147 2 c 1
 144 2 139 3 132 4 c 0
 125 6 123 9 124 13 c 1
 202 123 294 219 361 341 c 1
 383 411 380 474 351 527 c 0
 322 584 292 596 204 597 c 0
 108 602 53 577 50 487 c 1
 49 481 45 476 38 472 c 0
 37 472 41 471 49 471 c 0
 57 471 67 471 78 471 c 0
 89 471 101 471 116 471 c 0
 130 471 140 472 145 472 c 1
 142 470 139 470 136 471 c 0
 134 472 133 473 132 474 c 0
 132 475 131 478 128 483 c 0
 127 483 126 487 124 495 c 0
 113 549 158 571 207 573 c 0
 305 583 303 524 305 440 c 0
 299 373 275 340 244 300 c 2
 23 13 l 1
 21 12 18 10 14 9 c 0
 10 7 7 5 4 3 c 0
 2 2 0 0 0 -3 c 1
 121 -3 121 -3 123 -3 c 0
 132 -3 150 -6 174 -12 c 0
 187 -16 205 -14 228 -7 c 2
 247 -2 l 1
 303 -2 l 1
 303 2 l 1
 319 2 l 1
EndSplineSet
EndChar
StartChar: three
Encoding: 51 51 18
Width: 386
VWidth: 881
Flags: W
VStem: 0.509766 336<427 472 472 472>
Fore
240.51 296 m 1
 240.51 301 l 1
 286.51 358 280.51 490 239.51 552 c 0
 221.51 578 170.51 588 133.51 570 c 24
 98.5098 552 70.5098 512 92.5098 478 c 0
 93.5098 477 94.5098 476 96.5098 475 c 0
 98.5098 475 106.51 475 105.51 472 c 1
 101.51 472 91.5098 471 77.5098 471 c 0
 62.5098 471 50.5098 471 39.5098 471 c 0
 28.5098 471 18.5098 471 10.5098 471 c 0
 2.50977 471 -1.49023 472 0.509766 472 c 1
 6.50977 476 10.5098 481 12.5098 487 c 1
 12.5098 579 76.5098 599 171.51 598 c 0
 285.51 596 337.51 532 336.51 427 c 0
 335.51 358 312.51 323 271.51 299 c 1
 312.51 274 335.51 239 336.51 170 c 0
 337.51 65 285.51 1 171.51 -1 c 0
 76.5098 -2 12.5098 19 12.5098 110 c 1
 10.5098 116 6.50977 121 0.509766 125 c 1
 -1.49023 125 2.50977 126 10.5098 126 c 0
 18.5098 126 28.5098 126 39.5098 126 c 0
 50.5098 126 62.5098 126 77.5098 126 c 0
 91.5098 126 101.51 126 105.51 126 c 1
 106.51 123 98.5098 123 96.5098 122 c 0
 94.5098 121 93.5098 120 92.5098 119 c 0
 70.5098 86 98.5098 45 133.51 28 c 24
 170.51 9 221.51 19 239.51 46 c 0
 280.51 107 286.51 239 240.51 296 c 1
EndSplineSet
EndChar
StartChar: four
Encoding: 52 52 19
Width: 548
VWidth: 881
Flags: W
HStem: 268 4<327.097 340.806 340.806 391.928 393.097 454.558 463.436 488.767> 271 12<17.0967 19.0967 19.0967 40.6308 101.997 164.104 345.692 393.097> 317 21G<71.0967 71.5967 104.597 105.097 112.597 116.097 117.597 118.097 118.097 123.097>
VStem: 250.097 75<27.1406 263 280 384.5 384.5 489>
Fore
251.097 280 m 1x30
 255.097 489 l 1
 241.097 493 215.097 438 201.097 419 c 1
 200.097 415 198.097 402 195.097 399 c 0
 194.097 397 192.097 396 189.097 395 c 1
 189.097 400 194.097 409 195.097 412 c 1
 170.097 390 158.097 388 139.097 353 c 0
 130.097 339 124.097 326 122.097 317 c 1
 118.097 318 l 1
 121.097 327 l 1
 114.097 322 112.097 320 105.097 315 c 8
 91.0967 306 79.0967 297 80.0967 280 c 25
 83.0967 267 110.097 278 123.097 278 c 24
 164.097 276 217.097 265 251.097 280 c 1x30
72.0967 264 m 24
 59.0967 264 54.0967 272 41.0967 274 c 24
 31.0967 275 25.0967 266 17.0967 271 c 24
 7.09668 276 4.09668 284 0.0966797 295 c 24
 -0.90332 299 6.09668 297 10.0967 295 c 24
 15.0967 292 13.0967 284 19.0967 283 c 24x70
 54.0967 281 56.0967 295 75.0967 305 c 1
 75.0967 305 75.0967 305 74.0967 305 c 1
 72.0967 307 71.0967 310 71.0967 313 c 1
 72.0967 313 74.0967 313 76.0967 312 c 1
 106.097 321 106.097 343 119.097 361 c 1
 113.097 358 108.097 354 101.097 354 c 1
 109.097 368 127.097 372 139.097 383 c 1
 170.097 404 156.097 402 179.097 435 c 0
 190.097 453 208.097 462 217.097 471 c 0
 223.097 477 231.097 489 235.097 494 c 0
 243.097 501 247.097 504 246.097 504 c 1
 245.097 505 242.097 506 239.097 507 c 1
 239.097 507 236.097 506 231.097 505 c 0
 226.097 503 223.097 503 221.097 504 c 256
 220.097 505 221.097 508 226.097 511 c 0
 250.097 530 330.097 591 344.097 594 c 257
 345.097 591 343.097 587 337.097 581 c 0
 328.097 571 328.097 571 327.097 571 c 1
 325.097 566 325.097 562 325.097 558 c 2
 327.097 270 l 1
 348.097 273 368.097 281 393.097 277 c 1
 393.097 272 l 1
 414.097 274 454.097 268 462.097 281 c 1
 464.097 281 l 1
 464.097 278 463.097 275 462.097 273 c 1
 473.097 273 482.097 271 489.097 275 c 0
 493.097 277 496.097 281 497.097 286 c 1
 498.097 286 l 1
 498.097 268 l 1
 399.097 268 l 2xb0
 336.097 268 333.097 262 327.097 263 c 1
 325.097 36 l 2
 325.097 33 325.097 30 327.097 27 c 0
 328.097 24 330.097 21 334.097 18 c 0
 338.097 13 338.097 13 340.097 11 c 0
 343.097 6 343.097 3 339.097 1 c 0
 338.097 0 330.097 0 315.097 0 c 2
 260.097 0 l 2
 259.097 0 257.097 0 252.097 -1 c 0
 248.097 -2 244.097 -2 241.097 -2 c 0
 237.097 -1 235.097 0 234.097 3 c 0
 233.097 5 235.097 9 240.097 15 c 0
 245.097 20 248.097 24 248.097 24 c 2
 250.097 267 l 1
 242.097 267 230.097 268 222.097 265 c 0
 196.097 259 187.097 262 149.097 269 c 0
 120.097 272 102.097 262 72.0967 264 c 24
EndSplineSet
EndChar
StartChar: five
Encoding: 53 53 20
Width: 384
VWidth: 881
Flags: W
HStem: 286 20<8 14 22 22.8406 95 113 290 300.5> 348 6<193.859 257.769> 590 6<1.04688 9.86011 103.862 296>
VStem: 0 334<173 596 699.862 892> 23 73<340 453.754 453.754 582.538> 308 5<570.732 581.079> 314 20<55.6606 243.75>
Fore
17 150 m 1xf0
 14 156 10 161 5 164 c 1
 3 165 4 165 9 166 c 2
 109 165 l 1
 107 166 104 167 102 166 c 0
 99 165 98 164 98 163 c 0
 98 162 96 159 92 154 c 1
 74 67 102 -4 221 12 c 0
 296 22 314 80 314 159 c 24
 315 216 313 279 288 306 c 1
 292 295 290 289 282 289 c 1
 285 296 283 303 280 308 c 0
 257 332 238 344 191 348 c 0
 188 348 191 344 194 342 c 1
 174 335 154 339 133 341 c 1
 91 337 63 313 26 302 c 1
 7 293 4 316 12 326 c 1
 16 326 21 326 23 324 c 1xea
 21 575 l 1
 20 581 16 585 10 589 c 1
 7 590 5 590 4 590 c 1
 3 590 2 590 1 591 c 0
 0 592 0 593 0 596 c 1xf0
 308 597 l 1
 312 594 313 588 313 580 c 0
 312 572 311 566 308 563 c 1
 308 577 304 586 296 590 c 1
 125 590 l 2
 107 591 95 587 96 567 c 0xec
 92 522 95 396 95 340 c 1
 131 349 154 358 204 354 c 0
 307 344 334 284 334 173 c 0
 333 23 282 0 158 0 c 0
 51 0 19 47 17 150 c 1xf0
EndSplineSet
EndChar
StartChar: six
Encoding: 54 54 21
Width: 361
VWidth: 881
Flags: W
HStem: 3 12<170.982 215.501>
VStem: 0.982422 68<213 303 303 426.949> 244.982 6<535.068 561.72>
Fore
72.9824 176 m 0
 64.9824 97 72.9824 18 154.982 15 c 1
 158.982 16 162.982 18 168.982 22 c 0
 173.982 26 177.982 29 179.982 30 c 1
 179.982 24 176.982 20 170.982 17 c 1
 170.982 15 l 1
 237.982 18 236.982 93 244.982 157 c 0
 251.982 231 248.982 302 173.982 296 c 0
 169.982 295 161.982 292 149.982 287 c 1
 146.982 287 l 1
 144.982 285 141.982 283 139.982 281 c 0
 136.982 278 134.982 276 132.982 274 c 0
 130.982 271 128.982 269 127.982 265 c 0
 127.982 262 126.982 259 127.982 255 c 1
 119.982 256 117.982 262 123.982 273 c 1
 97.9824 257 76.9824 218 72.9824 176 c 0
265.982 546 m 1
 263.982 548 261.982 544 259.982 548 c 0
 256.982 551 251.982 561 250.982 562 c 1
 251.982 556 250.982 552 250.982 545 c 0
 251.982 537 249.982 531 245.982 527 c 1
 242.982 525 240.982 525 238.982 528 c 0
 236.982 531 235.982 534 235.982 537 c 1
 237.982 537 239.982 536 241.982 535 c 0
 247.982 534 244.982 542 244.982 547 c 0
 245.982 581 200.982 588 171.982 579 c 0
 77.9824 541 71.9824 351 68.9824 213 c 5
 99.9824 274 136.982 318 217.982 305 c 0
 279.982 296 313.982 247 310.982 170 c 0
 312.982 134 304.982 90 284.982 60 c 0
 249.982 7 228.982 3 162.982 3 c 0
 21.9824 16 -6.01758 154 0.982422 303 c 0
 17.9824 446 44.9824 585 191.982 596 c 0
 233.982 603 258.982 574 265.982 546 c 1
EndSplineSet
EndChar
StartChar: seven
Encoding: 55 55 22
Width: 447
VWidth: 881
Flags: W
HStem: 585 9<52 65.9371 187.699 188 188 215.292 215.292 243 248 258>
VStem: 0 397<596 601 540.699 541>
Fore
141 588 m 1
 147 583 187 591 186 589 c 1
 204 584 226 584 248 585 c 1
 248 585 274 581 267 582 c 1
 139 17 l 1
 137 14 134 11 129 8 c 0
 128 8 124 14 123 15 c 0
 123 20 119 22 111 22 c 1
 112 17 117 8 122 3 c 1
 119 -3 l 1
 120 -8 124 -15 127 -16 c 0
 130 -18 134 -18 138 -15 c 0
 141 -13 146 -7 147 -3 c 1
 176 -3 l 1
 181 -10 188 -15 191 -17 c 0
 194 -19 197 -18 199 -15 c 0
 201 -12 202 -7 202 -3 c 1
 225 -3 l 1
 225 2 223 5 220 7 c 0
 216 9 214 11 213 13 c 0
 209 21 207 29 208 37 c 1
 250 170 265 317 313 445 c 1
 333 459 339 508 354 547 c 1
 350 546 348 544 346 540 c 0
 338 519 322 485 319 483 c 1
 338 577 l 1
 340 581 343 583 348 585 c 0
 353 587 356 589 356 593 c 1
 365 593 374 594 381 595 c 0
 387 597 396 601 397 601 c 1
 397 601 396 602 394 603 c 0
 392 604 392 604 388 606 c 0
 376 610 358 609 334 602 c 2
 315 596 l 1
 258 595 l 1
 258 594 l 1
 243 594 l 1
 220 600 202 601 188 597 c 1
 145 596 l 1
 145 594 l 1
 129 594 l 5
 106 601 88 602 75 598 c 0
 57 594 52 596 52 596 c 1
 47 599 42 600 36 600 c 0
 30 600 23 599 16 598 c 0
 9 597 4 596 0 596 c 1
 0 587 1 581 2 579 c 1
 4 588 8 591 20 593 c 1
 21 588 l 1
 34 583 56 585 67 592 c 1
 85 586 117 581 141 588 c 1
EndSplineSet
EndChar
StartChar: eight
Encoding: 56 56 23
Width: 364
VWidth: 881
Flags: W
HStem: 6 10<101.958 217.078> 372 21G<118.504 119.504 208.004 210.504> 578 23<94.1207 220.521>
VStem: 1.00391 313<82 137 226 237 170 171 171 171>
Fore
236.004 381 m 0
 237.004 382 230.004 380 227.004 378 c 0
 221.004 374 214.004 372 207.004 372 c 1
 209.004 376 213.004 380 221.004 384 c 0
 228.004 389 233.004 387 240.004 392 c 25
 254.004 408 252.004 442 247.004 466 c 0
 237.004 517 235.004 577 173.004 578 c 0
 84.0039 592 78.0039 533 68.0039 464 c 0
 63.0039 402 62.0039 337 97.0039 313 c 1
 108.004 314 115.004 323 122.004 332 c 1
 117.004 317 106.004 306 96.0039 297 c 1
 82.0039 274 72.0039 254 67.0039 226 c 0
 64.0039 201 88.0039 201 103.004 213 c 1
 101.004 229 111.004 242 118.004 251 c 1
 116.004 251 115.004 250 112.004 249 c 0
 109.004 247 107.004 246 105.004 245 c 0
 103.004 245 101.004 244 99.0039 244 c 1
 112.004 260 134.004 272 148.004 284 c 0
 165.004 296 166.004 321 183.004 337 c 0
 193.004 349 203.004 356 212.004 358 c 0
 217.004 359 228.004 370 236.004 381 c 0
122.004 207 m 1
 118.004 208 l 1
 119.004 218 l 1
 118.004 217 110.004 212 96.0039 203 c 0
 96.0039 203 95.0039 193 97.0039 194 c 1
 96.0039 190 93.0039 185 90.0039 180 c 0
 87.0039 175 84.0039 172 81.0039 171 c 1
 82.0039 176 l 1
 83.0039 177 85.0039 181 87.0039 189 c 0
 88.0039 191 89.0039 198 87.0039 196 c 0
 69.0039 182 62.0039 166 65.0039 137 c 0
 76.0039 78 86.0039 16 152.004 16 c 0
 238.004 8 239.004 82 249.004 151 c 0
 252.004 210 242.004 277 212.004 299 c 1
 165.004 282 134.004 256 122.004 207 c 1
170.004 6 m 0
 61.0039 6 4.00391 63 1.00391 171 c 0
 0.00390625 238 25.0039 276 65.0039 299 c 1
 12.0039 326 -10.9961 394 5.00391 477 c 0
 13.0039 548 74.0039 598 152.004 601 c 24
 237.004 597 297.004 556 310.004 476 c 0
 326.004 392 302.004 325 249.004 299 c 1
 289.004 275 316.004 237 314.004 170 c 0
 310.004 82 272.004 7 170.004 6 c 0
EndSplineSet
EndChar
StartChar: nine
Encoding: 57 57 24
Width: 361
VWidth: 881
Flags: W
HStem: 323 20<187.084 187.084 190.584 203.084 229.584 242.084>
VStem: 242.084 69<171.943 375.009 375.009 485.147>
Fore
240.084 425 m 0
 238.084 502 236.084 580 156.084 583 c 1
 153.084 582 149.084 580 143.084 576 c 0
 138.084 572 134.084 569 132.084 568 c 1
 132.084 574 135.084 579 140.084 581 c 1
 140.084 583 l 1
 77.084 582 70.084 509 66.084 454 c 0
 60.084 383 50.084 288 138.084 302 c 0
 152.084 304 191.084 316 183.084 343 c 1
 191.084 342 193.084 336 188.084 325 c 1
 218.084 347 240.084 406 240.084 425 c 0
68.084 46 m 0
 73.084 31 88.084 19 103.084 21 c 0
 117.084 23 121.084 13 140.084 17 c 0
 235.084 54 239.084 244 242.084 372 c 0
 241.084 377 242.084 383 242.084 389 c 1
 217.084 326 174.084 280 93.084 293 c 0
 32.084 304 -1.91602 351 0.0839844 428 c 0
 -1.91602 517 41.084 602 148.084 594 c 0
 290.084 583 316.084 443 311.084 295 c 0
 293.084 152 267.084 13 119.084 2 c 1
 114.084 1 106.084 1 94.084 2 c 0
 83.084 3 77.084 7 76.084 15 c 1
 74.084 20 71.084 23 68.084 24 c 0
 65.084 25 63.084 26 62.084 27 c 1
 49.084 34 44.084 42 46.084 52 c 1
 47.084 50 50.084 48 53.084 45 c 0
 55.084 42 57.084 40 58.084 39 c 1
 66.084 33 l 0
 68.084 31 61.084 45 60.084 53 c 0
 59.084 61 61.084 67 66.084 71 c 1
 69.084 73 72.084 73 73.084 70 c 0
 75.084 68 76.084 65 76.084 61 c 1
 72.084 62 l 1
 70.084 62 68.084 62 69.084 63 c 1
 62.084 57 65.084 54 68.084 46 c 0
EndSplineSet
EndChar
StartChar: question
Encoding: 63 63 30
Width: 374
VWidth: 881
Flags: W
HStem: -130 106<137 138 138 138> 301 3<137.841 149 161 195 195 252.985> 349 21<149 161 273.5 276 280 297.5>
VStem: 0 324<433 445 433 467> 84 111<-79 -77 -77 -77>
Fore
254 88 m 0xf0
 240 55 215 22 168 18 c 0
 68 10 79 127 79 188 c 0
 82 267 107 299 195 301 c 0xe8
 278 307 323 367 324 445 c 0
 325 486 316 520 304 549 c 0
 279 606 181 599 106 595 c 0
 36 586 11 530 12 447 c 1
 9 441 5 436 0 433 c 1
 26 428 71 433 105 432 c 1
 90 435 89 442 86 455 c 0
 81 474 79 545 98 561 c 1
 128 598 272 590 295 541 c 0
 296 539 295 535 293 530 c 0
 291 525 290 523 290 521 c 1
 294 521 295 521 299 525 c 1
 307 470 317 377 278 349 c 1
 282 360 280 366 272 366 c 1
 275 359 273 351 270 347 c 0
 244 317 227 311 161 309 c 1
 144 316 l 1
 149 304 l 1
 142 304 124 299 94 289 c 1
 23 276 2 195 16 109 c 0
 25 62 53 12 106 5 c 0
 190 -6 231 16 256 60 c 0
 276 99 266 116 254 88 c 0xf0
EndSplineSet
Refer: 13 46 N 1 0 0 1 84 -132 2
EndChar
StartChar: at
Encoding: 64 64 31
Width: 514
VWidth: 881
Flags: W
HStem: -123 509<150.103 151.103 159.103 203.103 151.103 298.103 298.103 298.103> 2 10<218.45 226.103 226.103 247.103> 285 13<316.15 319.103 322.103 327.103> 307 20<405.603 409.103 414.103 424.103>
VStem: 2.10254 459<95 97 269 278 122 167 122 122> 406.103 11<49.1414 53.7224 65.2329 74>
Fore
392.103 38 m 25,0,-1
337.103 97 m 1,1,-1
 333.103 36 l 2,2,-1
 333.103 29 329.103 23 321.103 16 c 0,5,-1
 315.103 12 312.103 10 312.103 9 c 1,8,-1
 311.103 8 312.103 7 314.103 6 c 0,11,-1
 323.103 4 332.103 3 339.103 2 c 1,14,-1
 336.103 -8 326.103 -18 323.103 -24 c 1,17,-1
 321.103 -32 321.103 -38 325.103 -43 c 0,20,-1
 328.103 -48 333.103 -49 340.103 -46 c 0,23,-1
 342.103 -46 344.103 -44 345.103 -42 c 0,26,-1
 346.103 -39 346.103 -37 344.103 -35 c 0,29,-1
 340.103 -32 338.103 -33 338.103 -37 c 0,32,-1
 338.103 -39 337.103 -40 337.103 -40 c 0,35,-1
 336.103 -42 334.103 -43 332.103 -42 c 0,38,-1
 330.103 -41 329.103 -40 328.103 -39 c 1,41,-1
 321.103 -34 337.103 -13 349.103 2 c 1,44,-1
 365.103 2 382.103 4 406.103 5 c 0,47,-1
 410.103 5 412.103 6 413.103 7 c 0,50,-1
 416.103 10 414.103 13 410.103 16 c 2,53,-1
 395.103 27 l 1,54,-1
 391.103 38 393.103 47 394.103 65 c 25,57,-1
 398.103 79 409.103 93 410.103 98 c 0,60,-1
 411.103 103 410.103 109 406.103 116 c 0,63,-1
 402.103 122 399.103 127 399.103 129 c 0,66,-1
 396.103 156 402.103 222 398.103 258 c 0,69,-1
 398.103 267 400.103 275 405.103 281 c 0,72,-1
 406.103 283 414.103 289 414.103 291 c 0,75,-1
 415.103 293 415.103 295 414.103 297 c 1,78,-1
 389.103 299 337.103 296 319.103 298 c 1,81,-1
 316.103 297 315.103 295 315.103 293 c 0,84,-1
 315.103 290 315.103 288 316.103 287 c 1,87,-1
 317.103 285 319.103 285 322.103 285 c 0,90,-1
 326.103 285 326.103 285 327.103 285 c 0,93,-1
 333.103 283 337.103 278 339.103 269 c 0,96,-1
 343.103 261 341.103 254 341.103 245 c 1,99,-1
 322.103 270 294.103 289 252.103 282 c 0,102,-1
 209.103 275 172.103 221 159.103 171 c 0,105,-1
 136.103 75 166.103 0 226.103 2 c 1,108,-1
 287.103 4 308.103 55 337.103 97 c 1,1,-1
338.103 112 m 1,111,-1
 309.103 77 290.103 27 247.103 12 c 1,114,-1
 196.103 10 213.103 117 219.103 163 c 0,117,-1
 230.103 205 259.103 249 298.103 269 c 1,120,-1
 306.103 270 334.103 247 335.103 236 c 0,123,-1
 344.103 195 341.103 150 338.103 112 c 1,111,-1
151.103 -123 m 0,126,-1
 36.1025 -101 -10.8975 -20 2.10254 122 c 0,129,-1
 15.1025 278 150.103 392 298.103 386 c 0,132,-1
 412.103 381 480.103 301 461.103 167 c 0,135,-1
 451.103 95 426.103 92 417.103 62 c 1,138,-1
 417.103 56 417.103 52 416.103 49 c 1,141,-1
 411.103 43 407.103 41 406.103 42 c 0,144,-1
 406.103 44 407.103 48 410.103 55 c 1,147,-1
 411.103 57 410.103 61 409.103 65 c 0,150,-1
 407.103 70 406.103 73 406.103 74 c 1,153,-1
 409.103 74 413.103 72 416.103 68 c 1,156,-1
 417.103 75 420.103 85 426.103 98 c 1,159,-1
 426.103 128 444.103 154 451.103 191 c 24,162,-1
 452.103 195 448.103 196 446.103 199 c 17,165,-1
 453.103 266 436.103 298 412.103 327 c 1,168,-1
 416.103 316 413.103 310 405.103 310 c 1,171,-1
 406.103 314 407.103 317 406.103 321 c 0,174,-1
 406.103 324 405.103 327 403.103 329 c 0,177,-1
 401.103 332 400.103 337 397.103 339 c 0,180,-1
 352.103 371 291.103 371 258.103 364 c 0,183,-1
 160.103 342 83.1025 256 70.1025 122 c 0,186,-1
 58.1025 -2 106.103 -75 208.103 -96 c 0,189,-1
 213.103 -97 219.103 -96 225.103 -93 c 24,192,-1
 230.103 -90 229.103 -86 233.103 -81 c 0,195,-1
 251.103 -67 253.103 -88 266.103 -72 c 1,198,-1
 266.103 -68 269.103 -63 274.103 -56 c 1,201,-1
 281.103 -44 292.103 -55 298.103 -55 c 1,204,-1
 303.103 -51 307.103 -49 309.103 -49 c 0,207,-1
 313.103 -48 308.103 -54 294.103 -67 c 1,210,-1
 283.103 -74 277.103 -76 277.103 -73 c 1,213,-1
 264.103 -107 203.103 -133 151.103 -123 c 0,126,-1
EndSplineSet
EndChar
StartChar: A
Encoding: 65 65 32
Width: 374
VWidth: 881
Flags: W
HStem: 609 7<156.217 163.396 163.396 167.341 167.341 174 174 185.803>
VStem: 311 13<24 76.5808>
Fore
154 597 m 5
 153 601 151 606 151 610 c 4
 151 613 152 615 156 616 c 4
 160 616 165 614 174 611 c 4
 183 608 189 607 194 607 c 4
 195 608 198 611 200 616 c 4
 203 621 206 623 209 620 c 5
 203 609 197 595 174 605 c 4
 165 608 159 610 155 609 c 5
 156 607 157 600 161 599 c 28
 190 595 213 596 237 596 c 5
 235 589 220 583 218 577 c 5
 216 551 205 523 203 496 c 13
 246 343 273 257 313 104 c 28
 320 79 325 65 324 40 c 28
 324 27 319 20 311 11 c 4
 277 -23 311 31 311 43 c 5
 301 118 250 243 250 243 c 29
 250 243 243 247 235 239 c 5
 222 229 147 179 134 174 c 5
 109 140 109 60 91 15 c 5
 91 12 93 10 96 7 c 4
 99 4 102 2 103 0 c 5
 100 -2 89 -3 71 -3 c 6
 0 -3 l 5
 1 0 4 3 8 7 c 4
 27 19 31 96 37 111 c 5
 27 95 17 73 10 53 c 4
 9 50 6 48 3 46 c 5
 34 138 l 6
 35 140 38 144 43 149 c 4
 49 154 52 159 54 163 c 5
 148 557 l 6
 151 570 146 581 137 587 c 4
 134 589 132 592 132 596 c 5
 154 597 l 5
197 467 m 5
 134 194 l 5
 171 219 215 242 240 266 c 5
 241 268 244 270 242 274 c 5
 241 278 240 283 240 291 c 12
 238 318 230 333 223 359 c 20
 212 402 209 430 197 467 c 5
EndSplineSet
EndChar
StartChar: B
Encoding: 66 66 33
Width: 349
VWidth: 881
Flags: W
HStem: 11 19<108.104 186.75> 592 5<0 11.167>
VStem: 18 80<33 76.3557 76.3557 308 318 581>
Fore
98 589 m 9
 98 318 l 1
 159 316 204 330 216 365 c 0
 242 456 221 622 98 589 c 9
227 361 m 16
 214 336 189 321 161 321 c 1
 161 316 l 1
 288 330 350 127 251 38 c 0
 216 6 164 16 103 11 c 1
 108 9 111 5 112 -2 c 1
 9 -2 l 1
 9 3 10 6 13 7 c 0
 15 8 17 10 18 13 c 1
 17 581 l 1
 14 588 8 592 0 592 c 1
 0 597 l 1
 120 600 l 2
 238 607 266 467 227 361 c 16
103 33 m 1
 119 22 137 30 153 30 c 0
 171 29 202 33 209 47 c 0
 256 155 248 360 98 308 c 1
 98 237 l 0
 93 166 103 43 103 33 c 1
EndSplineSet
EndChar
StartChar: C
Encoding: 67 67 34
Width: 317
VWidth: 881
Flags: W
VStem: 0.947266 68<113.19 430.062>
Fore
245.947 527 m 1
 242.947 525 240.947 525 238.947 528 c 0
 236.947 531 235.947 534 235.947 537 c 1
 238.947 537 l 1
 241.947 536 242.947 536 241.947 535 c 1
 246.947 536 249.947 550 245.947 558 c 24
 239.947 569 223.947 576 218.947 576 c 0
 197.947 578 172.947 584 148.947 569 c 1
 76.9473 496 72.9473 366 68.9473 226 c 1
 79.9473 138 53.9473 19 154.947 15 c 1
 158.947 16 162.947 18 168.947 22 c 0
 173.947 26 177.947 29 179.947 30 c 1
 179.947 24 176.947 20 170.947 17 c 1
 170.947 15 l 1
 210.947 19 235.947 57 259.947 77 c 1
 266.947 83 268.947 75 265.947 71 c 1
 268.947 55 202.947 -8 142.947 5 c 0
 37.9473 29 3.94727 123 0.947266 244 c 0
 -7.05273 388 35.9473 513 117.947 581 c 0
 162.947 619 296.947 607 245.947 527 c 1
EndSplineSet
EndChar
StartChar: D
Encoding: 68 68 35
Width: 471
VWidth: 881
Flags: W
HStem: 3 7<100.947 121> 596 1<4 126>
VStem: 0 418<12 327 62.7462 85>
Fore
87 574 m 2
 88 598 103 597 124 596 c 1
 126 597 l 0
 4 597 l 2
 1 597 0 597 1 596 c 0
 7 593 11 588 13 582 c 1
 13 77 l 1
 13 37 l 1
 13 22 l 1
 11 18 7 14 0 12 c 1
 0 3 l 1
 13 3 30 3 33 5 c 1
 42 5 57 5 77 4 c 0
 96 3 111 3 121 3 c 1
 121 10 l 1
 101 10 90 17 86 32 c 1
 86 55 l 1
 86 111 l 1
 87 574 l 2
123 548 m 0
 99 520 89 478 95 472 c 1
 93 474 103 489 125 516 c 0
 168 572 230 566 259 556 c 0
 319 534 347 421 349 313 c 0
 348 207 366 99 318 34 c 1
 269 -11 218 17 161 74 c 1
 152 46 208 -3 278 3 c 0
 406 25 432 183 418 327 c 0
 405 425 377 513 317 565 c 0
 282 593 231 609 182 592 c 0
 152 581 136 565 123 548 c 0
EndSplineSet
EndChar
StartChar: E
Encoding: 69 69 36
Width: 321
VWidth: 881
Flags: W
HStem: 320 10<94 121.696> 597 6<1.04688 6.90625 117 254>
VStem: 21 73<22 320 330 452.208 452.208 589.152> 266 5<576.732 587.079>
Fore
94 320 m 13
 94 111 l 5
 94 55 l 5
 95 22 l 5
 104 27 122 28 135 25 c 4
 161 18 237 2 257 22 c 5
 258 24 260 31 264 42 c 5
 268 42 l 5
 268 5 l 5
 243 2 233 -10 203 -9 c 5
 152 6 83 7 7 3 c 5
 7 12 l 5
 15 14 19 18 21 22 c 5
 21 37 l 5
 21 77 l 5
 21 289 l 5
 21 582 l 5
 20 587 16 592 10 596 c 5
 8 597 6 597 4 597 c 5
 3 597 2 597 1 598 c 4
 1 598 0 600 0 603 c 5
 266 603 l 5
 270 600 271 594 271 586 c 4
 270 578 269 572 266 569 c 5
 266 583 262 592 254 596 c 5
 117 597 l 6
 104 595 95 591 96 574 c 4
 92 512 94 401 94 330 c 13
 94 330 116 333 123 330 c 5
 132 328 137 321 136 307 c 4
 135 291 121 295 116 300 c 4
 112 304 112 315 116 312 c 4
 122 308 127 304 127 312 c 4
 126 320 114 325 94 320 c 13
EndSplineSet
EndChar
StartChar: F
Encoding: 70 70 37
Width: 321
VWidth: 881
Flags: W
HStem: 2 21G<70.5 108> 320 10<94 121.696> 597 6<1.04688 9.90625 117 254>
VStem: 0 271<586 603 720 857> 21 73<17.2591 320 330 452.208 452.208 589.152> 266 5<576.732 587.079>
Fore
7 3 m 1xec
 7 12 l 1
 15 14 19 18 21 22 c 1
 21 37 l 1
 21 77 l 1
 21 289 l 1
 21 582 l 1xec
 20 587 16 592 10 596 c 1
 8 597 6 597 4 597 c 1
 3 597 2 597 1 598 c 0
 1 598 0 600 0 603 c 1xf0
 266 603 l 1xe4
 270 600 271 594 271 586 c 0xf0
 270 578 269 572 266 569 c 1
 266 583 262 592 254 596 c 1
 117 597 l 2
 104 595 95 591 96 574 c 0
 92 512 94 401 94 330 c 9
 94 330 116 333 123 330 c 1
 132 328 137 321 136 307 c 0
 135 291 121 295 116 300 c 0
 112 304 112 315 116 312 c 0
 122 308 127 304 127 312 c 0
 126 320 114 325 94 320 c 9
 94 111 l 1
 94 55 l 1
 95 22 l 1
 96 17 101 14 108 12 c 1
 108 2 l 1
 33 6 83 7 7 3 c 1xec
EndSplineSet
EndChar
StartChar: G
Encoding: 71 71 38
Width: 417
VWidth: 881
Flags: W
HStem: 209.336 1.5<203.833 215.624> 243.75 11.75<278.5 291.5>
VStem: 1.21289 366.287<207.167 217.833 212.5 314 418.677 427.086> 224.5 73.583<82.659 83.5 83.5 186.778 188.177 196.586 196.586 199.836> 247.5 4<259.343 275.5> 263.5 4<263.86 277.5> 319.5 36.5<-25.329 -21.5 -18 -8.50038 -8.50038 1 1 3.77257 4.56251 9 9 15.4539 15.4539 22 36 41.5 90.0418 111.458> 328.5 39<97.7965 119.002 194.863 210.47>
Fore
338.25 -41.25 m 1xc2
 334.25 -49.917 333.167 -67 329.5 -77 c 0
 325.833 -87 324 -92.333 324 -93 c 1
 323.333 -94.333 320.333 -99.333 315 -108 c 0
 309.667 -116.667 307 -123.667 307 -129 c 1
 316.333 -127 325.333 -109.333 334 -76 c 0
 336 -68 339.167 -60.167 343.5 -52.5 c 0
 347.833 -44.833 350.333 -38.667 351 -34 c 0
 351.667 -32 352.167 -29.167 352.5 -25.5 c 0
 352.833 -21.833 353 -19.333 353 -18 c 0
 353 -11.6748 354 -5.3418 356 1 c 1
 356 9 l 1xc2
 355.333 12.333 355 16.667 355 22 c 2
 355 31 l 1
 355 33 l 2
 355 41.667 350.851 48.7471 348.184 50.7471 c 1
 350.587 58.7578 353.524 67.8408 356.998 77.9941 c 0
 357.536 80.2217 358.204 84.2236 359 90 c 0
 359.333 90.8662 359.5 93.3662 359.5 97.5 c 0
 359.5 103.825 360.5 110.158 362.5 116.5 c 1
 362.5 124.5 l 1
 361.833 127.833 361.5 132.167 361.5 137.5 c 2
 361.5 146.5 l 1
 361.5 148.5 l 2
 361.5 157.167 357.501 164.746 354.834 166.746 c 1
 357.209 174.637 360.098 183.555 363.5 193.5 c 0
 366.167 200.833 367.5 207.167 367.5 212.5 c 0xe0
 367.5 217.833 363.417 222.25 360.75 224.25 c 1
 363.5 235.5 l 0
 365.5 241.5 366.5 246.833 366.5 251.5 c 0
 366.5 258.167 364.833 264.5 361.5 270.5 c 0
 358.167 275.833 351.833 279.5 342.5 281.5 c 0
 339.167 282.167 335.833 282.5 332.5 282.5 c 0
 327.833 282.5 323.833 281.833 320.5 280.5 c 0
 319.167 279.833 317 278.5 314 276.5 c 0
 311 274.5 309.167 273.167 308.5 272.5 c 0
 307.833 271.833 305.667 271.333 302 271 c 0
 298.333 270.667 295.667 269.5 294 267.5 c 0
 292.333 265.5 291.5 258.833 291.5 255.5 c 1
 275.5 255.5 267.5 262.833 267.5 277.5 c 1
 263.5 277.5 l 1
 263.5 268.167 267.833 259.833 276.5 252.5 c 1
 259.833 255.167 251.5 262.833 251.5 275.5 c 1
 247.5 275.5 l 1
 247.5 261.5 253.167 252.167 264.5 247.5 c 1
 260.5 247.5 248.833 239.5 247.5 233.5 c 1
 258.5 235.5 263.25 240 270.5 243.5 c 1
 267 240 263.833 240.167 262.5 233.5 c 1
 268.5 233.5 275.167 238.417 278.5 243.75 c 1
 283.833 243.75 290.833 244.833 295.5 247.5 c 0
 296.833 248.167 299.167 249.833 302.5 252.5 c 2
 310.5 257.5 l 1
 316.5 257.5 l 1
 321.5 260.5 l 2
 325.038 262.623 327.25 263.077 328.5 262.5 c 2
 341.5 256.5 l 1
 344.5 242.5 l 1
 343.833 239.833 341.833 236.167 338.5 231.5 c 0
 335.167 226.833 333.167 223.5 332.5 221.5 c 0
 329.833 213.5 328.5 205.833 328.5 198.5 c 0xcd
 328.5 193.833 329.167 189.5 330.5 185.5 c 1
 339.02 186 l 1
 331 159.5 l 1
 322.5 119.5 l 1
 321.833 108.833 321.5 100.333 321.5 94 c 0
 321.5 87.667 321.833 83.167 322.5 80.5 c 1
 323.167 79.167 332.459 77.749 335.792 77.749 c 1
 334.804 75.5137 333.706 73.4307 332.5 71.5 c 0
 327.262 63.1191 323.595 57.6191 321.5 55 c 0
 314.833 46.667 311.167 40.167 310.5 35.5 c 1
 315.167 37.5 318.167 39.5 319.5 41.5 c 1
 319.5 36 l 2
 319.5 26.6885 318.333 16.0215 316 4 c 0
 315.069 -0.793945 314.735 -9.29395 315 -21.5 c 0
 314.525 -25.9346 314.858 -30.4346 316 -35 c 1
 316.667 -36.333 326.917 -34.5 330.25 -34.5 c 1
 329.011 -37.7002 327.646 -41.3682 326 -44 c 0
 320.762 -52.3809 317.095 -57.8809 315 -60.5 c 0
 308.333 -68.833 304.667 -75.333 304 -80 c 1
 308.667 -78 311.667 -76 313 -74 c 1
 313 -79.5 l 1
 313 -84 l 1
 315 -83.333 317.167 -79.833 319.5 -73.5 c 0
 321.833 -67.167 323.333 -63.333 324 -62 c 0
 330 -50.667 334.333 -41.667 337 -35 c 1
 338.25 -41.25 l 1xc2
171.214 15 m 1
 171.213 17 l 1
 177.213 20 180.213 24 180.213 30 c 1
 178.213 29 174.213 26 169.213 22 c 0
 163.213 18 159.213 16 155.213 15 c 1
 58.2129 17 69.2129 222 72.2129 316 c 0
 77.2129 425 97.2129 555 173.213 582 c 1
 189.213 585 205.213 588 221.213 579 c 0
 225.213 576 240.213 564 245.213 547 c 0
 248.213 540 247.213 536 242.213 535 c 1
 243.213 536 242.213 536 239.213 537 c 1
 236.213 537 l 1
 236.213 534 237.213 531 239.213 528 c 0
 241.213 525 243.213 525 246.213 527 c 1
 250.213 531 252.213 537 251.213 545 c 0
 251.213 553 249.213 556 246.213 563 c 1
 251.213 563 257.213 555 259.213 553 c 1
 262.213 550 264.213 548 266.213 546 c 1
 262.213 569 242.213 599 192.213 596 c 0
 47.2129 588 22.2129 448 1.21289 314 c 0xe0
 -6.78711 159 24.5 11 168.5 0 c 1
 187.167 0 239.667 8.16699 253 19.5 c 1
 253 20.167 253.833 20.833 255.5 21.5 c 0
 257.167 22.167 258.333 22.5 259 22.5 c 1
 261 24.5 263 27 265 30 c 0
 267 33 269.333 36.833 272 41.5 c 0
 274.667 46.167 276.333 49.5 277 51.5 c 0
 282.774 69.0293 288.524 78.2793 294.25 79.25 c 1
 297.164 115.523 298.441 154.636 298.083 196.586 c 0
 297.709 200.742 301.292 205.159 308.833 209.836 c 1
 310.833 210.503 309.333 211.003 304.333 211.336 c 0
 299.333 211.669 292 211.836 282.333 211.836 c 0
 272.666 211.836 263.333 211.669 254.333 211.336 c 0
 238.758 210.759 229.092 210.593 225.333 210.836 c 0
 214.764 212.19 207.597 212.19 203.833 210.836 c 0
 201.332 209.936 203.942 209.436 211.666 209.336 c 0
 213.44 209.454 214.773 208.62 215.666 206.836 c 2
 220.833 199.836 l 1
 220.833 199.169 221.5 195.169 222.833 187.836 c 0
 226.9 165.466 227.456 130.687 224.5 83.5 c 0xd0
 224.5 76.833 223.167 67.5 220.5 55.5 c 1
 219.167 53.5 217.333 50.5 215 46.5 c 0
 212.667 42.5 211.167 39.167 210.5 36.5 c 1
 199.488 27.1754 184.312 18.0957 171.214 15 c 1
EndSplineSet
EndChar
StartChar: H
Encoding: 72 72 39
Width: 399
VWidth: 881
Flags: W
HStem: 288 8<8.92716 16> 304 16<90 118>
VStem: 0 8<298.825 311.834> 17 74<19.6052 288 296 304 320 562.623> 252 74<23 245 264 281 299 565.737>
Fore
252 281 m 1
 234 293 l 0
 209 308 151 322 120 313 c 0
 120 313 102 308 90 304 c 17
 91 114 l 1
 91 58 l 1
 91 31 l 1
 91 27 93 22 97 15 c 0
 101 9 103 4 104 1 c 1
 3 1 l 1
 3 3 5 7 9 12 c 0
 13 17 16 22 17 26 c 1
 17 50 l 1
 17 107 l 1
 16 288 l 9
 13 288 8 287 8 287 c 8
 3 291 0 295 0 302 c 0
 1 308 3 313 8 316 c 1
 7 309 9 297 16 296 c 1
 17 555 l 1
 16 559 13 564 8 571 c 0
 3 578 0 584 0 589 c 1
 109 589 l 1
 109 585 107 581 102 576 c 0
 97 571 95 568 94 567 c 1
 91 564 l 1
 90 320 l 1
 99 323 109 322 119 326 c 0
 155 339 194 324 232 307 c 1
 250 299 l 1
 252 559 l 1
 250 563 247 569 242 575 c 0
 237 581 234 586 234 589 c 1
 336 589 l 1
 336 579 l 1
 331 576 l 2
 328 573 326 571 326 570 c 1
 324 264 l 1
 338 253 348 241 349 225 c 1
 349 215 344 208 336 206 c 1
 336 215 l 1
 338 221 343 224 342 233 c 1
 336 239 332 241 326 245 c 1
 326 23 l 1
 330 21 l 1
 331 18 333 15 336 12 c 0
 340 8 341 4 342 1 c 1
 243 1 l 1
 244 3 245 5 247 7 c 0
 249 9 250 11 252 13 c 1
 252 281 l 1
EndSplineSet
EndChar
StartChar: I
Encoding: 73 73 40
Width: 181
VWidth: 881
Flags: W
HStem: 3 7<101.862 122.276> 285 9<5.37085 10.0297 10.0297 14.2764> 292 20<2.27637 6.77637 111.276 112.776 113.276 123.776> 317 8<86.2764 92.8892> 577 20G<3.27637 108.276>
VStem: 14.2764 72<32 285 294 318.264 325 449.708 449.708 587.785> 111.276 4<305.484 311>
Fore
14.2764 285 m 1xde
 10.2764 285 7.27637 287 5.27637 287 c 0
 -2.72363 291 -0.723633 306 5.27637 312 c 1xbe
 8.27637 312 10.2764 312 11.2764 311 c 1
 9.27637 308 5.27637 308 5.27637 300 c 0
 6.27637 293 12.2764 293 14.2764 294 c 1xde
 14.2764 582 l 1
 12.2764 588 8.27637 593 2.27637 596 c 0
 1.27637 597 2.27637 597 4.27637 597 c 2
 108.276 597 l 1
 101.276 597 98.2764 597 97.2764 597 c 1
 95.2764 594 89.2764 587 88.2764 574 c 0
 84.2764 510 87.2764 398 86.2764 325 c 1
 96.2764 328 107.276 330 119.276 330 c 1
 128.276 328 136.276 313 129.276 300 c 0
 127.276 296 113.276 296 111.276 300 c 1
 111.276 312 l 1xbe
 114.276 312 115.276 311 115.276 311 c 1
 115.276 307 122.276 301 124.276 308 c 0
 126.276 322 114.276 326 94.2764 320 c 0
 94.2764 320 89.2764 318 86.2764 317 c 17
 86.2764 32 l 1
 90.2764 17 102.276 10 122.276 10 c 1
 122.276 3 l 1
 112.276 3 97.2764 3 77.2764 4 c 0
 57.2764 5 43.2764 5 34.2764 5 c 1
 31.2764 3 13.2764 3 0.276367 3 c 1
 0.276367 12 l 1
 7.27637 14 12.2764 18 14.2764 22 c 1
 14.2764 285 l 1xde
EndSplineSet
EndChar
StartChar: J
Encoding: 74 74 41
Width: 288
VWidth: 881
Flags: W
HStem: 92 7<12.1033 17.8379> 582 20G<213 230.5>
VStem: 148 73<100.684 123 123 571.603>
Fore
132 599 m 1
 159 604 199 602 227 602 c 0
 234 602 237 599 238 594 c 1
 230 593 225 586 225 578 c 0
 211 442 226 276 221 123 c 1
 202 60 179 -15 89 3 c 1
 32 3 10 44 0 96 c 1
 2 102 4 107 6 108 c 0
 16 115 27 109 24 99 c 1
 26 90 16 90 11 92 c 1
 12 97 14 99 18 99 c 1
 18 102 l 1
 12 102 9 99 8 95 c 0
 7 91 8 86 11 81 c 0
 18 63 38 62 59 52 c 1
 116 55 136 111 148 170 c 1
 146 577 l 2
 145 580 143 584 139 588 c 0
 135 592 133 595 132 599 c 1
EndSplineSet
EndChar
StartChar: K
Encoding: 75 75 42
Width: 431
VWidth: 881
Flags: W
HStem: 588 20G<0 104 217 347>
VStem: 13 78<19.522 237 391 596.583>
Fore
253 577 m 1,0,-1
238 145 m 24,1,-1
 212 179 206 205 179 240 c 24,4,-1
 162 263 128 292 128 292 c 0,7,-1
 91 237 l 1,8,-1
 91 25 l 1,9,-1
 92 22 95 18 101 14 c 0,12,-1
 107 10 110 6 110 0 c 1,15,-1
 1 0 l 1,16,-1
 1 5 3 9 7 12 c 0,19,-1
 10 16 12 20 13 22 c 1,22,-1
 13 590 l 1,23,-1
 12 594 10 597 6 599 c 0,26,-1
 2 601 0 604 0 608 c 1,29,-1
 104 608 l 1,30,-1
 103 604 102 602 99 601 c 0,33,-1
 96 599 95 598 93 595 c 1,36,-1
 94 391 l 1,37,-1
 130 465 180 524 223 590 c 1,40,-1
 224 593 223 596 221 600 c 0,43,-1
 219 604 217 606 217 608 c 1,46,-1
 347 608 l 1,47,-1
 347 604 346 601 345 599 c 0,50,-1
 343 597 340 596 337 594 c 0,53,-1
 334 593 331 591 329 590 c 1,56,-1
 149 323 l 8,57,-1
 141 306 164 298 174 283 c 24,60,-1
 208 232 229 204 260 152 c 24,63,-1
 286 110 294 82 321 41 c 24,66,-1
 330 28 337 18 352 14 c 17,69,-1
 375 -2 370 32 381 25 c 1,72,-1
 381 16 378 9 373 5 c 1,75,-1
 291 3 283 86 238 145 c 24,1,-1
EndSplineSet
EndChar
StartChar: L
Encoding: 76 76 43
Width: 342
VWidth: 881
Flags: W
HStem: 0 10<101.737 121.36 121.36 167.176 167.176 183.422 183.422 236.221> 302 10<131.681 145.36> 328 21G<86.8604 93.8604> 577 20G<1.86035 125.36>
VStem: 0.360352 11<304.53 311> 14.3604 72<328 451.185 451.185 574 582 588.75> 145.36 4<312 325.783>
Fore
121.36 10 m 5
 102.36 10 90.3604 17 86.3604 32 c 5
 86.3604 55 l 1
 86.3604 111 l 1
 86.3604 314 l 1
 98.3604 327 146.36 339 145.36 312 c 1
 134.36 309 138.36 316 131.36 318 c 1
 131.36 305 l 1
 132.36 303 135.36 302 140.36 302 c 0
 148.36 303 150.36 305 149.36 312 c 0
 149.36 325 146.36 333 139.36 336 c 1
 127.36 338 101.36 331 86.3604 328 c 1
 87.3604 400 84.3604 510 88.3604 574 c 0
 89.3604 598 104.36 597 125.36 596 c 1
 2.36035 597 l 1
 1.36035 596 1.36035 596 2.36035 596 c 1
 8.36035 593 12.3604 588 14.3604 582 c 1
 14.3604 295 l 1
 12.3604 292 10.3604 292 7.36035 296 c 1
 1.36035 300 11.3604 307 11.3604 311 c 1
 10.3604 312 8.36035 312 4.36035 312 c 1
 2.36035 308 0.360352 304 0.360352 300 c 1
 -0.639648 293 0.360352 289 4.36035 287 c 0
 7.36035 286 11.3604 286 14.3604 287 c 1
 14.3604 77 l 1
 14.3604 37 l 1
 14.3604 22 l 1
 12.3604 18 7.36035 14 0.360352 12 c 1
 0.360352 3 l 1
 13.3604 3 21.3604 3 24.3604 5 c 1
 33.3604 5 57.3604 5 77.3604 4 c 4
 97.3604 3 111.36 0 121.36 0 c 4
 141.36 -1 251.36 0 261.36 0 c 5
 267.36 7 272.36 28 281.36 21 c 4
 287.36 16 286.36 11 284.36 5 c 28
 283.36 2 280.36 -7 276.36 5 c 5
 276.36 3 276.36 -1 275.36 -5 c 5
 282.36 -10 287.36 -8 290.36 1 c 4
 293.36 10 292.36 18 288.36 25 c 4
 285.36 30 280.36 32 274.36 30 c 4
 267.36 28 261.36 17 261.36 17 c 4
 261.36 42 l 5
 257.36 42 l 5
 256.36 41 255.36 38 253.36 33 c 4
 251.36 28 250.36 24 249.36 22 c 4
 242.36 14 230.36 10 213.36 10 c 4
 195.36 10 131.36 9 121.36 10 c 5
EndSplineSet
EndChar
StartChar: M
Encoding: 77 77 44
Width: 464
VWidth: 881
Flags: W
HStem: 592 9<100.047 105 309 313.952>
VStem: 0 414<598 601 601 601 674.115 703>
Fore
396 22 m 0,0,-1
207 289 m 1,1,-1
 203 299 196 302 192 312 c 24,4,-1
 186 328 188 340 180 356 c 24,7,-1
 174 370 164 374 157 388 c 24,10,-1
 151 401 148 421 147 423 c 0,13,-1
 146 425 97 510 94 515 c 0,16,-1
 91 520 96 577 96 577 c 1,19,-1
 96 584 97 588 100 590 c 0,22,-1
 101 591 102 592 105 592 c 0,25,-1
 108 593 109 596 110 601 c 1,28,-1
 55 601 l 1,29,-1
 46 610 28 661 46 679 c 0,32,-1
 51 683 55 681 57 675 c 1,35,-1
 59 673 52 668 53 666 c 1,38,-1
 58 666 61 668 63 673 c 0,41,-1
 65 678 64 682 60 686 c 0,44,-1
 55 691 49 690 42 683 c 0,47,-1
 36 676 31 669 30 661 c 1,50,-1
 28 639 36 614 43 601 c 1,53,-1
 34 603 10 601 0 601 c 1,56,-1
 0 598 2 596 5 594 c 0,59,-1
 8 593 10 591 12 588 c 1,62,-1
 12 575 l 1,63,-1
 12 545 l 1,64,-1
 12 17 l 1,65,-1
 10 14 8 12 6 9 c 0,68,-1
 3 7 1 4 1 0 c 1,71,-1
 108 0 l 1,72,-1
 107 3 105 7 100 12 c 0,75,-1
 96 16 93 20 92 25 c 1,78,-1
 95 473 l 9,79,-1
 100 468 104 466 107 460 c 24,82,-1
 113 448 111 439 117 428 c 24,85,-1
 125 409 133 401 141 383 c 24,88,-1
 146 374 145 368 150 359 c 24,91,-1
 171 319 177 293 207 258 c 1,94,-1
 238 293 243 319 264 359 c 24,97,-1
 268 368 268 374 272 383 c 24,100,-1
 281 401 289 409 297 428 c 24,103,-1
 303 439 301 448 307 460 c 24,106,-1
 310 466 314 468 319 473 c 17,109,-1
 322 25 l 1,110,-1
 321 20 318 16 314 12 c 0,113,-1
 309 7 306 3 306 0 c 1,116,-1
 413 0 l 1,117,-1
 413 4 411 7 408 9 c 0,120,-1
 405 12 403 14 402 17 c 1,123,-1
 402 545 l 1,124,-1
 402 575 l 1,125,-1
 402 588 l 1,126,-1
 403 591 406 593 409 594 c 0,129,-1
 412 596 414 598 414 601 c 1,132,-1
 404 601 379 603 370 601 c 1,135,-1
 378 614 386 639 384 661 c 1,138,-1
 382 669 378 676 372 683 c 0,141,-1
 365 690 359 691 354 686 c 0,144,-1
 350 682 349 678 351 673 c 0,147,-1
 352 668 356 666 361 666 c 1,150,-1
 362 668 355 673 357 675 c 1,153,-1
 359 681 363 683 367 679 c 0,156,-1
 386 661 368 610 358 601 c 1,159,-1
 304 601 l 1,160,-1
 305 596 306 593 309 592 c 0,163,-1
 311 592 313 591 314 590 c 0,166,-1
 316 588 318 584 318 577 c 1,169,-1
 318 577 323 520 320 515 c 0,172,-1
 317 510 268 425 267 423 c 0,175,-1
 266 421 263 401 257 388 c 24,178,-1
 250 374 240 370 234 356 c 24,181,-1
 226 340 228 328 222 312 c 24,184,-1
 218 302 211 299 207 289 c 1,1,-1
EndSplineSet
EndChar
StartChar: N
Encoding: 78 78 45
Width: 404
VWidth: 881
Flags: W
HStem: 2 21G<0 108> 582 20G<4.5 44 44 104.5 246 353>
VStem: 0 354<2 5 2 2 -96.8939 2> 14 81<19.755 25 441 483.106 483.106 582>
Fore
259 87 m 25xd0
 258 25 l 17
 257 18 255 14 254 12 c 0
 252 11 251 10 248 9 c 1
 246 8 245 6 244 2 c 1
 298 2 l 1
 306 -23 316 -67 307 -77 c 0
 303 -81 299 -79 296 -74 c 1
 296 -73 297 -71 298 -69 c 0
 299 -67 300 -66 300 -65 c 1
 296 -65 292 -67 291 -71 c 0
 289 -75 290 -79 294 -83 c 0
 299 -89 305 -88 312 -81 c 0
 321 -70 327 -64 324 -46 c 0
 323 -41 318 -18 314 0 c 25
 354 2 l 1xe0
 354 5 352 7 349 8 c 0
 346 10 343 12 342 15 c 1
 342 584 l 1
 343 587 345 589 348 592 c 0
 351 595 353 598 353 602 c 1
 246 602 l 1
 246 599 249 595 254 590 c 0
 258 586 261 581 262 577 c 1
 261 125 l 1
 197 228 176 349 95 441 c 1
 95 487 88 537 92 582 c 4
 93 586 95 589 99 593 c 0
 102 596 104 599 105 602 c 1
 81 602 70 604 44 602 c 2
 4 602 l 1
 5 593 9 586 14 582 c 1
 14 25 l 1xd0
 13 22 11 19 6 15 c 0
 2 11 0 6 0 2 c 1xe0
 108 2 l 1
 108 7 106 11 102 15 c 0
 97 20 94 23 94 27 c 2
 95 412 l 1
 166 341 196 177 259 87 c 25xd0
EndSplineSet
EndChar
StartChar: O
Encoding: 79 79 46
Width: 411
VWidth: 881
Flags: W
HStem: 576 20G<140.102 275.602>
VStem: 4.60156 355<183 305 340 446 305 340 340 340>
Fore
359.602 305 m 4
 343.602 154 306.602 25 166.602 -2 c 5
 12.6016 10 -12.3984 183 4.60156 340 c 4
 28.6016 471 65.6016 594 214.602 596 c 5
 336.602 575 370.602 446 359.602 305 c 4
167.602 565 m 4
 96.6016 519 76.6016 419 72.6016 312 c 4
 59.6016 168 82.6016 -27 192.602 17 c 5
 263.602 79 290.602 197 289.602 330 c 4
 289.602 411 299.602 492 267.602 545 c 4
 252.602 564 191.602 581 167.602 565 c 4
EndSplineSet
EndChar
StartChar: P
Encoding: 80 80 47
Width: 292
VWidth: 881
Flags: W
HStem: 308 10<98 169.304> 592 5<0 55>
VStem: 21 77<13 159 159 308 555 579.5> 197 45<354.5 506.75>
Fore
242 429 m 0
 245 552 208 604 110 599 c 0
 92 596 73 598 55 597 c 1
 0 597 l 1
 0 592 l 1
 8 592 14 588 17 581 c 0
 20 573 21 565 21 555 c 2
 18 13 l 1
 17 10 15 8 13 7 c 0
 10 6 9 3 9 -2 c 1
 112 -2 l 1
 112 3 109 7 104 10 c 1
 98 308 l 1
 171 319 240 324 242 429 c 0
98 318 m 1
 98 592 l 1
 152 594 158 585 161 540 c 1
 169 540 171 546 167 558 c 1
 198 532 197 487 197 439 c 0
 197 379 188 314 98 318 c 1
EndSplineSet
EndChar
StartChar: Q
Encoding: 81 81 48
Width: 436
VWidth: 881
Flags: W
HStem: -1 1<279.431 365.752> 576 20G<145.931 282.931>
VStem: 291.431 74<22 77 140.36 447.89>
Fore
362.431 305 m 2
 365.431 22 l 1
 372.431 4 370.431 1 386.431 -1 c 1
 279.431 0 l 1
 286.431 3 290.431 8 291.431 15 c 1
 291.431 77 l 1
 260.431 32 233.431 11 168.431 -2 c 1
 6.43066 10 -18.5693 204 10.4307 364 c 0
 32.4307 482 74.4307 595 217.431 596 c 0
 348.431 585 367.431 441 362.431 305 c 2
211.431 573 m 0
 78.4307 593 74.4307 412 74.4307 272 c 0
 78.4307 165 47.4307 19 158.431 12 c 1
 161.431 13 165.431 15 171.431 19 c 0
 176.431 23 180.431 25 182.431 26 c 1
 182.431 20 179.431 16 174.431 14 c 1
 271.431 48 288.431 197 291.431 330 c 0
 291.431 438 312.431 567 211.431 573 c 0
EndSplineSet
EndChar
StartChar: R
Encoding: 82 82 49
Width: 420
VWidth: 881
Flags: W
HStem: 592 5<0 11.167>
VStem: 21 77<13 159 159 321.812 360 579.5> 209 37<393.405 529.779>
Fore
362 5 m 1
 314 -5 295 34 269 65 c 24
 250 88 253 109 236 133 c 24
 224 151 207 153 195 171 c 24
 176 198 176 220 158 248 c 24
 138 279 107 358 100 322 c 16
 99 318 98 313 98 308 c 2
 104 10 l 1
 109 7 112 3 112 -2 c 1
 9 -2 l 1
 9 3 10 6 13 7 c 0
 15 8 17 10 18 13 c 1
 21 555 l 2
 21 565 20 573 17 581 c 0
 14 588 8 592 0 592 c 1
 0 597 l 1
 55 597 l 2
 168 609 244 576 246 470 c 0
 246 418 247 374 217 341 c 0
 204 326 183 343 169 330 c 24
 159 320 164 307 168 293 c 24
 175 272 186 263 196 244 c 24
 210 214 213 194 231 166 c 24
 248 140 266 132 284 107 c 24
 287 103 273 115 272 110 c 24
 271 95 274 86 282 73 c 24
 292 57 303 52 317 40 c 24
 330 26 341 0 361 15 c 1
 363 17 363 22 362 28 c 1
 365 28 368 27 370 25 c 1
 369 15 366 9 362 5 c 1
99 360 m 1
 118 364 118 329 138 324 c 24
 149 321 149 339 160 343 c 24
 169 348 178 334 186 345 c 0
 214 380 209 425 209 477 c 24
 208 508 203 538 184 553 c 1
 188 542 186 536 178 536 c 1
 178 577 148 592 98 583 c 1
 99 360 l 1
EndSplineSet
EndChar
StartChar: S
Encoding: 83 83 50
Width: 398
VWidth: 881
Flags: W
HStem: 293 3<162 253.985> 577 20G<245 348>
VStem: 0 348<164 597 159.083 164> 255 85<475.382 509 538.89 582 582 586.625>
Fore
279 249 m 5xe0
 283 237 281 231 273 231 c 5
 276 238 274 246 271 250 c 4
 245 280 227 286 162 288 c 5
 145 281 l 5
 150 293 l 5
 143 293 124 298 95 308 c 5
 24 321 3 402 17 488 c 4
 26 535 53 585 107 592 c 4
 191 603 232 581 257 537 c 5
 254 546 257 573 253 582 c 5
 253 583 252 585 249 587 c 4
 246 589 245 593 245 597 c 5
 348 597 l 5xe0
 348 595 344 591 338 587 c 5
 340 473 l 5xd0
 345 470 348 466 348 461 c 5xe0
 245 461 l 5
 245 465 246 468 249 469 c 4
 255 475 l 5
 257 483 255 501 255 509 c 5xd0
 241 542 216 575 169 579 c 4
 69 587 79 471 80 409 c 4
 83 330 108 298 196 296 c 4
 279 290 324 230 325 152 c 4
 326 111 317 77 305 49 c 4
 280 -9 182 -2 107 2 c 4
 37 11 12 67 13 150 c 5
 10 156 6 161 0 164 c 5
 27 169 72 164 105 165 c 5
 91 163 90 155 87 142 c 4
 82 123 80 52 99 36 c 5
 129 -1 273 7 296 56 c 4
 297 59 296 63 294 67 c 4
 292 72 291 75 291 76 c 5
 295 76 296 76 299 72 c 5
 308 127 318 220 279 249 c 5xe0
EndSplineSet
EndChar
StartChar: T
Encoding: 84 84 51
Width: 520
VWidth: 881
Flags: W
HStem: 1 6<279.211 296.057 296.057 306.139> 587 24<354.681 408.975>
VStem: 2.13867 15<597.765 608.806> 198.139 72<29 531.036>
Fore
3.13867 577 m 1
 -0.861328 583 -0.861328 590 2.13867 599 c 0
 5.13867 608 10.1387 610 17.1387 606 c 1
 16.1387 601 15.1387 598 15.1387 595 c 1
 5.13867 601 l 1
 2.13867 578 19.1387 573 31.1387 587 c 1
 31.1387 595 l 1
 54.1387 592 56.1387 605 79.1387 611 c 0
 115.139 620 143.139 587 176.139 594 c 0
 196.139 598 205.139 612 230.139 610 c 0
 258.139 608 294.139 581 332.139 599 c 0
 347.139 606 361.139 610 375.139 611 c 0
 396.139 612 416.139 610 423.139 595 c 1
 429.139 595 434.139 595 439.139 595 c 1
 439.139 589 l 1
 451.139 578 l 1
 464.139 576 464.139 588 464.139 601 c 1
 454.139 595 l 1
 454.139 598 454.139 601 452.139 606 c 1
 460.139 610 465.139 608 468.139 599 c 0
 471.139 590 471.139 583 466.139 577 c 1
 461.139 562 441.139 577 439.139 580 c 1
 439.139 559 l 1
 435.139 559 l 1
 432.139 571 429.139 577 428.139 578 c 0
 421.139 586 408.139 587 391.139 587 c 0
 374.139 588 313.139 582 307.139 580 c 0
 298.139 577 281.139 574 277.139 561 c 0
 270.139 538 271.139 398 270.139 325 c 1
 270.139 29 l 1
 275.139 14 287.139 7 306.139 7 c 1
 306.139 0 l 1
 296.139 0 281.139 0 261.139 1 c 2
 184.139 0 l 1
 184.139 9 l 1
 191.139 11 195.139 14 198.139 19 c 1
 198.139 302 l 1
 198.139 578 l 1
 189.139 574 173.139 569 159.139 574 c 0
 127.139 586 66.1387 600 43.1387 578 c 0
 41.1387 577 39.1387 571 36.1387 559 c 1
 31.1387 559 l 1
 31.1387 579 l 1
 29.1387 576 7.13867 563 3.13867 577 c 1
EndSplineSet
EndChar
StartChar: U
Encoding: 85 85 52
Width: 465
VWidth: 881
Flags: W
HStem: 589 8<395.724 415.414 0.414062 415.414 293.414 293.414> 597 0<1.41406 86.6412>
VStem: 12.4141 76<128.412 136 299 582> 307.414 72<285.097 568>
Fore
415.414 597 m 1
 415.414 589 l 1
 396.414 589 384.414 582 379.414 568 c 1
 380.414 484 388.414 288 364.414 224 c 0
 333.414 118 300.414 16 180.414 -2 c 1
 36.4141 9 14.4141 158 10.4141 299 c 2
 12.4141 582 l 1
 9.41406 588 5.41406 593 0.414062 596 c 0
 -0.585938 597 0.414062 597 1.41406 597 c 2
 105.414 597 l 1
 86.4141 599 91.4141 591 86.4141 574 c 1
 88.4141 136 l 2
 90.4141 83 102.414 8 170.414 12 c 0
 173.414 13 177.414 15 182.414 19 c 0
 188.414 23 192.414 25 194.414 26 c 1
 194.414 20 191.414 16 185.414 14 c 1
 185.414 12 l 1
 245.414 28 264.414 93 282.414 153 c 0
 316.414 250 303.414 433 307.414 577 c 1
 305.414 581 300.414 585 293.414 587 c 1
 293.414 597 l 1
 333.414 592 374.414 596 415.414 597 c 1
EndSplineSet
EndChar
StartChar: V
Encoding: 86 86 53
Width: 378
VWidth: 881
Flags: W
HStem: 577 20G<0.5 71>
VStem: 143 72<18.1421 32 32 37.6154 37.6154 43 43 92.8037> 233 12<15.6831 21.0225> 308 6<470.432 497 497 511.631 571.92 575>
Fore
198 117 m 5,0,-1
153 304 m 4,1,-1
325 558 m 28,2,-1
 327 572 331 586 325 595 c 5,5,-1
 319 595 l 5,6,-1
 319 591 320 585 321 577 c 4,9,-1
 322 569 317 558 317 560 c 4,12,-1
 316 570 313 575 308 575 c 5,15,-1
 308 571 309 562 311 548 c 4,18,-1
 313 533 310 533 308 523 c 28,21,-1
 304 502 295 500 295 469 c 5,24,-1
 292 469 l 5,25,-1
 291 476 289 484 286 491 c 5,28,-1
 285 491 l 5,29,-1
 283 486 287 460 286 449 c 4,32,-1
 281 402 272 396 262 363 c 28,35,-1
 251 328 243 309 233 274 c 28,38,-1
 224 244 220 226 212 196 c 28,41,-1
 205 171 192 131 193 132 c 5,44,-1
 93 571 l 5,45,-1
 91 575 90 578 91 580 c 4,48,-1
 91 582 93 585 96 588 c 4,51,-1
 99 591 101 593 103 595 c 5,54,-1
 100 596 89 597 71 597 c 6,57,-1
 0 597 l 5,58,-1
 1 594 4 591 8 588 c 4,61,-1
 13 585 17 581 18 577 c 5,64,-1
 21 543 31 515 37 484 c 5,67,-1
 35 485 28 501 14 531 c 4,70,-1
 13 532 13 534 12 538 c 4,73,-1
 11 541 10 544 9 545 c 4,76,-1
 8 547 6 548 3 548 c 5,79,-1
 3 545 5 541 7 537 c 4,82,-1
 9 532 10 528 10 526 c 5,85,-1
 21 487 29 464 34 457 c 4,88,-1
 35 455 38 451 43 446 c 4,91,-1
 48 441 52 436 54 432 c 5,94,-1
 75 297 137 149 143 14 c 5,97,-1
 142 11 140 9 137 8 c 4,100,-1
 133 6 132 3 132 -2 c 5,103,-1
 134 -2 138 -2 143 -3 c 4,106,-1
 148 -3 149 -2 153 -2 c 5,109,-1
 153 -6 156 -11 158 -14 c 4,112,-1
 159 -17 162 -18 165 -16 c 4,115,-1
 169 -15 173 -10 178 -3 c 5,118,-1
 212 -2 l 5,119,-1
 213 -6 215 -12 219 -14 c 4,122,-1
 222 -17 226 -17 229 -15 c 4,125,-1
 233 -13 235 -9 235 -3 c 5,128,-1
 238 -2 l 5,129,-1
 237 1 235 7 235 6 c 5,132,-1
 241 15 245 20 245 23 c 5,135,-1
 237 23 233 20 233 14 c 4,138,-1
 233 13 230 8 228 9 c 4,141,-1
 223 12 220 15 218 18 c 5,144,-1
 217 21 216 26 215 32 c 4,147,-1
 215 38 214 42 214 43 c 5,150,-1
 207 73 204 89 204 93 c 5,153,-1
 202 92 215 132 220 157 c 28,156,-1
 223 170 221 178 225 191 c 28,159,-1
 229 206 237 212 242 227 c 28,162,-1
 248 247 246 259 252 279 c 28,165,-1
 262 312 272 329 282 362 c 28,168,-1
 290 386 291 400 297 423 c 28,171,-1
 304 452 308 468 314 497 c 20,174,-1
 317 509 323 534 325 558 c 28,2,-1
EndSplineSet
EndChar
StartChar: W
Encoding: 87 87 54
Width: 552
VWidth: 881
Flags: W
HStem: 577 20G<0.5 71 175 245 319 328>
VStem: 143 72<18.1421 32 32 37.6154 37.6154 43 43 92.8037> 184 3<531.048 536.766> 233 12<15.6831 21.0225> 387 25<-2 -2 227 272.602> 408 12<15.6831 21.0225 227.932 274 279 321.032>
Fore
373 114 m 1,0,-1
328 301 m 0,1,-1
259 295 m 5,2,-1
 284 201 313 104 318 14 c 1,5,-1
 317 11 314 9 311 8 c 0,8,-1
 308 6 307 3 307 -2 c 1,11,-1
 309 -2 313 -2 318 -3 c 0,14,-1
 323 -3 323 -2 327 -2 c 1,17,-1
 327 -6 331 -11 332 -14 c 0,20,-1
 334 -17 337 -18 340 -16 c 0,23,-1
 344 -15 348 -10 353 -3 c 1,26,-1
 387 -2 l 1,27,-1
 388 -6 390 -12 393 -14 c 0,30,-1
 397 -17 400 -17 404 -15 c 0,33,-1
 407 -13 409 -9 410 -3 c 1,36,-1
 412 -2 l 1,37,-1
 411 1 409 7 410 6 c 1,40,-1
 416 15 420 20 420 23 c 1,43,-1
 412 23 408 20 408 14 c 0,46,-1
 408 13 404 8 402 9 c 0,49,-1
 398 12 394 15 393 18 c 1,52,-1
 391 21 391 26 390 32 c 0,55,-1
 389 38 389 42 388 43 c 1,58,-1
 382 73 379 89 379 93 c 1,61,-1
 377 92 390 132 395 157 c 24,64,-1
 398 170 396 178 399 191 c 24,67,-1
 404 206 412 212 417 227 c 24,70,-1
 423 247 421 259 427 279 c 24,73,-1
 437 312 447 329 457 362 c 24,76,-1
 464 386 466 400 472 423 c 24,79,-1
 479 452 482 468 489 497 c 16,82,-1
 492 509 497 534 500 558 c 24,85,-1
 502 572 505 586 500 595 c 1,88,-1
 494 595 l 1,89,-1
 494 591 495 585 495 577 c 0,92,-1
 496 569 492 558 492 560 c 0,95,-1
 491 570 488 575 483 575 c 1,98,-1
 483 571 484 562 486 548 c 0,101,-1
 488 533 485 533 483 523 c 24,104,-1
 478 502 469 500 469 469 c 1,107,-1
 467 469 l 1,108,-1
 466 476 464 484 461 491 c 1,111,-1
 460 491 l 1,112,-1
 457 486 462 460 461 449 c 0,115,-1
 455 402 447 396 436 363 c 24,118,-1
 426 328 418 309 407 274 c 24,121,-1
 398 244 395 226 387 196 c 24,124,-1
 380 171 367 131 368 132 c 1,127,-1
 298 431 l 1,128,-1
 314 499 l 0,129,-1
 317 511 323 536 325 560 c 24,132,-1
 327 575 331 589 325 597 c 1,135,-1
 319 597 l 1,136,-1
 319 593 320 587 321 579 c 0,139,-1
 322 571 317 561 317 563 c 0,142,-1
 316 573 313 577 308 577 c 1,145,-1
 308 574 309 565 311 550 c 0,148,-1
 313 536 310 535 308 526 c 24,151,-1
 304 504 295 503 295 472 c 1,154,-1
 292 465 l 1,155,-1
 268 571 l 1,156,-1
 266 575 265 578 265 580 c 0,159,-1
 266 582 268 585 271 588 c 0,162,-1
 274 591 276 593 277 595 c 1,165,-1
 274 596 264 597 245 597 c 2,168,-1
 175 597 l 1,169,-1
 175 594 178 591 183 588 c 0,172,-1
 188 585 191 581 193 577 c 1,175,-1
 196 543 206 515 212 484 c 1,178,-1
 210 485 202 501 189 531 c 0,181,-1
 188 532 187 534 187 538 c 0,184,-1
 186 541 185 544 183 545 c 0,187,-1
 182 547 180 548 177 548 c 1,190,-1
 178 545 179 541 181 537 c 0,193,-1
 183 532 184 528 184 526 c 1,196,-1
 196 487 204 464 208 457 c 0,199,-1
 210 455 213 451 218 446 c 0,202,-1
 223 441 227 436 228 432 c 1,205,-1
 234 398 242 363 251 328 c 1,208,-1
 245 312 239 294 233 274 c 8,211,-1
 224 244 220 226 212 196 c 24,214,-1
 205 171 192 131 193 132 c 1,217,-1
 93 571 l 1,218,-1
 91 575 90 578 91 580 c 0,221,-1
 91 582 93 585 96 588 c 0,224,-1
 99 591 101 593 103 595 c 1,227,-1
 100 596 89 597 71 597 c 2,230,-1
 0 597 l 1,231,-1
 1 594 4 591 8 588 c 0,234,-1
 13 585 17 581 18 577 c 1,237,-1
 21 543 31 515 37 484 c 1,240,-1
 35 485 28 501 14 531 c 0,243,-1
 13 532 13 534 12 538 c 0,246,-1
 11 541 10 544 9 545 c 0,249,-1
 8 547 6 548 3 548 c 1,252,-1
 3 545 5 541 7 537 c 0,255,-1
 9 532 10 528 10 526 c 1,258,-1
 21 487 29 464 34 457 c 0,261,-1
 35 455 38 451 43 446 c 0,264,-1
 48 441 52 436 54 432 c 1,267,-1
 75 297 137 149 143 14 c 1,270,-1
 142 11 140 9 137 8 c 0,273,-1
 133 6 132 3 132 -2 c 1,276,-1
 134 -2 138 -2 143 -3 c 0,279,-1
 148 -3 149 -2 153 -2 c 1,282,-1
 153 -6 156 -11 158 -14 c 0,285,-1
 159 -17 162 -18 165 -16 c 0,288,-1
 169 -15 173 -10 178 -3 c 1,291,-1
 212 -2 l 1,292,-1
 213 -6 215 -12 219 -14 c 0,295,-1
 222 -17 226 -17 229 -15 c 0,298,-1
 233 -13 235 -9 235 -3 c 1,301,-1
 238 -2 l 1,302,-1
 237 1 235 7 235 6 c 1,305,-1
 241 15 245 20 245 23 c 1,308,-1
 237 23 233 20 233 14 c 0,311,-1
 233 13 230 8 228 9 c 0,314,-1
 223 12 220 15 218 18 c 1,317,-1
 217 21 216 26 215 32 c 0,320,-1
 215 38 214 42 214 43 c 1,323,-1
 207 73 204 89 204 93 c 1,326,-1
 202 92 215 132 220 157 c 24,329,-1
 223 170 221 178 225 191 c 24,332,-1
 229 206 237 212 242 227 c 24,335,-1
 248 247 246 259 252 279 c 16,338,-1
 254 284 258 291 259 295 c 5,2,-1
EndSplineSet
EndChar
StartChar: X
Encoding: 88 88 55
Width: 325
VWidth: 881
Flags: W
HStem: 2 21G<-0.0380859 8.46191> 579 20G<15.4619 95.4619>
VStem: 2.46191 271<2 595 -36.5618 35.0638> 36.4619 7<105.295 127.465> 158.462 72<20.1414 39.5923 39.5923 60.5598>
Fore
130.462 480 m 5,0,-1
83.4619 362 m 5,1,-1
 78.4619 385 72.4619 411 69.4619 434 c 5,4,-1
 67.4619 438 63.4619 442 58.4619 447 c 4,7,-1
 53.4619 453 50.4619 456 49.4619 459 c 4,10,-1
 44.4619 466 36.4619 489 25.4619 527 c 5,13,-1
 25.4619 530 24.4619 533 22.4619 538 c 4,16,-1
 20.4619 543 18.4619 547 18.4619 550 c 5,19,-1
 21.4619 549 23.4619 548 24.4619 547 c 4,22,-1
 25.4619 545 26.4619 543 27.4619 540 c 4,25,-1
 28.4619 536 28.4619 534 29.4619 533 c 4,28,-1
 43.4619 503 51.4619 487 52.4619 485 c 5,31,-1
 46.4619 517 37.4619 545 33.4619 579 c 5,34,-1
 32.4619 583 28.4619 587 23.4619 590 c 4,37,-1
 19.4619 593 16.4619 596 15.4619 599 c 5,40,-1
 86.4619 599 l 6,41,-1
 104.462 599 115.462 598 118.462 596 c 5,44,-1
 117.462 595 114.462 592 111.462 589 c 4,47,-1
 108.462 587 106.462 584 106.462 582 c 4,50,-1
 105.462 580 106.462 577 108.462 573 c 5,53,-1
 178.462 269 l 5,54,-1
 209.462 364 l 30,55,-1
 219.462 397 228.462 403 233.462 450 c 4,58,-1
 234.462 461 230.462 486 232.462 492 c 5,61,-1
 233.462 492 l 5,62,-1
 236.462 485 238.462 477 239.462 470 c 5,65,-1
 242.462 470 l 5,66,-1
 242.462 501 251.462 503 255.462 524 c 28,69,-1
 257.462 533 260.462 534 258.462 549 c 4,72,-1
 256.462 563 255.462 572 255.462 576 c 5,75,-1
 260.462 576 263.462 571 264.462 561 c 4,78,-1
 264.462 559 269.462 569 268.462 577 c 4,81,-1
 267.462 585 267.462 591 267.462 595 c 5,84,-1
 273.462 595 l 5,85,-1
 278.462 587 274.462 573 273.462 558 c 28,88,-1
 270.462 534 264.462 509 261.462 497 c 12,91,-1
 255.462 469 251.462 453 244.462 424 c 28,94,-1
 238.462 400 237.462 387 230.462 363 c 28,97,-1
 219.462 330 209.462 313 199.462 280 c 28,100,-1
 193.462 259 195.462 244 188.462 223 c 5,103,-1
 229.462 45 l 6,104,-1
 229.462 43 230.462 40 230.462 34 c 4,107,-1
 231.462 27 232.462 23 233.462 20 c 5,110,-1
 235.462 17 238.462 14 243.462 11 c 4,113,-1
 245.462 10 248.462 14 248.462 16 c 4,116,-1
 248.462 22 252.462 25 261.462 25 c 5,119,-1
 260.462 22 256.462 16 250.462 8 c 5,122,-1
 250.462 9 252.462 3 253.462 0 c 5,125,-1
 250.462 -2 l 5,126,-1
 250.462 -7 248.462 -11 244.462 -13 c 4,129,-1
 241.462 -15 237.462 -15 234.462 -12 c 4,132,-1
 230.462 -10 228.462 -5 227.462 0 c 5,135,-1
 193.462 -1 l 5,136,-1
 188.462 -8 184.462 -13 180.462 -15 c 4,139,-1
 177.462 -16 174.462 -16 173.462 -12 c 4,142,-1
 171.462 -9 168.462 -4 168.462 0 c 5,145,-1
 164.462 0 163.462 -1 158.462 -1 c 4,148,-1
 153.462 0 149.462 0 147.462 0 c 5,151,-1
 147.462 5 148.462 8 152.462 9 c 4,154,-1
 155.462 11 157.462 13 158.462 15 c 5,157,-1
 154.462 112 120.462 217 94.4619 317 c 5,160,-1
 84.4619 287 76.4619 266 66.4619 234 c 12,163,-1
 56.4619 200 47.4619 195 42.4619 148 c 4,166,-1
 41.4619 136 45.4619 111 43.4619 105 c 5,169,-1
 42.4619 105 l 5,170,-1
 38.4619 113 36.4619 120 36.4619 128 c 5,173,-1
 33.4619 128 l 5,174,-1
 33.4619 97 24.4619 95 20.4619 74 c 28,177,-1
 18.4619 64 15.4619 64 17.4619 49 c 4,180,-1
 19.4619 34 20.4619 25 20.4619 22 c 5,183,-1
 15.4619 22 12.4619 27 11.4619 37 c 4,186,-1
 10.4619 39 6.46191 28 7.46191 20 c 4,189,-1
 8.46191 12 8.46191 6 8.46191 2 c 5,192,-1
 2.46191 2 l 5,193,-1
 -2.53809 11 1.46191 25 2.46191 39 c 28,196,-1
 5.46191 63 11.4619 88 14.4619 100 c 12,199,-1
 20.4619 129 24.4619 145 31.4619 173 c 28,202,-1
 36.4619 197 38.4619 211 45.4619 234 c 28,205,-1
 56.4619 268 66.4619 285 75.4619 318 c 20,208,-1
 80.4619 334 80.4619 348 83.4619 362 c 5,1,-1
EndSplineSet
EndChar
StartChar: Y
Encoding: 89 89 56
Width: 310
VWidth: 881
Flags: W
HStem: 576 20G<180.462 260.462>
VStem: 2.46191 258<556 596 559.454 563> 36.4619 6<467 476.025 476.025 489.705> 246.462 4<530 533.454 533.454 537>
Fore
145.462 477 m 1,0,-1
117.462 13 m 1,1,-1
 118.462 11 120.462 9 123.462 7 c 0,4,-1
 126.462 5 128.462 2 128.462 -3 c 1,7,-1
 126.462 -3 122.462 -3 117.462 -3 c 0,10,-1
 112.462 -4 111.462 -3 107.462 -3 c 1,13,-1
 107.462 -7 104.462 -12 102.462 -15 c 0,16,-1
 100.462 -18 98.4619 -19 94.4619 -17 c 0,19,-1
 91.4619 -15 87.4619 -11 81.4619 -3 c 1,22,-1
 48.4619 -3 l 1,23,-1
 47.4619 -7 44.4619 -12 41.4619 -15 c 0,26,-1
 38.4619 -18 34.4619 -18 31.4619 -16 c 0,29,-1
 27.4619 -14 25.4619 -10 25.4619 -4 c 1,32,-1
 22.4619 -3 l 1,33,-1
 23.4619 0 25.4619 6 25.4619 5 c 1,36,-1
 18.4619 14 15.4619 20 14.4619 22 c 1,39,-1
 23.4619 22 27.4619 19 27.4619 13 c 0,42,-1
 27.4619 12 30.4619 7 32.4619 8 c 0,45,-1
 37.4619 11 40.4619 14 42.4619 17 c 1,48,-1
 43.4619 20 44.4619 25 44.4619 31 c 0,51,-1
 45.4619 37 46.4619 41 46.4619 42 c 2,54,-1
 87.4619 221 l 1,55,-1
 80.4619 241 82.4619 256 75.4619 277 c 24,58,-1
 66.4619 310 56.4619 327 45.4619 361 c 24,61,-1
 38.4619 384 36.4619 398 31.4619 422 c 24,64,-1
 24.4619 450 20.4619 466 14.4619 495 c 16,67,-1
 11.4619 507 5.46191 532 2.46191 556 c 24,70,-1
 1.46191 570 -2.53809 584 2.46191 593 c 1,73,-1
 8.46191 593 l 1,74,-1
 8.46191 589 8.46191 583 7.46191 575 c 0,77,-1
 6.46191 567 10.4619 556 11.4619 558 c 0,80,-1
 12.4619 568 15.4619 573 20.4619 573 c 1,83,-1
 20.4619 570 19.4619 561 17.4619 546 c 0,86,-1
 15.4619 531 18.4619 531 20.4619 521 c 24,89,-1
 24.4619 500 33.4619 498 33.4619 467 c 1,92,-1
 36.4619 467 l 1,93,-1
 36.4619 475 38.4619 482 42.4619 490 c 1,96,-1
 43.4619 490 l 1,97,-1
 45.4619 484 41.4619 459 42.4619 447 c 0,100,-1
 47.4619 400 55.4619 395 66.4619 361 c 26,103,-1
 97.4619 266 l 1,104,-1
 167.462 571 l 1,105,-1
 169.462 575 170.462 577 169.462 579 c 0,108,-1
 169.462 581 167.462 584 164.462 587 c 0,111,-1
 161.462 590 158.462 592 157.462 594 c 1,114,-1
 160.462 595 171.462 596 189.462 596 c 2,117,-1
 260.462 596 l 1,118,-1
 259.462 593 256.462 590 251.462 587 c 0,121,-1
 247.462 584 243.462 581 242.462 577 c 1,124,-1
 238.462 542 228.462 515 223.462 483 c 1,127,-1
 224.462 484 232.462 500 246.462 530 c 0,130,-1
 246.462 531 247.462 534 248.462 537 c 0,133,-1
 249.462 540 250.462 543 251.462 544 c 0,136,-1
 252.462 546 254.462 547 257.462 547 c 1,139,-1
 256.462 544 255.462 541 253.462 536 c 0,142,-1
 251.462 531 250.462 527 250.462 525 c 1,145,-1
 239.462 486 231.462 464 226.462 456 c 0,148,-1
 225.462 454 222.462 450 217.462 445 c 0,151,-1
 211.462 440 208.462 435 206.462 431 c 1,154,-1
 186.462 294 124.462 138 117.462 13 c 1,1,-1
EndSplineSet
EndChar
StartChar: Z
Encoding: 90 90 57
Width: 612
VWidth: 881
Flags: W
HStem: -1 10<328.281 347.477 347.477 366.812 367.233 417 496.268 501.487 526.282 528.719> 0 3<133.604 147.094 147.094 149.953 233.058 245.227 245.227 255 273 303 385 417> 3 9<307 341.858 342.141 353 353 366.812 385 403.277 403.277 420.715 427 454.054 454.054 480 480 486.387 488.425 493.248> 587 9<115.188 133.906 225 229.954 229.954 240.023 240.023 253.86> 592 4<195 200.18 200.18 218 264.835 267.525> 593 4<9.14208 36 40.834 78.8154 78.8154 97 106 110.454 110.454 115 115 120.523 120.523 126.141 134 136.993 152.423 154.672 302.918 323.292 323.292 342 350 354.454 354.454 356.5 356.5 364.523 364.523 377.906 380.91 395 395 409.834 412.142 435.938>
Fore
508 3 m 24x20
 500 3 493 1 487 -1 c 0x80
 474 -5 456 -3 433 3 c 1
 421 3 l 1
 415 5 404 5 385 5 c 1
 385 3 l 1
 417 3 l 1
 417 1 l 1
 374 0 l 1
 361 -4 342 -3 319 3 c 1
 307 3 l 1x60
 302 5 291 5 273 5 c 1
 273 3 l 1
 303 3 l 1
 303 2 l 1
 247 1 l 1
 228 -5 l 2
 205 -12 187 -13 174 -9 c 0
 150 -3 133 0 123 0 c 0
 121 0 121 0 1 0 c 1
 1 2 2 4 4 6 c 0
 7 8 10 9 14 11 c 0
 18 13 21 14 23 15 c 1
 447 580 l 1
 445 583 l 2
 443 584 443 584 442 585 c 0
 438 590 433 593 426 593 c 2
 398 593 l 1x44
 392 592 386 590 378 589 c 1
 376 587 373 587 370 587 c 0x10
 367 587 363 587 359 588 c 0
 355 588 352 589 350 589 c 1
 342 594 l 1
 325 593 313 593 305 593 c 2x04
 279 594 l 1
 272 592 263 590 254 588 c 1
 251 587 249 586 245 586 c 0
 242 586 239 586 235 587 c 0x10
 231 587 227 588 225 588 c 1
 217 593 l 1x04
 201 592 188 592 180 592 c 2x08
 155 594 l 1
 148 592 141 591 134 589 c 1
 132 587 129 587 126 587 c 0x10
 123 587 119 587 115 588 c 0
 111 588 108 589 106 589 c 1
 97 594 l 1
 81 593 69 593 61 593 c 0
 46 593 38 590 36 584 c 1
 34 584 l 1
 34 588 35 591 36 593 c 1
 21 593 l 0
 17 594 12 593 9 591 c 0
 5 589 3 585 1 580 c 1
 0 580 l 1
 0 597 l 1
 99 597 l 2x04
 120 597 143 595 147 596 c 0
 154 598 160 599 168 601 c 1
 183 610 190 601 195 596 c 1
 218 596 l 2
 240 596 258 593 268 596 c 0x08
 274 597 280 599 287 601 c 1
 297 606 305 598 314 597 c 2
 316 597 345 597 351 597 c 0
 355 597 358 597 362 598 c 0
 365 598 382 596 395 597 c 24
 402 598 406 600 412 601 c 1
 415 603 420 604 425 604 c 0
 430 604 438 600 441 597 c 1
 562 597 l 1
 562 594 560 592 558 589 c 0
 555 587 552 585 548 582 c 0
 545 580 542 578 541 577 c 2
 124 15 l 1
 123 11 125 9 132 7 c 0
 139 5 144 4 147 3 c 0
 149 3 152 3 156 1 c 0
 160 -1 191 4 196 4 c 0
 201 5 208 5 217 4 c 0
 225 4 231 3 233 3 c 1
 234 0 251 5 255 5 c 1
 277 12 294 14 307 10 c 1
 314 12 l 1
 317 12 322 12 328 12 c 0
 334 13 339 13 342 13 c 0
 345 13 349 13 353 12 c 0x64
 358 12 363 11 367 10 c 0
 372 9 375 9 376 9 c 1
 404 13 414 11 421 9 c 0x80
 426 8 427 12 427 12 c 1x20
 457 12 474 11 480 9 c 2
 488 9 490 6 495 5 c 1
 498 6 501 7 505 9 c 0x80
 510 10 512 11 513 12 c 0
 517 13 523 13 529 12 c 0x20
 535 10 543 4 548 6 c 0
 554 7 558 12 560 18 c 1
 561 16 562 11 562 1 c 1
 558 1 553 0 546 -1 c 0x80
 539 -2 532 -3 526 -3 c 0
 520 -3 515 2 508 3 c 24x20
EndSplineSet
EndChar
StartChar: bracketleft
Encoding: 91 91 58
Width: 343
VWidth: 881
Flags: W
HStem: -297 19<180 229.18> -283 1021<66 88 0 291 1.53064e-18 1.53064e-18> 731 7<0 254>
VStem: 15 73<-263.46 706.697> 266 4<714.747 722.079>
Fore
275 -258 m 0xb8
 290 -253 297 -273 291 -286 c 0
 288 -295 283 -297 276 -293 c 1
 277 -288 277 -285 277 -282 c 1
 288 -287 l 1
 288 -278 287 -271 283 -267 c 0
 276 -259 267 -272 262 -275 c 1
 262 -282 l 1
 257 -282 252 -282 245 -282 c 1
 239 -298 208 -296 180 -297 c 1xb8
 173 -292 164 -287 154 -285 c 1
 66 -283 l 1
 66 -296 61 -304 47 -302 c 0
 36 -301 29 -296 27 -287 c 0
 25 -281 25 -280 25 -282 c 1
 22 -284 14 -285 1 -285 c 1
 1 -275 l 1
 9 -273 13 -270 15 -265 c 1
 16 723 l 6
 15 726 10 731 0 738 c 5
 266 738 l 5x58
 270 735 271 729 270 721 c 4
 270 713 268 707 266 704 c 5
 266 718 262 727 254 731 c 5
 204 728 129 741 97 721 c 5
 92 711 89 700 88 687 c 6
 88 -256 l 1
 90 -261 92 -266 97 -269 c 1
 104 -265 120 -257 128 -262 c 2
 140 -270 l 1
 168 -274 181 -278 214 -278 c 0
 231 -277 243 -273 251 -265 c 0
 252 -263 254 -257 258 -245 c 1
 262 -245 l 1
 262 -265 l 0
 262 -265 269 -260 275 -258 c 0xb8
EndSplineSet
EndChar
StartChar: asciicircum
Encoding: 94 94 61
Width: 247
VWidth: 881
Flags: W
HStem: 420 192<105 124 97.8731 110.064>
VStem: 98 4<425.637 441 441 445> 120 4<589 611.39>
Fore
102 445 m 1
 102 437 103 429 105 420 c 1
 102 423 99 430 98 441 c 0
 96 455 98 462 107 465 c 1
 108 470 108 474 105 478 c 1
 101 481 l 1
 66 437 l 1
 13 485 l 2
 11 487 8 487 5 487 c 0
 2 486 0 486 0 489 c 1
 93 597 l 1
 96 594 98 591 97 588 c 0
 97 585 97 583 98 581 c 1
 104 573 126 557 131 549 c 1
 132 553 130 563 129 569 c 1
 123 571 120 578 120 590 c 0
 120 602 121 609 124 612 c 1
 123 604 124 596 124 589 c 1
 129 589 l 1
 132 582 136 560 138 544 c 1
 144 540 l 1
 144 542 144 547 143 552 c 0
 141 557 140 560 141 563 c 1
 145 559 148 555 149 551 c 0
 150 547 150 543 148 537 c 1
 157 532 170 516 180 512 c 0
 182 511 185 511 189 512 c 0
 192 514 194 513 197 509 c 1
 130 430 l 1
 127 434 126 439 127 445 c 1
 122 450 116 463 110 473 c 1
 109 459 109 450 107 444 c 1
 106 444 103 444 102 445 c 1
EndSplineSet
EndChar
StartChar: a
Encoding: 97 97 64
Width: 315
VWidth: 881
Flags: W
HStem: -46 6<183.541 187.448 187.448 188.448> 2 10<69.7962 98.4482> 285 13<167.45 169.448 172.448 178.448>
VStem: 10.4482 255<171 236 287 291 171 291 171 171>
Fore
243.448 38 m 29,0,-1
188.448 97 m 5,1,-1
 184.448 36 l 6,2,-1
 183.448 29 179.448 23 172.448 16 c 4,5,-1
 166.448 12 162.448 10 162.448 9 c 5,8,-1
 162.448 8 163.448 7 165.448 6 c 4,11,-1
 174.448 4 182.448 3 190.448 2 c 5,14,-1
 187.448 -8 177.448 -18 174.448 -24 c 5,17,-1
 171.448 -32 172.448 -38 175.448 -43 c 4,20,-1
 179.448 -48 184.448 -49 191.448 -46 c 4,23,-1
 193.448 -46 195.448 -44 196.448 -42 c 4,26,-1
 197.448 -39 197.448 -37 194.448 -35 c 4,29,-1
 191.448 -32 189.448 -33 188.448 -37 c 4,32,-1
 188.448 -39 188.448 -40 187.448 -40 c 4,35,-1
 186.448 -42 185.448 -43 183.448 -42 c 4,38,-1
 181.448 -41 179.448 -40 179.448 -39 c 5,41,-1
 172.448 -34 187.448 -13 200.448 2 c 5,44,-1
 216.448 2 233.448 4 257.448 5 c 4,47,-1
 260.448 5 263.448 6 264.448 7 c 4,50,-1
 266.448 10 265.448 13 261.448 16 c 6,53,-1
 246.448 27 l 5,54,-1
 242.448 38 244.448 47 245.448 65 c 29,57,-1
 249.448 79 259.448 93 261.448 98 c 4,60,-1
 262.448 103 260.448 109 256.448 116 c 4,63,-1
 252.448 122 250.448 127 249.448 129 c 4,66,-1
 247.448 156 253.448 222 249.448 258 c 4,69,-1
 249.448 267 251.448 275 255.448 281 c 4,72,-1
 256.448 283 265.448 289 265.448 291 c 4,75,-1
 265.448 297 l 5,78,-1
 240.448 299 188.448 296 169.448 298 c 5,81,-1
 167.448 297 166.448 295 166.448 293 c 4,84,-1
 165.448 290 166.448 288 167.448 287 c 5,87,-1
 167.448 285 169.448 285 172.448 285 c 4,90,-1
 177.448 285 177.448 285 178.448 285 c 4,93,-1
 184.448 283 188.448 278 190.448 269 c 4,96,-1
 193.448 261 192.448 254 192.448 245 c 5,99,-1
 173.448 270 145.448 289 102.448 282 c 4,102,-1
 46.4482 271 28.4482 232 10.4482 171 c 4,105,-1
 -12.5518 75 -0.551758 13 76.4482 2 c 5,108,-1
 138.448 4 158.448 55 188.448 97 c 5,1,-1
188.448 112 m 5,111,-1
 160.448 77 141.448 27 98.4482 12 c 5,114,-1
 47.4482 10 64.4482 117 70.4482 163 c 4,117,-1
 80.4482 205 109.448 249 149.448 269 c 5,120,-1
 157.448 270 185.448 247 186.448 236 c 4,123,-1
 195.448 195 192.448 150 188.448 112 c 5,111,-1
EndSplineSet
EndChar
StartChar: b
Encoding: 98 98 65
Width: 330
VWidth: 881
Flags: W
HStem: 293 12<139.011 214.469> 576 20G<100 106.5>
VStem: 18 82<14.418 28 28 30.7187 49.2443 83 83 106 142 235 248 325> 18 84<14.418 21.0461 21.0461 47.5937 248 570.578> 86 5<-57.8561 -20.8267>
Fore
100 0 m 1xe0
 95 -11 93 -18 92 -22 c 1
 91 -31 91 -37 91 -40 c 0
 92 -42 93 -48 94 -55 c 0
 96 -63 97 -68 98 -71 c 1
 90 -69 86 -56 86 -33 c 0xc8
 86 -28 86 -24 88 -19 c 0
 89 -15 92 -5 94 0 c 1
 91 0 73 0 71 0 c 2
 4 0 l 1
 5 3 6 5 8 6 c 256
 9 7 11 9 12 10 c 0
 14 12 16 18 18 28 c 1
 17 106 l 25
 13 109 10 109 8 113 c 0
 5 117 5 121 6 126 c 0
 6 128 12 134 18 142 c 1xe0
 18 479 l 1
 18 542 l 1
 18 570 l 1
 16 576 10 583 0 590 c 1
 0 593 l 1
 2 595 12 595 28 595 c 2
 88 595 l 1
 92 596 97 596 103 596 c 0
 110 596 114 594 116 590 c 1
 110 586 106 579 104 571 c 0
 102 562 101 553 102 545 c 0
 102 536 102 527 102 517 c 2
 102 325 l 1
 102 248 l 17
 127 272 151 303 194 305 c 0
 273 302 284 213 280 136 c 0
 278 80 263 21 210 12 c 1
 163 -7 106 46 102 83 c 1xd0
 100 83 l 1
 100 51 100 56 100 53 c 1
 104 50 108 43 108 31 c 0
 108 25 104 19 105 11 c 24
 105 8 109 7 111 6 c 256
 113 5 114 3 114 0 c 1
 114 0 104 0 100 0 c 1xe0
101 235 m 1
 100 159 l 2xe0
 100 107 118 65 160 50 c 0
 206 33 232 71 224 164 c 0
 221 210 229 291 194 293 c 0
 150 295 126 263 101 235 c 1
EndSplineSet
EndChar
StartChar: c
Encoding: 99 99 66
Width: 197
VWidth: 881
Flags: W
HStem: 0 282<98.7432 110.743 79.7432 98.7432 98.7432 98.7432>
VStem: 4.74316 143<26 142 123 142>
Fore
144.743 28 m 257
 124.743 12 81.7432 17 66.7432 42 c 25
 57.7432 65 58.7432 80 58.7432 106 c 0
 54.7432 180 104.743 244 131.743 279 c 1
 132.743 289 121.743 290 98.7432 282 c 0
 49.7432 263 16.7432 198 4.74316 142 c 0
 -13.2568 75 21.7432 6 79.7432 0 c 0
 110.743 -2 139.743 6 147.743 26 c 0
 148.743 28 144.743 26 144.743 28 c 257
EndSplineSet
EndChar
StartChar: d
Encoding: 100 100 67
Width: 341
VWidth: 881
Flags: W
VStem: 10.707 281<169 592 169 174.477> 192.707 81<60 100.84 248 410.115 410.115 571 571 572> 199.707 6<-54.6726 -22.2344>
Fore
192.707 131 m 1x40
 192.707 115 l 1
 167.707 82 139.707 28 102.707 11 c 0
 96.707 9 90.707 9 85.707 10 c 1
 54.707 26 61.707 118 69.707 160 c 0
 79.707 201 109.707 248 148.707 268 c 1
 158.707 266 184.707 242 192.707 235 c 1
 192.707 131 l 1x40
183.707 32 m 0
 183.707 27 184.707 22 185.707 17 c 0
 186.707 14 182.707 12 181.707 14 c 1
 177.707 14 l 1
 175.707 12 l 1
 175.707 7 l 1
 179.707 1 185.707 7 190.707 2 c 1
 195.707 -10 198.707 -17 199.707 -22 c 1
 200.707 -27 200.707 -32 199.707 -37 c 0x20
 199.707 -42 197.707 -48 196.707 -55 c 0
 194.707 -61 193.707 -66 192.707 -69 c 1x40
 201.707 -67 205.707 -54 205.707 -31 c 0x20
 205.707 -26 205.707 -21 203.707 -17 c 0
 202.707 -13 200.707 -3 198.707 2 c 1
 202.707 1 214.707 1 219.707 2 c 1
 287.707 2 l 1
 286.707 5 285.707 7 283.707 8 c 0
 281.707 9 279.707 10 278.707 12 c 1
 276.707 19 274.707 25 273.707 29 c 1
 273.707 106 l 17
 277.707 107 281.707 110 284.707 114 c 0
 286.707 118 286.707 122 285.707 127 c 0
 285.707 130 280.707 138 273.707 145 c 1
 273.707 571 l 1x40
 275.707 579 281.707 586 291.707 592 c 1
 291.707 594 l 1
 287.707 596 278.707 597 263.707 597 c 2
 203.707 597 l 1
 199.707 598 193.707 598 187.707 598 c 0
 181.707 597 177.707 595 175.707 592 c 1
 181.707 587 185.707 581 187.707 572 c 1
 194.707 470 187.707 355 189.707 248 c 17
 158.707 277 149.707 283 102.707 280 c 0
 44.707 269 25.707 226 10.707 169 c 0x80
 -13.293 73 0.707031 10 76.707 -1 c 1
 148.707 3 154.707 64 190.707 101 c 1
 193.707 98 191.707 68 192.707 60 c 1
 187.707 52 182.707 48 183.707 32 c 0
EndSplineSet
EndChar
StartChar: e
Encoding: 101 101 68
Width: 233
VWidth: 881
Flags: W
HStem: 3 294<77 84 103 118 84 127 127 127>
VStem: 0 183<95 244 95 244 52 95>
Fore
128 255 m 5
 98 227 76 175 64 131 c 5
 65 134 135 182 144 208 c 28
 151 226 155 262 128 255 c 5
84 3 m 5
 39 11 3 46 0 95 c 4
 1 133 10 167 28 198 c 4
 56 240 77 284 127 297 c 4
 171 305 186 283 183 244 c 28
 171 168 100 140 57 97 c 5
 52 62 63 20 103 23 c 29
 120 21 139 25 147 36 c 29
 149 36 151 35 151 34 c 28
 141 10 118 1 84 3 c 5
EndSplineSet
EndChar
StartChar: f
Encoding: 102 102 69
Width: 240
VWidth: 881
Flags: W
HStem: 317 20G<3.5 5 148.5 155>
VStem: 0 189<291 550 326 330> 0 15<301.08 308.875> 41 75<13.6694 17.5461 17.5461 158.161 158.161 163 163 301.915> 148 7<287 294 326 330>
Fore
27 -2 m 1x98
 27 1 29 3 32 5 c 0
 36 7 38 9 39 11 c 0
 40 12 40 13 40 15 c 0
 41 18 41 19 41 20 c 2
 37 306 l 1
 34 310 30 312 24 310 c 0
 18 309 15 308 15 307 c 1xb8
 14 305 12 303 11 300 c 0
 9 297 7 295 6 293 c 1
 6 291 l 1
 3 288 1 288 0 291 c 1
 0 299 l 1
 0 326 l 2
 0 333 1 336 1 336 c 1
 2 337 3 337 4 337 c 0
 6 337 7 336 7 336 c 0
 8 334 10 332 11 327 c 0
 13 322 16 319 18 318 c 0
 22 316 26 318 32 324 c 1
 43 345 39 373 42 402 c 0
 48 495 68 580 144 596 c 0
 171 602 198 583 189 550 c 1xc0
 188 536 166 522 159 536 c 1
 177 531 194 563 175 576 c 1
 159 592 137 555 133 553 c 1
 111 499 111 408 113 326 c 1
 115 322 119 318 123 314 c 0
 131 309 138 312 144 322 c 0
 145 322 145 324 146 326 c 0
 147 328 148 330 149 330 c 1
 155 330 l 1
 155 287 l 1
 150 287 l 1
 149 288 149 289 148 291 c 0
 148 293 147 294 147 294 c 0
 144 298 141 302 136 304 c 0
 131 307 127 307 123 305 c 1
 119 303 117 298 116 291 c 0
 111 209 117 114 115 25 c 1
 116 17 119 11 124 7 c 0
 125 6 126 6 128 5 c 0
 132 3 135 1 135 -2 c 1
 27 -2 l 1x98
EndSplineSet
EndChar
StartChar: g
Encoding: 103 103 70
Width: 325
VWidth: 881
Flags: W
HStem: -262 2<154.171 169.965> -245 5<147.467 155.244> 280 20G<178.327 274.327>
VStem: 11.3271 263<173 300 173 183> 75.3271 6<-260.669 -225 -225 -215> 199.327 62<-147.577 -59 -12.8666 63 173 233.19>
Fore
170.327 -265 m 17xec
 170.327 -262 l 1
 168.327 -262 156.327 -265 134.327 -270 c 1
 134.327 -263 138.327 -260 146.327 -260 c 1
 140.327 -247 143.327 -240 155.327 -240 c 1
 155.327 -243 154.327 -245 153.327 -245 c 0
 152.327 -246 150.327 -246 147.327 -247 c 1
 150.327 -254 154.327 -258 159.327 -258 c 0
 164.327 -258 169.327 -256 175.327 -250 c 0
 207.327 -222 189.327 -107 199.327 -59 c 1
 193.327 -58 185.327 -53 185.327 -43 c 0
 185.327 -33 186.327 -26 190.327 -21 c 1
 191.327 -17 198.327 -12 199.327 -5 c 25xec
 196.327 23 200.327 72 194.327 96 c 1
 192.327 100 188.327 99 182.327 93 c 0
 153.327 56 139.327 -2 77.3271 3 c 0
 0.327148 8 -13.6729 76 11.3271 173 c 0
 26.3271 232 55.3271 272 103.327 284 c 0
 138.327 292 164.327 275 180.327 257 c 1
 183.327 256 187.327 256 192.327 257 c 1
 196.327 260 196.327 267 193.327 277 c 0
 192.327 281 190.327 285 185.327 289 c 0
 181.327 292 178.327 296 178.327 300 c 1
 274.327 300 l 1
 273.327 297 271.327 293 267.327 289 c 0
 263.327 285 261.327 281 260.327 277 c 0
 259.327 273 258.327 269 258.327 264 c 2
 260.327 173 l 1
 268.327 166 273.327 150 274.327 136 c 0xf0
 279.327 108 268.327 84 259.327 63 c 1
 261.327 -59 l 2
 266.327 -138 243.327 -226 199.327 -270 c 1
 155.327 -299 69.3271 -293 75.3271 -225 c 24
 75.3271 -220 78.3271 -211 81.3271 -215 c 25
 84.3271 -255 121.327 -292 170.327 -265 c 17xec
193.327 131 m 1
 194.327 161 197.327 211 190.327 237 c 1
 188.327 243 156.327 272 149.327 271 c 1
 123.327 262 74.3271 202 70.3271 164 c 0
 61.3271 128 58.3271 40 78.3271 22 c 1
 132.327 -3 170.327 84 193.327 131 c 1
EndSplineSet
EndChar
StartChar: h
Encoding: 104 104 71
Width: 301
VWidth: 881
Flags: W
HStem: 0 8<1.46937 12.8506> 3 5<107.468 114> 581 20G<6 114>
VStem: 22 78<278 588.396> 22 80<35.1912 63 63 72.8093 72.8093 144.05 194 263.453 278 583> 67 5<-37.2197 -20.4106> 76 6<-42.6021 -33.3296> 217.896 22.7783<-32.2475 -18.8242 -18.8242 -18.7473> 223 22<65.7308 112.02 136.215 144.189 155.385 167 167 176.076>
Fore
226 88 m 28x61
 225.778 106.864 233.447 117.189 232 136 c 24
 231.619 140.949 222.879 122.037 223 127 c 24
 223.485 146.88 234.161 157.147 233 177 c 24
 230.208 224.749 230 263 213 298 c 0
 204 314 183 316 152 303 c 1
 156 297 157 292 155 288 c 0
 153 284 150 282 144 282 c 1
 144 285 146 287 148 290 c 0
 150 294 151 296 152 298 c 1
 146 299 138 295 126 286 c 0
 123 283 120 279 115 273 c 0
 109 267 105 263 102 260 c 1
 102 196 107 115 102 63 c 1
 108 63 l 1
 108 48 107 39 106 35 c 0
 105 34 102 30 97 23 c 0
 96 21 97 18 97 18 c 1
 100 17 103 16 106 13 c 0
 109 10 111 8 114 8 c 1
 114 3 l 1x6880
 109 1 92 4 88 0 c 0
 75 -12 72 -30 72 -43 c 1
 75 -41 76 -37 76 -33 c 1
 80 -33 82 -35 82 -39 c 0
 81 -43 79 -46 76 -47 c 0
 72 -49 69 -48 68 -43 c 0
 67 -39 67 -35 67 -30 c 0
 68 -25 69 -21 70 -18 c 0
 71 -12 81 0 71 0 c 2
 14 0 l 2xa6
 5 -1 1 1 0 8 c 1
 10 8 16 12 20 20 c 1
 20 53 24.6154 84.7354 22 126 c 24
 21.0713 140.651 9 147 11 162 c 1
 22 194 l 1x68
 22 583 l 1
 20 587 18 590 13 593 c 0
 8 596 6 599 6 601 c 1
 114 601 l 1
 114 599 112 596 108 593 c 0
 104 589 101 586 100 583 c 1x70
 102 278 l 1
 134 304 158 324 200 320 c 1
 241 300 236.249 258.353 249 215 c 24
 254.301 196.979 244.464 185.777 245 167 c 24x6880
 245.254 158.11 251.269 153.89 251 145 c 24
 250.472 127.566 246.12 118.16 243 101 c 25
 242.999 75.2588 248.5 61.6667 242.998 34.9961 c 0
 242.213 31.1892 237.997 -0.166992 240.674 -18.8242 c 1
 241.311 -24.1406 235.782 -43.0936 232 -52 c 1
 229.251 -54.749 226.907 -65.501 224.967 -84.2578 c 1
 221.409 -81.9941 220.763 -76.335 223.026 -67.2803 c 1
 221.086 -66.7949 l 1
 211.87 -89.917 202.977 -102.124 194.407 -103.418 c 1
 194.973 -101.154 199.985 -93.4736 209.444 -80.377 c 0
 219.168 -66.9134 225.987 -46.5527 231.001 -32.3213 c 1
 228.809 -35.9893 220.645 -42.9034 217.896 -44.0488 c 1
 217.896 -41.7158 220.896 -33.0488 226.896 -18.0488 c 0
 229.719 -10.9911 231.84 0.695312 233.67 7.66895 c 1
 231.763 8.80526 228.213 9.68024 226.346 17.0557 c 1
 224.057 13.2129 l 1
 221.768 9.37109 l 1
 219.772 9.51855 l 1
 218.121 14.3203 219.824 21.5469 224.883 31.2002 c 0
 229.94 40.8545 232.464 46.3506 232.616 47.6768 c 0
 233.949 59.2825 226.239 67.6929 226 88 c 28x61
EndSplineSet
EndChar
StartChar: i
Encoding: 105 105 72
Width: 161
VWidth: 881
Flags: W
HStem: 0 295<41 81.957 1 105 61.7924 88.7021> 351 106<53 54 54 54>
VStem: 0 111<402 404 404 404> 29 67<211.663 234.406 -50 296 320.792 347.702> 29 59<33.2366 56 126 162.792 162.792 189.702 189.702 200 200 211.663 239.368 270.518>
Fore
31 0 m 1xd0
 24 -7 15 -22 13 -27 c 0
 11 -34 11 -40 14 -46 c 0
 18 -51 23 -52 30 -50 c 1
 37 -45 38 -40 33 -37 c 0
 29 -34 27 -35 27 -40 c 0
 27 -42 27 -42 27 -43 c 1
 26 -45 24 -45 22 -44 c 0
 20 -43 18 -42 18 -40 c 1
 15 -38 15 -34 18 -30 c 0
 20 -25 24 -20 29 -14 c 0xd0
 33 -8 40 -1 41 0 c 1
 58 0 89 1 104 5 c 1
 106 7 105 10 100 14 c 0
 95 17 82 22 83 31 c 0
 85 43 84 49 85 63 c 25
 89 76 98 90 100 96 c 1
 105 103 89 123 88 126 c 0xc8
 85 146 90 171 89 200 c 25
 91 210 96 218 96 225 c 0xd0
 96 230 90 239 88 239 c 1xc8
 87 247 87 246 87 256 c 0
 88 268 93 278 100 285 c 0
 104 289 106 292 105 294 c 0
 104 295 102 296 99 296 c 0
 65 293 25 293 8 295 c 1
 6 295 5 293 4 290 c 0
 4 288 5 286 6 284 c 1
 17 282 l 2
 23 281 27 275 29 267 c 0
 35 241 28 139 29 109 c 1
 25 103 16 89 13 79 c 0
 12 75 12 71 13 68 c 0
 14 62 22 55 26 56 c 1
 26 46 25 38 24 33 c 0
 23 25 18 18 11 14 c 0
 5 10 1 7 1 7 c 1
 1 5 2 4 6 2 c 0
 12 -1 24 0 31 0 c 1xd0
EndSplineSet
Refer: 13 46 S 1 0 0 1 0 349 2
EndChar
StartChar: j
Encoding: 106 106 73
Width: 250
VWidth: 881
Flags: W
HStem: -287 12<35 51 51 54.7471> 280 20G<103 198> 340 106<125 126 126 126>
VStem: 0 6<-246.359 -218.781> 72 111<391 393 393 393> 117 64<-143 -141 -64.5825 -22.5961> 118 67<-131.91 -65 -16.1889 0 278 285.098> 161 5<-251.284 -217.995>
Fore
166 -213 m 17xf1
 164 -218 162 -224 161 -232 c 0
 160 -240 161 -247 165 -252 c 1
 166 -252 l 1
 166 -226 l 1xf1
 168 -221 172 -213 176 -201 c 0
 181 -190 185 -181 186 -174 c 0
 190 -158 187 -144 181 -143 c 1xf4
 185 -117 187 -89 186 -58 c 2
 187 57 l 1
 203 84 202 114 198 136 c 0
 194 167 187 175 185 181 c 1
 185 278 l 1
 185 281 187 285 191 289 c 0
 195 292 198 296 198 300 c 1
 103 300 l 1
 103 296 106 292 111 289 c 0
 115 285 118 281 118 278 c 2xf2
 120 0 l 24
 120 -8 118 -12 115 -20 c 0
 111 -26 110 -33 110 -43 c 0
 110 -53 119 -56 121 -65 c 24
 124 -121 118 -162 117 -214 c 1xf4
 113 -232 108 -244 100 -250 c 0
 95 -255 90 -257 85 -258 c 0
 80 -258 76 -254 73 -247 c 1
 77 -245 80 -243 80 -240 c 1
 69 -240 66 -247 70 -260 c 1
 63 -260 60 -263 59 -269 c 1
 60 -269 43 -279 35 -275 c 24
 22 -268 20 -257 13 -244 c 24
 8 -234 13 -225 6 -215 c 24
 4 -211 0 -220 0 -225 c 24
 6 -255 13 -291 51 -287 c 24
 117 -286 146 -261 163 -207 c 1
 163 -207 165 -211 166 -213 c 17xf1
EndSplineSet
Refer: 13 46 N 1 0 0 1 72 338 2
EndChar
StartChar: k
Encoding: 107 107 74
Width: 303
VWidth: 881
Flags: W
HStem: 3 21G<21.7666 96.2666> 333 8<212.767 220.672> 579 20G<18.7666 106.767>
VStem: 18.7666 70<19.7393 60.9739 60.9739 85.5081 205.453 256.208 257.801 570.832> 203.767 4<307 318>
Fore
253.767 301 m 1
 252.767 300 251.767 299 248.767 297 c 2
 243.767 294 l 2
 231.767 287 225.767 288 218.767 279 c 24
 212.767 272 213.767 261 212.767 256 c 0
 208.767 242 204.767 234 200.767 233 c 0
 189.767 231 190.767 237 182.767 230 c 1
 166.767 207 158.767 201 144.767 176 c 1
 195.767 65 l 0
 204.767 44 219.767 29 240.767 18 c 1
 244.767 15 244.767 13 241.767 12 c 0
 224.767 8 185.767 7 161.767 9 c 1
 161.767 11 162.767 14 165.767 16 c 0
 168.767 19 170.767 20 172.767 21 c 0
 189.767 29 197.767 39 194.767 50 c 1
 177.767 94 161.767 128 139.767 170 c 1
 127.767 155 94.7666 109 85.7666 86 c 1
 83.7666 76 82.7666 34 83.7666 23 c 1
 85.7666 22 86.7666 20 89.7666 17 c 0
 92.7666 15 93.7666 13 95.7666 12 c 0
 97.7666 9 97.7666 6 94.7666 3 c 1
 93.7666 3 85.7666 3 70.7666 3 c 0
 54.7666 3 38.7666 3 21.7666 3 c 1
 8.7666 0 1.7666 0 0.766602 3 c 1
 -1.2334 5 0.766602 8 5.7666 13 c 0
 10.7666 18 12.7666 22 13.7666 23 c 1
 13.7666 28 15.7666 57 16.7666 108 c 0
 17.7666 132 18.7666 182 18.7666 257 c 0
 16.7666 403 35.7666 444 18.7666 577 c 1
 16.7666 580 14.7666 583 10.7666 585 c 0
 7.7666 587 4.7666 590 3.7666 592 c 1
 0.766602 595 1.7666 597 5.7666 599 c 1
 5.7666 601 9.7666 601 18.7666 599 c 0
 39.7666 595 72.7666 593 104.767 599 c 0
 108.767 599 110.767 599 110.767 598 c 1
 111.767 596 108.767 593 103.767 587 c 0
 98.7666 581 95.7666 578 95.7666 577 c 1
 87.7666 496 97.7666 380 89.7666 287 c 0
 88.7666 264 88.7666 247 88.7666 236 c 2
 88.7666 212 l 2
 88.7666 206 89.7666 203 90.7666 204 c 0
 98.7666 207 108.767 233 117.767 234 c 1
 115.767 247 117.767 256 123.767 258 c 1
 127.767 258 130.767 256 131.767 253 c 1
 137.767 257 155.767 275 155.767 287 c 0
 155.767 289 154.767 291 154.767 294 c 0
 153.767 296 152.767 298 152.767 299 c 0
 152.767 302 154.767 303 157.767 303 c 2
 171.767 310 201.767 296 204.767 308 c 1
 203.767 316 203.767 323 203.767 329 c 0
 204.767 334 207.767 338 212.767 341 c 1
 215.767 341 218.767 341 220.767 339 c 0
 223.767 337 223.767 334 223.767 330 c 0
 223.767 329 220.767 330 215.767 333 c 1
 212.767 333 210.767 328 207.767 318 c 1
 207.767 314 207.767 311 207.767 307 c 1
 210.767 300 243.767 310 253.767 301 c 1
EndSplineSet
EndChar
StartChar: l
Encoding: 108 108 75
Width: 169
VWidth: 881
Flags: W
HStem: 578 20G<7 25>
VStem: 0 119<592.084 594 594 595 595 595> 24 75<27.1406 571>
Fore
8 598 m 4xc0
 42 597 95 604 119 594 c 5xc0
 120 591 118 587 112 581 c 4
 103 571 103 571 102 571 c 5
 99 36 l 6
 99 33 100 30 102 27 c 4
 103 24 105 21 108 18 c 4
 113 13 113 13 115 11 c 4
 118 6 118 3 114 1 c 4
 113 0 105 0 90 0 c 6
 35 0 l 6
 34 0 32 0 27 -1 c 4
 23 -2 19 -2 16 -2 c 4
 12 -1 10 0 9 3 c 4
 8 5 10 9 15 15 c 4
 20 20 23 24 23 24 c 6
 24 574 l 5xa0
 20 581 16 586 13 588 c 5
 5 591 1 593 0 595 c 5
 0 595 1 596 2 596 c 4
 4 597 6 598 8 598 c 4xc0
EndSplineSet
EndChar
StartChar: m
Encoding: 109 109 76
Width: 344
VWidth: 881
Flags: W
HStem: -49 345<72.3135 252.313 81.6453 84.2007>
VStem: 17.3135 61<57 78.1154 78.1154 85.9128 94 121 173 223.408 223.408 251 265 274 274 280.352> 34.3135 13<-10 -2.66813 -2.66813 -0.112793> 158.313 23<188.056 253.343> 167.313 18<138.196 181.944> 266.313 28<142.912 236.093>
Fore
181.313 202 m 24xd4
 181.313 180 185.313 168 185.313 145 c 24
 183.313 119 179.313 93 182.313 64 c 16
 185.313 -3 136.313 -9 148.313 8 c 8
 159.313 22 166.313 30 170.313 47 c 24
 172.313 57 163.313 62 162.313 71 c 24
 161.313 83 171.313 93 164.313 102 c 24
 159.313 109 148.313 84 147.313 91 c 24
 145.313 106 156.313 113 160.313 127 c 24
 164.313 141 168.313 149 167.313 163 c 24x8c
 167.313 181 158.313 189 158.313 207 c 24
 157.313 225 174.313 240 165.313 254 c 1
 163.313 285 133.313 281 123.313 261 c 1
 119.313 264 122.313 270 133.313 281 c 2
 137.313 285 l 5
 109.313 299 92.3135 266 82.3135 251 c 25
 78.3135 94 l 25xd4
 81.3135 79 92.3135 74 84.3135 57 c 0
 80.3135 48 71.3135 27 81.3135 16 c 0
 84.3135 13 87.3135 11 91.3135 9 c 0
 92.3135 7 92.3135 6 91.3135 5 c 0
 89.3135 4 66.3135 3 47.3135 3 c 0
 47.3135 1 42.3135 -4 41.3135 -10 c 2
 38.3135 -19 l 1
 36.3135 -20 34.3135 -19 34.3135 -18 c 0
 33.3135 -16 33.3135 -14 34.3135 -12 c 2xa4
 34.3135 -10 35.3135 -5 38.3135 1 c 0
 41.3135 8 21.3135 -1 3.31348 2 c 1
 -0.686523 3 -0.686523 5 1.31348 7 c 1
 10.3135 13 l 1
 15.3135 18 17.3135 26 17.3135 35 c 0
 18.3135 64 15.3135 97 20.3135 121 c 1
 15.3135 134 l 0
 8.31348 135 8.31348 144 15.3135 160 c 1
 23.3135 173 l 1
 18.3135 203 25.3135 240 24.3135 274 c 1
 24.3135 276 22.3135 279 18.3135 283 c 0
 15.3135 287 13.3135 290 12.3135 293 c 1
 12.3135 294 15.3135 295 20.3135 295 c 0
 30.3135 296 47.3135 296 72.3135 296 c 0
 82.3135 296 88.3135 296 90.3135 295 c 0
 92.3135 294 92.3135 291 89.3135 287 c 0
 87.3135 284 85.3135 282 84.3135 281 c 1
 82.3135 281 80.3135 269 80.3135 265 c 1
 93.3135 283 108.313 293 118.313 294 c 0
 129.313 297 140.313 294 152.313 285 c 0
 160.313 279 167.313 273 172.313 266 c 1
 180.313 268 189.313 294 219.313 295 c 0
 281.313 297 286.313 227 288.313 175 c 0
 288.313 157 283.313 147 284.313 129 c 24
 286.313 109 295.313 98 294.313 77 c 0
 293.313 15 253.313 -66 252.313 -49 c 9
 260.313 -19 271.313 -2 273.313 29 c 24
 276.313 66 260.313 97 257.313 132 c 24
 258.313 143 266.313 148 266.313 160 c 24
 263.313 206 265.313 280 232.313 285 c 0
 194.313 291 181.313 243 181.313 202 c 24xd4
EndSplineSet
EndChar
StartChar: n
Encoding: 110 110 77
Width: 241
VWidth: 881
Flags: W
HStem: -24 313<13 167 -80 -74.5>
VStem: 23 64<19.2159 31 31 113.523 113.523 125.705 125.705 211 243.954 244 266 271.203> 167 20<146.577 226.163> 178 9<6.76379 13 22 27.5 27.5 37.5 37.5 76.5231 76.5231 78.5231 78.5231 100 115 141.745>
Fore
176 269 m 1xd0
 165 284 152 289 136 284 c 0
 118 280 102 257 93 244 c 1
 91 243 90 243 90 244 c 1
 89 256 86 272 96 277 c 1
 97 279 l 1
 101 281 103 283 102 286 c 1
 88 288 34 290 13 289 c 4
 8 289 6 287 6 284 c 1
 7 281 10 278 15 275 c 0
 19 272 22 269 23 266 c 1
 24 195 25 79 21 31 c 0
 20 22 16 15 9 9 c 1
 5 7 0 7 0 3 c 1
 1 2 4 1 11 1 c 2
 97 0 l 1
 100 1 100 3 97 6 c 0
 96 8 95 10 92 12 c 0
 90 14 88 15 87 16 c 1
 79 72 95 156 88 211 c 1
 112 225 130 279 159 264 c 0
 185 254 169 213 170 182 c 24
 170 156 176 141 178 115 c 24
 179 87 177 71 178 42 c 24xd0
 179 31 182 24 181 13 c 24
 181 5 178 0 175 -7 c 24
 173 -13 167 -17 167 -24 c 25xe0
 181 -29 186 7 190 22 c 25
 192 34 187 41 187 53 c 24
 187 72 191 82 190 100 c 24
 188 132 181 149 181 181 c 24
 181 200 193 209 191 227 c 24
 190 245 179 263 176 269 c 1xd0
EndSplineSet
EndChar
StartChar: o
Encoding: 111 111 78
Width: 228
VWidth: 881
Flags: W
HStem: -25 331<47.8311 113.831 113.831 131.109>
VStem: 1.83105 177<102 116 80 196 80 80> 43.8311 7<-24.9524 -21 -21 -3.72217> 162.831 16<59.7039 147 147 263.705>
Fore
137.831 285 m 5x90
 117.831 282 108.831 245 98.8311 229 c 4
 82.8311 195 67.8311 158 64.8311 118 c 4
 63.8311 103 66.8311 106 71.8311 98 c 4
 72.8311 95 72.8311 92 72.8311 88 c 4
 72.8311 84 72.8311 80 72.8311 77 c 4
 71.8311 74 71.8311 72 71.8311 71 c 5
 70.8311 67 64.8311 57 63.8311 48 c 29
 68.8311 28 70.8311 5 93.8311 13 c 4
 144.831 34 159.831 89 162.831 147 c 4
 164.831 184 177.831 278 137.831 285 c 5x90
65.8311 3 m 4
 62.8311 3 56.8311 11 50.8311 9 c 29
 41.8311 3 50.8311 -12 50.8311 -20 c 4
 50.8311 -22 49.8311 -24 47.8311 -25 c 5
 45.8311 -25 44.8311 -24 43.8311 -21 c 4xa0
 39.8311 -7 42.8311 3 38.8311 18 c 29
 24.8311 32 3.83105 58 1.83105 80 c 4
 -3.16895 116 1.83105 155 19.8311 200 c 4
 20.8311 202 22.8311 209 21.8311 216 c 28
 21.8311 218 18.8311 219 17.8311 221 c 5
 14.8311 226 16.8311 233 23.8311 241 c 4
 30.8311 250 36.8311 255 41.8311 258 c 5
 57.8311 280 78.8311 306 113.831 306 c 4
 162.831 305 180.831 270 178.831 196 c 4xc0
 176.831 102 164.831 0 65.8311 3 c 4
EndSplineSet
EndChar
StartChar: p
Encoding: 112 112 79
Width: 313
VWidth: 881
Flags: W
HStem: -290 10<13.093 17 119.093 125 125 128.812> 283 20G<15.5 111.5>
VStem: 26 85<-170 -60 -54 -26 -26 118 187 260> 35 76<174.318 187 187 260> 41 11<-350 -347 -347 -342> 251 12<40.0592 271.896>
Fore
175 293 m 5xe4
 145 290 131 272 111 260 c 5
 109 -54 l 5
 130 -42 136 -22 156 -7 c 5
 237 6 251 52 251 154 c 4
 250 225 247 298 175 293 c 5xe4
54 -290 m 5
 58 -305 64 -317 65 -336 c 28
 66 -344 63 -354 58 -357 c 5
 56 -361 52 -361 48 -358 c 4
 43 -356 41 -352 41 -347 c 6
 41 -342 l 5
 43 -338 46 -338 48 -341 c 4
 51 -344 52 -347 52 -350 c 5xcc
 62 -344 63 -330 56 -308 c 4
 54 -301 39 -290 39 -290 c 5
 18 -290 l 6
 12 -290 9 -289 8 -288 c 5
 8 -285 10 -283 13 -282 c 4
 15 -281 16 -280 17 -280 c 5
 17 -278 26 -269 25 -261 c 5
 25 -256 25 -246 25 -244 c 5
 24 -243 19 -237 17 -232 c 4
 11 -219 11 -210 25 -193 c 4
 31 -186 28 -179 21 -183 c 5
 19 -184 18 -187 15 -191 c 4
 12 -194 10 -197 8 -199 c 4
 5 -201 3 -201 0 -200 c 5
 2 -195 6 -189 14 -181 c 6
 26 -170 l 5xe4
 31 118 l 21
 25 117 19 136 22 141 c 5
 35 187 l 5
 33 271 l 6
 33 272 31 274 29 279 c 4
 27 284 22 289 14 294 c 4
 11 296 10 298 10 300 c 4
 11 302 13 303 18 303 c 6
 39 303 l 5
 103 303 l 6
 120 303 130 303 131 302 c 5
 131 299 l 5
 122 295 116 290 113 286 c 5
 111 285 111 272 112 269 c 5
 128 276 154 303 191 300 c 4
 261 295 262 231 263 154 c 4
 263 48 237 5 159 -13 c 5
 144 -30 128 -46 110 -60 c 5
 111 -268 l 6xd4
 111 -273 114 -278 119 -283 c 5
 121 -284 122 -284 125 -284 c 260
 127 -284 128 -285 129 -288 c 5
 127 -289 117 -290 100 -290 c 6
 54 -290 l 5
EndSplineSet
EndChar
StartChar: q
Encoding: 113 113 80
Width: 312
VWidth: 881
Flags: W
HStem: -290 6<133.215 138.027 138.027 142.98 245.027 248.934>
VStem: 0.0273438 12<37.7317 154 154 271.883> 151.027 86<-279.901 -268 -170 -60 -54 -26 -26 118> 210.027 11<-350 -347 -347 -342>
Fore
87.0273 293 m 1xe0
 117.027 290 131.027 272 151.027 260 c 1
 153.027 -54 l 1
 132.027 -42 126.027 -22 106.027 -7 c 1
 26.0273 6 11.0273 52 12.0273 154 c 0
 12.0273 225 15.0273 298 87.0273 293 c 1xe0
209.027 -290 m 1
 204.027 -305 198.027 -317 197.027 -336 c 24
 196.027 -344 199.027 -354 204.027 -357 c 1
 207.027 -361 210.027 -361 215.027 -358 c 0
 219.027 -356 221.027 -352 221.027 -347 c 2
 221.027 -342 l 1
 219.027 -338 216.027 -338 214.027 -341 c 0
 211.027 -344 210.027 -347 210.027 -350 c 1xd0
 201.027 -344 200.027 -330 206.027 -308 c 0
 209.027 -301 223.027 -290 223.027 -290 c 1
 244.027 -290 l 2
 250.027 -290 253.027 -289 255.027 -288 c 1
 254.027 -285 252.027 -283 249.027 -282 c 0
 247.027 -281 246.027 -280 245.027 -280 c 1
 245.027 -278 236.027 -269 237.027 -261 c 1
 237.027 -256 237.027 -246 237.027 -244 c 1
 239.027 -243 243.027 -237 245.027 -232 c 0
 251.027 -219 251.027 -210 237.027 -193 c 0
 232.027 -186 234.027 -179 242.027 -183 c 1
 243.027 -184 245.027 -187 247.027 -191 c 0
 250.027 -194 252.027 -197 255.027 -199 c 0
 257.027 -201 259.027 -201 262.027 -200 c 1
 261.027 -195 256.027 -189 248.027 -181 c 2
 237.027 -170 l 1
 231.027 118 l 17
 237.027 117 243.027 136 240.027 141 c 1
 227.027 187 l 1
 230.027 271 l 2
 230.027 272 231.027 274 233.027 279 c 0
 235.027 284 241.027 289 249.027 294 c 0
 251.027 296 253.027 298 252.027 300 c 0
 251.027 302 249.027 303 244.027 303 c 2
 224.027 303 l 1
 159.027 303 l 2
 142.027 303 133.027 303 132.027 302 c 1
 132.027 299 l 1
 140.027 295 146.027 290 149.027 286 c 1
 151.027 285 151.027 272 150.027 269 c 1
 135.027 276 108.027 303 71.0273 300 c 0
 2.02734 295 0.0273438 231 0.0273438 154 c 0
 -0.972656 48 25.0273 5 103.027 -13 c 1
 119.027 -30 134.027 -46 152.027 -60 c 1
 151.027 -268 l 2
 151.027 -273 148.027 -278 143.027 -283 c 1
 142.027 -284 140.027 -284 138.027 -284 c 256
 135.027 -284 134.027 -285 133.027 -288 c 1
 136.027 -289 145.027 -290 163.027 -290 c 2
 209.027 -290 l 1
EndSplineSet
EndChar
StartChar: r
Encoding: 114 114 81
Width: 202
VWidth: 881
Flags: W
HStem: -46 341<91.3604 97.3604 -17.6396 -15.4833> 283 11<88.3604 89.3604 89.3604 97.3604>
VStem: 5.36035 75<64.6115 78.8579 110 112.156 212.186 231.328> 17.3604 59<24.9639 33 33 46.9077 46.9077 64 126.519 164.666 164.666 186.269 186.269 214.964 237 244 244 267.673>
Fore
17.3604 237 m 24x90
 21.3604 255 16.3604 276 4.36035 285 c 1
 0.360352 289 -0.639648 292 0.360352 294 c 1
 4.36035 298 19.3604 294 24.3604 294 c 2
 81.3604 294 l 2x50
 84.3604 294 94.3604 297 97.3604 295 c 1x90
 100.36 294 102.36 287 99.3604 284 c 0
 99.3604 283 95.3604 283 88.3604 283 c 1
 82.3604 281 78.3604 276 76.3604 268 c 0
 74.3604 261 73.3604 255 74.3604 249 c 1
 74.3604 244 l 1
 90.3604 263 118.36 285 144.36 281 c 0
 152.36 278 155.36 273 150.36 266 c 1
 147.36 262 145.36 262 144.36 265 c 0
 144.36 269 141.36 271 135.36 273 c 0
 130.36 275 118.36 269 98.3604 256 c 0
 86.3604 248 79.3604 233 77.3604 218 c 0
 74.3604 182 75.3604 142 76.3604 110 c 1x50
 86.3604 104 93.3604 88 91.3604 79 c 0
 90.3604 76 79.3604 71 80.3604 61 c 1
 80.3604 48 79.3604 42 81.3604 33 c 0
 82.3604 26 87.3604 20 94.3604 15 c 2
 95.3604 13 103.36 10 104.36 7 c 0
 103.36 -1 82.3604 0 73.3604 0 c 1
 80.3604 -7 90.3604 -22 92.3604 -27 c 0
 94.3604 -34 94.3604 -40 91.3604 -46 c 0
 87.3604 -54 73.3604 -51 70.3604 -43 c 4
 69.3604 -41 69.3604 -39 72.3604 -37 c 0
 75.3604 -34 77.3604 -35 78.3604 -39 c 1
 76.3604 -47 86.3604 -44 87.3604 -40 c 0
 90.3604 -36 89.3604 -30 83.3604 -22 c 0
 76.3604 -13 67.3604 -3 64.3604 0 c 1
 49.3604 -2 17.3604 2 1.36035 5 c 1
 -0.639648 7 1.36035 10 5.36035 14 c 1
 14.3604 20 19.3604 24 19.3604 24 c 1
 25.3604 37 20.3604 64 20.3604 64 c 25
 14.3604 77 5.36035 93 5.36035 96 c 0xa0
 3.36035 101 5.36035 107 9.36035 113 c 0
 14.3604 120 16.3604 124 17.3604 126 c 0
 19.3604 137 19.3604 152 16.3604 171 c 0
 16.3604 173 16.3604 190 15.3604 202 c 24
 14.3604 212 9.36035 218 9.36035 225 c 0
 9.36035 230 15.3604 232 17.3604 237 c 24x90
EndSplineSet
EndChar
StartChar: s
Encoding: 115 115 82
Width: 245
VWidth: 881
Flags: W
HStem: 3 296<63.7197 65.7197 65.7197 66.7197 63.7197 114.72 63.7197 63.7197>
VStem: 0.719727 194<34 35 101 102 74 101 101 101>
Fore
172.72 280 m 24
 182.72 266 192.72 262 186.72 247 c 0
 184.72 242 180.72 241 176.72 243 c 1
 176.72 244 177.72 245 179.72 247 c 0
 183.72 252 183.72 256 180.72 260 c 24
 162.72 280 112.72 291 86.7197 274 c 1
 89.7197 266 87.7197 258 81.7197 250 c 1
 83.7197 251 85.7197 252 88.7197 253 c 1
 91.7197 254 91.7197 253 88.7197 250 c 0
 86.7197 249 83.7197 248 79.7197 245 c 0
 73.7197 242 69.7197 236 68.7197 229 c 1
 65.7197 220 78.7197 194 86.7197 190 c 1
 87.7197 200 89.7197 206 93.7197 208 c 1
 92.7197 204 l 2
 91.7197 200 90.7197 198 90.7197 198 c 0
 88.7197 182 92.7197 171 104.72 162 c 0
 126.72 149 138.72 150 157.72 130 c 0
 181.72 109 190.72 102 194.72 74 c 0
 198.72 30 160.72 11 114.72 3 c 0
 52.7197 -9 -7.28027 34 0.719727 101 c 0
 0.719727 104 0.719727 107 3.71973 108 c 24
 6.71973 109 6.71973 105 7.71973 103 c 25
 7.71973 103 13.7197 35 46.7197 33 c 1
 54.7197 30 57.7197 31 61.7197 25 c 1
 76.7197 9 103.72 11 111.72 35 c 0
 116.72 45 118.72 61 118.72 84 c 0
 118.72 112 114.72 103 100.72 133 c 1
 91.7197 146 59.7197 175 43.7197 184 c 1
 23.7197 200 16.7197 215 11.7197 227 c 1
 11.7197 228 10.7197 230 7.71973 235 c 0
 4.71973 240 3.71973 243 3.71973 244 c 0
 5.71973 246 7.71973 245 11.7197 241 c 0
 15.7197 237 17.7197 238 17.7197 244 c 1
 24.7197 265 l 2
 25.7197 268 23.7197 271 22.7197 274 c 0
 21.7197 276 21.7197 277 21.7197 278 c 256
 21.7197 279 24.7197 276 29.7197 270 c 1
 40.7197 284 52.7197 283 65.7197 293 c 1
 66.7197 293 66.7197 294 65.7197 296 c 0
 63.7197 298 63.7197 299 63.7197 299 c 1
 66.7197 299 68.7197 299 69.7197 298 c 0
 70.7197 297 71.7197 294 71.7197 291 c 1
 103.72 299 151.72 301 172.72 280 c 24
EndSplineSet
EndChar
StartChar: t
Encoding: 116 116 83
Width: 206
VWidth: 881
Flags: W
HStem: 287 43<151 156 0 156 145.578 276.685> 577 20G<21 39>
VStem: 37 77<26.1406 162.623 162.623 282.417 320.578 451.685 451.685 570.058>
Fore
37 304 m 1
 36 310 31 312 23 310 c 0
 18 309 15 308 15 307 c 0
 10 299 7 295 6 293 c 1
 6 291 l 1
 3 288 1 288 0 291 c 1
 0 299 l 1
 0 326 l 2
 0 332 0 336 1 336 c 1
 4 338 6 337 8 336 c 0
 9 334 10 332 12 327 c 0
 14 322 16 319 18 318 c 0
 21 316 25 316 30 318 c 0
 35 319 38 322 39 325 c 0
 48 400 43 511 38 573 c 1
 35 581 32 585 28 587 c 2
 22 589 l 2
 18 590 15 592 15 594 c 1
 15 594 15 595 16 595 c 0
 18 597 20 597 22 597 c 0
 56 596 110 603 133 593 c 1
 135 591 132 587 126 581 c 0
 120 575 117 571 116 570 c 1
 111 504 122 407 116 333 c 0
 116 328 118 323 121 318 c 0
 123 314 128 313 133 314 c 0
 138 315 142 318 145 322 c 0
 145 322 146 324 147 326 c 0
 148 328 149 330 150 330 c 1
 156 330 l 1
 156 287 l 1
 151 287 l 1
 147 294 l 1
 144 299 139 302 133 305 c 0
 128 307 124 306 121 302 c 1
 106 237 118 120 114 35 c 0
 114 32 114 29 116 26 c 0
 118 21 125 15 129 10 c 0
 133 5 133 2 128 0 c 1
 103 -2 54 1 30 -3 c 5
 27 -2 24 -1 23 2 c 1
 19 4 38 23 37 23 c 1
 42 75 40 214 37 304 c 1
EndSplineSet
EndChar
StartChar: u
Encoding: 117 117 84
Width: 257
VWidth: 881
Flags: W
HStem: -6 306<120.272 161.345 75.2725 110.272 12.7725 114.913>
VStem: 0.272461 207<243 300 208 243> 22.2725 10<273.574 275 275 278.883> 120.272 73<79.9796 93 93 190.5 190.5 292.641>
Fore
16.2725 184 m 0xa0
 16.2725 172 22.2725 159 23.2725 147 c 0
 27.2725 101 22.2725 61 48.2725 26 c 0
 56.2725 12 67.2725 7 86.2725 10 c 1
 144.272 51 112.272 184 120.272 288 c 1xb0
 119.272 291 117.272 292 115.272 294 c 0
 112.272 295 111.272 297 110.272 300 c 1
 207.272 300 l 1xc0
 207.272 297 205.272 295 203.272 294 c 0
 201.272 292 199.272 291 198.272 288 c 1
 193.272 93 l 1x90
 182.272 30 149.272 -26 75.2725 -6 c 1
 29.2725 17 5.27246 65 13.2725 143 c 0
 13.2725 155 6.27246 167 5.27246 179 c 0
 4.27246 188 10.2725 198 9.27246 209 c 8
 7.27246 223 2.27246 229 0.272461 243 c 24xc0
 -0.727539 252 1.27246 257 2.27246 266 c 16
 3.27246 279 10.2725 287 16.2725 290 c 0
 18.2725 292 22.2725 292 25.2725 290 c 0
 28.2725 288 31.2725 286 32.2725 283 c 1
 32.2725 280 31.2725 276 28.2725 273 c 1
 26.2725 273 24.2725 274 22.2725 275 c 1
 22.2725 278 24.2725 280 26.2725 283 c 1
 20.2725 285 16.2725 284 14.2725 279 c 0
 8.27246 264 11.2725 249 13.2725 229 c 24
 14.2725 222 20.2725 219 20.2725 212 c 24
 21.2725 201 16.2725 184 16.2725 184 c 0xa0
EndSplineSet
EndChar
StartChar: v
Encoding: 118 118 85
Width: 334
VWidth: 881
Flags: W
HStem: 7 300<150 274 274 274>
VStem: 0 284<305 307 307 307>
Fore
260 284 m 4
 261 287 259 290 256 295 c 4
 253 299 251 302 251 305 c 5
 254 305 257 305 262 306 c 4
 266 307 270 307 274 307 c 4
 278 307 281 306 284 305 c 5
 284 300 l 5
 275 295 269 288 264 280 c 5
 273 277 274 266 264 250 c 4
 260 245 254 238 244 229 c 4
 235 221 239 219 237 213 c 5
 237 209 236 204 234 200 c 4
 226 184 218 167 213 149 c 4
 211 147 215 144 214 140 c 28
 213 127 212 117 207 106 c 4
 202 95 197 87 192 81 c 4
 185 72 185 72 171 57 c 5
 170 51 161 29 150 7 c 5
 146 7 l 5
 26 277 l 5
 20 286 20 286 18 288 c 4
 16 291 13 293 8 296 c 4
 3 300 1 303 0 307 c 5
 119 307 l 5
 118 304 116 301 111 299 c 4
 106 298 103 295 102 292 c 5
 182 101 l 5
 183 101 l 5
 213 172 l 5
 212 191 214 209 223 218 c 4
 225 220 229 226 238 234 c 5
 239 240 248 258 252 266 c 4
 254 270 256 273 257 276 c 5
 250 278 244 274 243 268 c 4
 242 267 241 265 239 264 c 5
 238 268 238 272 241 276 c 4
 245 280 249 282 254 282 c 5
 254 280 260 283 260 284 c 4
EndSplineSet
EndChar
StartChar: w
Encoding: 119 119 86
Width: 474
VWidth: 881
Flags: W
HStem: 2 301<146 414 414 414>
VStem: 0 424<296 302 302 302>
Fore
213 167 m 1
 183 96 l 1
 182 96 l 1
 102 287 l 1
 103 290 106 293 111 294 c 0
 116 296 118 299 119 302 c 1
 0 302 l 1
 1 298 3 294 8 291 c 0
 13 288 16 285 18 283 c 0
 20 281 20 281 26 272 c 1
 146 2 l 1
 150 2 l 1
 161 24 170 46 171 52 c 1
 185 67 185 67 192 76 c 0
 197 81 202 90 207 101 c 0
 212 112 213 122 214 135 c 24
 215 138 211 141 213 144 c 2
 217 157 l 1
 286 3 l 1
 290 3 l 1
 301 24 310 47 312 52 c 1
 325 68 325 68 333 77 c 0
 338 82 342 91 347 102 c 0
 352 113 353 123 355 136 c 24
 355 139 352 142 353 145 c 0
 358 163 366 180 374 196 c 0
 376 200 377 204 377 208 c 1
 379 215 376 217 385 225 c 0
 394 233 401 240 405 246 c 0
 414 262 413 272 404 275 c 1
 409 284 415 291 424 296 c 1
 424 300 l 1
 421 302 418 303 414 303 c 0
 411 303 407 302 402 302 c 0
 397 301 394 300 392 300 c 1
 392 298 393 295 396 290 c 0
 400 286 401 283 400 280 c 0
 400 279 394 276 394 278 c 1
 389 278 385 276 382 272 c 0
 379 268 378 264 380 260 c 1
 381 261 382 262 383 264 c 0
 384 270 390 274 397 272 c 1
 396 269 394 266 392 262 c 0
 388 254 379 236 379 230 c 1
 370 222 366 216 363 213 c 0
 355 205 352 187 353 167 c 1
 324 96 l 1
 322 96 l 1
 243 287 l 1
 243 291 246 293 251 295 c 0
 256 297 259 299 259 303 c 1
 140 303 l 1
 141 299 144 295 149 292 c 0
 153 289 157 286 158 284 c 0
 160 281 160 281 166 273 c 1
 213 167 l 1
EndSplineSet
EndChar
StartChar: x
Encoding: 120 120 87
Width: 421
VWidth: 881
Flags: W
HStem: 10 295<23 371 23 23>
VStem: 0 371<10 28 28 28>
Fore
221 177 m 0
 347 26 l 2
 348 25 352 23 359 20 c 0
 367 17 371 14 371 10 c 1
 235 10 l 1
 235 11 237 14 239 18 c 0
 241 21 242 24 241 26 c 2
 159 126 l 0
 159 126 152 117 147 111 c 24
 139 101 133 96 125 85 c 24
 121 79 121 74 117 68 c 24
 112 61 106 60 101 53 c 24
 97 46 101 38 95 33 c 24
 85 24 77 25 64 22 c 24
 48 18 38 19 22 16 c 24
 17 15 14 12 9 10 c 17
 11 18 5 24 0 28 c 9
 6 28 10 29 16 29 c 24
 28 30 34 30 46 32 c 24
 56 33 61 35 71 37 c 24
 77 39 81 39 86 42 c 24
 88 44 88 46 89 49 c 24
 93 58 92 64 97 72 c 24
 101 77 108 74 111 79 c 24
 117 88 115 96 121 105 c 24
 124 111 128 112 133 116 c 24
 140 124 157 127 151 136 c 16
 31 285 l 2
 28 287 24 290 19 293 c 0
 13 296 9 299 6 300 c 1
 9 304 14 305 23 305 c 2
 145 300 l 1
 145 296 l 1
 135 294 130 291 130 287 c 1
 211 189 l 8
 223 182 223 208 233 218 c 24
 239 223 246 221 252 227 c 24
 260 235 258 243 265 251 c 24
 273 259 280 260 290 267 c 24
 304 276 310 285 326 292 c 16
 329 293 332 294 335 296 c 0
 339 298 342 298 345 297 c 0
 348 296 350 294 351 289 c 1
 348 292 346 293 345 293 c 1
 329 287 l 2
 318 281 309 274 302 267 c 0
 302 266 314 270 317 268 c 0
 319 265 320 263 319 261 c 0
 318 258 316 257 313 256 c 1
 315 260 316 262 317 263 c 1
 313 265 302 264 297 261 c 1
 285 244 276 235 269 235 c 1
 271 238 249 206 254 211 c 0
 259 216 241 200 233 192 c 24
 228 187 221 177 221 177 c 0
EndSplineSet
EndChar
StartChar: y
Encoding: 121 121 88
Width: 293
VWidth: 881
Flags: W
HStem: -262 2<104.707 114.718 120.951 137.906> 368 20G<169 171.5>
VStem: 8 8<179.916 223.245 210 232.026> 8 16<101.556 131.728 116.642 158.581 136.131 180.112 273.842 282.713> 163 65<-149 -137.5 -137.5 -59.8503 -13 31.677 31.677 61 171.293 218.167 218.167 283.301> 163 80<97.2095 164.493> 180 7<356 369.352> 206 4<-251.764 -232 -232 -226>
Fore
69 18 m 1xd0
 111 2 149 51 163 79 c 1xd4
 159 148 168 213 163 278 c 1xc8
 161 281 159 285 154 289 c 0
 150 292 148 296 147 300 c 1
 165 300 l 8
 172 308 172 317 168 327 c 16
 164 337 170 347 172 355 c 1
 180 356 l 1
 179 359 181 363 176 370 c 0
 172 377 169 383 169 388 c 1
 174 385 178 380 182 372 c 0
 189 361 185 349 187 335 c 25
 185 321 169 308 180 300 c 16xc2
 243 300 l 1
 242 296 240 293 236 289 c 0
 232 286 229 282 229 278 c 2
 229 177 l 1
 232 175 240 154 243 136 c 0xc4
 246 116 241 94 228 70 c 1xc8
 226 -149 l 1
 233 -151 235 -159 231 -174 c 0
 229 -180 225 -189 220 -200 c 0
 215 -212 212 -221 210 -226 c 1
 210 -252 l 1
 209 -252 l 1
 206 -247 204 -240 206 -232 c 0
 207 -224 208 -218 210 -213 c 0
 212 -209 207 -205 206 -207 c 0xc1
 193 -252 170 -276 126 -285 c 1
 104 -283 88 -287 71 -279 c 0
 50 -269 52 -252 45 -225 c 1
 46 -225 l 1
 47 -226 48 -228 48 -232 c 0
 49 -236 51 -233 51 -230 c 0
 50 -225 50 -219 51 -214 c 1
 53 -218 57 -234 58 -248 c 1
 68 -281 110 -289 138 -264 c 1
 138 -262 l 1
 134 -262 127 -263 119 -265 c 0
 111 -267 105 -269 102 -269 c 1
 103 -263 108 -260 115 -260 c 1
 110 -247 113 -240 125 -240 c 1
 124 -243 122 -245 117 -247 c 1
 119 -254 123 -258 129 -258 c 0
 134 -257 139 -255 144 -250 c 0
 150 -244 156 -233 161 -214 c 1
 165 -61 l 1
 160 -60 153 -56 154 -43 c 1
 151 -27 165 -11 164 -13 c 1
 164 -7 164 3 164 3 c 1
 164 17 164 33 163 61 c 1
 138 33 122 -10 61 3 c 0
 10 14 14 94 8 117 c 0xd8
 3 134 14 144 15 162 c 24
 15 176 9 184 8 198 c 24
 8 207 13 213 11 222 c 24
 9 232 4 237 1 247 c 24
 0 250 -1 258 2 256 c 24
 9 250 10 244 15 237 c 17
 11 269 l 9
 12 279 12 285 15 295 c 24
 15 297 18 297 19 295 c 24
 22 283 24 275 23 262 c 24
 23 243 17 233 16 213 c 24xe0
 16 206 15 198 22 196 c 24
 27 194 25 204 29 208 c 24
 30 209 31 206 31 205 c 24
 29 182 24 170 24 147 c 24
 24 138 30 134 30 126 c 24
 30 111 26 103 24 88 c 25
 24 88 31 20 69 18 c 1xd0
EndSplineSet
EndChar
StartChar: z
Encoding: 122 122 89
Width: 394
VWidth: 881
Flags: W
HStem: 1 14<165.102 199 199 233.031 233.031 242.764 242.764 275.023 275.023 280.592 280.592 287.767 288.187 299.977 299.977 310.719 318.588 338.025> 296 8<106 110.454 110.454 120.523 120.523 133.906> 300 5<9.14208 35.7656 40.5274 83.2924 83.2924 106 153 163.794 203 223.81>
VStem: 0 344<4 305 327 333.031>
Fore
269 3 m 5xb0
 256 -1 238 0 215 7 c 1
 199 7 l 1
 199 4 l 1
 0 4 l 1
 0 7 1 9 4 10 c 0
 6 12 9 14 13 15 c 0
 18 17 20 19 22 20 c 1
 229 287 l 1
 227 290 l 2
 225 292 224 293 224 293 c 1
 220 295 213 296 203 296 c 1xd0
 203 300 l 1
 163 300 l 1xb0
 153 301 l 1
 147 299 141 298 134 296 c 1
 132 295 129 294 126 294 c 0
 123 294 119 295 115 295 c 0
 111 296 108 296 106 296 c 1xd0
 106 301 l 0
 89 300 69 300 61 300 c 0
 46 300 38 297 36 292 c 1
 34 292 l 1
 34 295 35 298 36 300 c 1
 31 300 26 300 21 301 c 0
 17 301 12 300 9 298 c 0
 5 296 3 293 1 287 c 1
 0 287 l 1
 0 305 l 1xb0
 151 304 l 2xd0
 156 304 162 307 168 309 c 1
 178 314 186 312 192 305 c 1
 198 305 201 306 208 305 c 0
 216 305 222 305 226 305 c 2
 344 305 l 1
 344 302 343 300 340 298 c 0
 337 295 334 293 331 290 c 0
 327 287 324 285 323 285 c 1
 124 20 l 1
 122 14 125 10 132 9 c 0
 139 8 145 7 150 9 c 0
 168 14 191 17 203 16 c 1
 232 16 256 14 262 13 c 2
 272 11 l 0
 274 11 277 9 278 9 c 0
 280 9 283 10 288 12 c 0
 292 14 295 15 296 15 c 0
 300 17 305 16 311 15 c 0
 318 14 332 10 334 10 c 1
 338 13 341 16 342 22 c 1
 343 20 344 14 344 4 c 1
 340 4 335 4 328 3 c 0
 321 1 314 1 308 1 c 0
 302 1 297 2 292 4 c 1
 288 8 277 4 269 3 c 5xb0
EndSplineSet
EndChar
StartChar: braceleft
Encoding: 123 123 90
Width: 341
VWidth: 881
Flags: W
HStem: -294 19<178 229.098> 302 10<137.094 146> 323 9<94.689 95.8139 96.1406 104.431 104.431 108.86 108.86 111.546 111.546 112.046 112.046 127.47> 733 7<132 243 243 253>
VStem: 0 290<-279 -275 -284 -282 -280.569 -276.14> 15 72<-260.272 285 310 316.953 328 708.175> 132 5<311 317.53> 146 5<312 326.238> 265 5<713.732 724.079>
Fore
288 -260 m 1xf780
 292 -267 293 -275 290 -284 c 0
 287 -292 281 -295 274 -290 c 1
 275 -285 276 -282 276 -280 c 1
 277 -280 279 -281 280 -282 c 0
 286 -285 l 1
 286 -273 285 -260 272 -262 c 0
 271 -263 262 -272 260 -273 c 0
 260 -280 l 1
 256 -280 251 -280 244 -279 c 1
 238 -295 207 -294 178 -294 c 1
 172 -289 163 -284 153 -282 c 1
 143 -282 97 -282 77 -281 c 0
 73 -281 69 -281 66 -281 c 1
 64 -292 60 -302 46 -299 c 1
 31 -301 24 -284 24 -280 c 1
 21 -281 13 -282 0 -282 c 1
 0 -273 l 1xf8
 7 -270 12 -267 13 -262 c 1
 15 285 l 1
 12 285 8 286 6 287 c 0
 2 289 0 293 1 300 c 0
 1 301 2 304 3 307 c 0
 4 310 5 312 5 312 c 1
 9 312 13 312 15 310 c 1
 15 724 l 2xf4
 14 727 9 733 0 740 c 1xf8
 215 740 l 1
 252 740 l 1
 265 740 l 1
 269 737 270 731 270 723 c 0
 269 715 268 709 265 706 c 1
 265 720 261 729 253 733 c 1
 243 733 l 1
 220 733 l 1
 132 733 l 2
 113 733 101 730 97 723 c 0
 91 713 88 702 87 689 c 2
 87 328 l 1
 90 328 92 329 96 330 c 0
 99 332 102 332 103 332 c 1
 104 333 106 333 109 333 c 0
 112 332 114 332 115 332 c 1
 126 336 134 337 141 336 c 1
 148 332 151 324 151 312 c 2
 151 305 l 1
 149 304 146 303 141 302 c 0
 137 302 134 303 132 305 c 1
 132 318 l 1
 135 317 136 317 137 316 c 0
 137 316 137 314 137 311 c 1
 139 312 142 312 146 312 c 1
 144 327 134 332 115 325 c 1
 114 325 111 325 108 324 c 0
 104 324 102 323 101 323 c 2
 99 322 95 320 91 317 c 0
 88 314 l 1
 86 -253 l 1
 88 -258 90 -262 94 -266 c 1
 105 -263 117 -254 127 -260 c 0
 149 -271 177 -276 212 -275 c 0
 229 -275 242 -270 249 -262 c 0
 250 -261 253 -254 256 -243 c 1
 260 -243 l 1
 260 -265 l 1
 261 -262 282 -246 288 -260 c 1xf780
EndSplineSet
EndChar
StartChar: bar
Encoding: 124 124 91
Width: 169
VWidth: 881
Flags: W
VStem: 24 77<-256.859 713>
Fore
8 737 m 4
 42 736 95 744 119 733 c 5
 120 731 118 727 111 720 c 4
 102 711 102 711 102 710 c 5
 101 -248 l 2
 100.997 -251 101 -254 103 -257 c 0
 104 -260 107 -263 110 -266 c 0
 114 -271 114 -271 116 -273 c 0
 120 -278 119 -281 115 -283 c 0
 114 -284 106 -284 91 -284 c 2
 36 -284 l 2
 36 -284 33 -284 28 -285 c 0
 24 -286 20 -286 17 -286 c 0
 14 -285 12 -284 10 -281 c 0
 9 -279 11 -275 16 -269 c 0
 22 -264 24 -260 24 -260 c 2
 23 713 l 5
 19 721 16 725 13 727 c 5
 5 730 1 732 0 734 c 5
 0 735 1 735 2 736 c 4
 3 737 5 737 8 737 c 4
EndSplineSet
EndChar
StartChar: asciitilde
Encoding: 126 126 93
Width: 460
VWidth: 881
Flags: W
HStem: 244 6<400.266 402.189 402.189 408.413>
VStem: 0.265625 410<178 244 178.924 185.147>
Fore
393.266 237 m 0
 395.266 242 398.266 244 400.266 244 c 1
 410.266 244 l 5
 409.266 248 406.266 250 401.266 250 c 0
 396.266 249 393.266 247 391.266 244 c 1
 389.266 243 389.266 241 389.266 237 c 1
 377.266 224 363.266 204 344.266 203 c 0
 260.266 200 251.266 274 191.266 298 c 1
 144.266 306 83.2656 281 55.2656 257 c 0
 45.2656 248 26.2656 238 27.2656 220 c 1
 20.2656 214 15.2656 209 14.2656 204 c 1
 15.2656 194 l 1
 17.2656 194 l 1
 21.2656 187 9.26562 184 3.26562 182 c 0
 1.26562 180 -0.734375 179 0.265625 178 c 0
 1.26562 176 3.26562 176 7.26562 177 c 0
 23.2656 183 32.2656 193 33.2656 207 c 0
 33.2656 222 46.2656 223 47.2656 234 c 25
 51.2656 248 66.2656 251 77.2656 255 c 1
 84.2656 266 94.2656 276 111.266 273 c 1
 149.266 274 154.266 234 184.266 225 c 0
 211.266 217 225.266 207 264.266 210 c 0
 278.266 209 277.266 201 291.266 196 c 0
 300.266 193 305.266 190 307.266 187 c 1
 308.266 186 308.266 184 307.266 182 c 0
 307.266 180 306.266 179 306.266 178 c 1
 311.266 179 313.266 183 312.266 188 c 1
 333.266 185 348.266 193 359.266 201 c 1
 369.266 204 383.266 206 385.266 217 c 1
 381.266 223 391.266 227 397.266 228 c 1
 400.266 230 401.266 232 401.266 236 c 1
 399.266 235 397.266 234 394.266 233 c 0
 391.266 231 393.266 236 393.266 237 c 0
EndSplineSet
EndChar
StartChar: section
Encoding: 167 167 94
Width: 385
VWidth: 881
Flags: W
HStem: 18 8<100.067 152.087 152.087 186.087 198.087 208.381> 287 8<149.087 183.087 183.087 241.868> 576 20G<232.087 335.087>
VStem: 0.0869141 335<-147 460 -154.789 -147> 10.0869 84<-271.974 -268 -268 -223.435 -195 -161.382> 241.087 86<536.435 581 581 585.047>
Fore
198.087 21 m 1xe0
 203.087 33 l 1
 186.087 26 l 1
 120.087 28 103.087 34 77.0869 64 c 0
 74.0869 68 72.0869 76 75.0869 83 c 1
 67.0869 83 65.0869 77 69.0869 65 c 1
 30.0869 94 40.0869 187 48.0869 242 c 1
 52.0869 238 53.0869 238 57.0869 238 c 1
 57.0869 240 56.0869 242 54.0869 247 c 0
 52.0869 252 51.0869 255 52.0869 258 c 0
 75.0869 307 132.087 293 137.087 293 c 1
 132.087 281 l 1
 149.087 287 l 1
 215.087 285 232.087 279 258.087 250 c 0
 261.087 245 263.087 237 260.087 231 c 1
 269.087 231 271.087 236 267.087 248 c 1
 305.087 219 295.087 126 287.087 71 c 1
 283.087 75 282.087 75 279.087 75 c 1
 279.087 74 279.087 71 281.087 66 c 0
 283.087 62 284.087 58 283.087 55 c 0
 264.087 17 203.087 21 198.087 21 c 1xe0
313.087 151 m 0
 316.087 229 266.087 289 183.087 295 c 0
 95.0869 297 70.0869 330 67.0869 408 c 0
 67.0869 470 57.0869 586 156.087 578 c 0
 203.087 574 228.087 541 242.087 509 c 1
 243.087 500 244.087 482 242.087 474 c 1
 241.087 472 239.087 470 236.087 469 c 0
 233.087 467 232.087 464 232.087 460 c 1
 335.087 460 l 1xf0
 335.087 465 332.087 469 327.087 472 c 1xe4
 325.087 586 l 1
 331.087 591 335.087 594 335.087 596 c 1xf0
 232.087 596 l 1
 232.087 592 234.087 588 236.087 586 c 0
 239.087 584 241.087 583 241.087 581 c 1
 244.087 572 241.087 545 244.087 536 c 1
 219.087 580 178.087 602 94.0869 591 c 0xec
 41.0869 584 13.0869 535 4.08691 487 c 0
 -9.91309 401 11.0869 320 82.0869 307 c 1
 41.0869 283 22.0869 227 23.0869 162 c 0
 24.0869 84 69.0869 24 152.087 18 c 0
 240.087 16 265.087 -16 268.087 -95 c 0
 268.087 -157 279.087 -273 179.087 -265 c 0
 132.087 -261 107.087 -228 93.0869 -195 c 1
 93.0869 -187 91.0869 -169 93.0869 -161 c 1
 94.0869 -159 97.0869 -157 99.0869 -155 c 0
 102.087 -154 103.087 -151 103.087 -147 c 1
 0.0869141 -147 l 1xf0
 0.0869141 -152 3.08691 -156 8.08691 -159 c 1
 10.0869 -273 l 1xe8
 4.08691 -277 0.0869141 -281 0.0869141 -283 c 1xf0
 103.087 -283 l 1
 103.087 -279 102.087 -275 99.0869 -273 c 0
 96.0869 -271 94.0869 -269 94.0869 -268 c 1
 91.0869 -259 94.0869 -232 91.0869 -223 c 1
 116.087 -267 157.087 -289 241.087 -278 c 0xec
 294.087 -271 322.087 -221 331.087 -174 c 0
 345.087 -88 324.087 -7 253.087 6 c 1
 306.087 40 310.087 81 313.087 151 c 0
EndSplineSet
EndChar
StartChar: copyright
Encoding: 169 169 95
Width: 393
VWidth: 881
Flags: W
HStem: 3 282<143.777 155.777 124.777 143.777 143.777 143.777> 340 14<140.626 245.157>
VStem: 8.0332 331<65 132 189 239 134 177 177 177> 49.7765 143<29 145 126 145>
Fore
200.033 354 m 0xe0
 82.0332 359 31.0332 272 8.0332 177 c 0
 -21.9668 65 34.0332 -61 143.033 -77 c 1
 270.033 -68 314.033 22 339.033 134 c 0
 360.033 239 304.033 355 200.033 354 c 0xe0
268.033 132 m 0
 255.033 39 230.033 -44 149.033 -65 c 1
 149.033 -63 l 1
 156.033 -61 159.033 -57 160.033 -51 c 1
 157.033 -51 153.033 -53 148.033 -57 c 0
 142.033 -61 137.033 -63 134.033 -63 c 0
 33.0332 -62 69.0332 117 78.0332 189 c 0
 96.0332 270 120.033 324 189.033 340 c 1
 288.033 337 283.033 234 268.033 132 c 0
EndSplineSet
Refer: 66 99 N 1 0 0 1 45.0334 3 2
EndChar
StartChar: guillemotleft
Encoding: 171 171 96
Width: 453
VWidth: 881
Flags: W
HStem: -20 367<301 400 301 301>
VStem: 0 403<197 264 197 197>
Fore
134 133 m 9
 121 135 111 135 100 140 c 0
 89 145 80 150 74 154 c 0
 66 162 66 162 50 176 c 1
 45 177 22 186 0 197 c 1
 0 201 l 1
 271 321 l 1
 279 327 279 327 282 329 c 0
 284 330 287 334 290 339 c 0
 293 343 297 346 301 347 c 1
 301 228 l 1
 297 229 295 231 293 236 c 0
 291 241 289 244 285 244 c 1
 94 165 l 1
 94 163 l 1
 151 140 l 1
 373 238 l 1
 381 244 381 244 384 246 c 0
 386 248 389 251 392 256 c 0
 395 261 399 264 403 264 c 1
 403 145 l 1
 399 146 397 149 395 154 c 0
 393 158 391 161 387 162 c 1
 196 83 l 1
 196 81 l 1
 267 52 l 1
 286 52 305 50 313 41 c 0
 316 39 322 35 330 26 c 1
 336 25 354 16 362 12 c 0
 366 10 369 9 372 7 c 1
 374 14 370 20 364 22 c 0
 362 22 361 23 360 25 c 1
 364 27 368 26 372 23 c 0
 376 20 378 15 378 10 c 1
 376 11 378 5 380 4 c 0
 382 4 386 5 390 8 c 0
 395 11 398 13 400 13 c 1
 400 11 401 7 401 3 c 0
 402 -2 403 -6 403 -10 c 0
 403 -14 402 -17 400 -20 c 1
 396 -20 l 1
 390 -11 384 -4 375 0 c 1
 372 -8 361 -10 346 0 c 0
 340 4 333 11 325 20 c 0
 317 29 315 25 308 28 c 1
 304 28 300 28 296 30 c 0
 280 38 263 47 244 52 c 0
 242 53 239 49 236 50 c 24
 222 52 213 52 202 57 c 0
 191 62 182 67 176 72 c 0
 168 79 168 79 152 93 c 1
 147 94 124 104 102 114 c 1
 102 119 l 1
 134 133 l 9
EndSplineSet
EndChar
StartChar: AE
Encoding: 198 198 101
Width: 640
VWidth: 881
Flags: W
HStem: -15 19<472.451 489.001 489.001 517.218> -6 10<455 470.329 495.064 511 511 533.86> -5 25<401.223 425> 297 10<430.048 434.765 435.094 444> 592 5<163 348 348 443.44 443.44 450 451.768 535 535 545> 609 7<156.021 163.396 163.396 167.341 167.341 174 174 185.803>
VStem: 430 5<305 311.802> 430 18<298.359 305 308 312> 557 4<574.747 581.729> 573 16<-10 0.0975423>
Fore
197 467 m 1x1cc0
 134 194 l 1
 171 219 215 242 240 266 c 1
 241 268 244 270 242 274 c 1
 241 278 240 283 240 291 c 8
 238 318 230 333 223 359 c 16
 212 402 209 430 197 467 c 1x1cc0
465 -6 m 0x5ec0
 448 -6 425 -5 419 -5 c 0
 410 -5 395 -2 376 -1 c 0
 356 0 326 0 296 1 c 1
 295 6 311 35 311 43 c 1
 301 118 250 243 250 243 c 25
 250 243 243 247 235 239 c 1
 222 229 147 179 134 174 c 1
 109 140 109 60 91 15 c 1
 91 12 93 10 96 7 c 0
 99 4 102 2 103 0 c 1
 100 -2 89 -3 71 -3 c 2
 0 -3 l 1
 1 0 4 3 8 7 c 0
 27 19 31 96 37 111 c 1
 27 95 17 73 10 53 c 0
 9 50 6 48 3 46 c 1
 34 138 l 2
 35 140 38 144 43 149 c 0
 49 154 52 159 54 163 c 1
 148 557 l 2
 151 570 146 581 137 587 c 0
 134 589 132 592 132 596 c 1
 154 597 l 1
 153 601 151 606 151 610 c 0
 151 613 152 615 156 616 c 0
 160 616 165 614 174 611 c 0
 183 608 189 607 194 607 c 0
 195 608 198 611 200 616 c 0
 203 621 206 623 209 620 c 1
 203 609 197 595 174 605 c 0
 165 608 159 610 155 609 c 1
 156 607 157 597 163 597 c 16
 187 597 306 597 372 597 c 0
 438 598 483 598 506 598 c 2
 543 598 l 1
 557 598 l 1
 561 595 562 589 561 581 c 0
 561 573 559 567 557 564 c 1
 557 577 553 587 545 591 c 1
 535 591 l 1
 512 591 l 2
 508 591 488 591 450 592 c 0
 413 592 379 592 348 592 c 0
 301 592 301 592 234 592 c 0
 228 591 220 583 218 577 c 1
 216 551 205 523 203 496 c 1
 266 277 l 0
 266 277 271 271 276 278 c 1
 286 287 315 301 330 302 c 1
 328 304 326 305 325 307 c 0
 324 308 324 310 324 312 c 1
 327 312 329 311 331 309 c 1
 353 297 399 347 438 330 c 0
 444 327 448 319 448 307 c 2
 448 300 l 1
 447 299 444 298 439 297 c 0
 434 297 431 298 430 300 c 1
 430 312 l 1x3dc0
 433 312 434 310 435 308 c 1
 435 306 435 306 435 305 c 1
 437 307 440 307 444 307 c 1
 441 322 431 326 412 320 c 0
 346 305 315 281 273 251 c 1
 313 104 l 8
 319 79 319 65 324 40 c 24
 325 34 328 25 328 25 c 1
 330 15 359 10 385 7 c 1
 395 13 412 26 425 20 c 0x3ec0
 436 14 443 10 455 4 c 25x5ec0
 477 4 501 5 511 5 c 0
 528 5 540 9 547 17 c 0
 548 19 550 22 552 28 c 0
 553 33 554 36 555 37 c 1
 559 37 l 1
 559 12 l 0
 559 12 566 23 572 25 c 0
 579 27 583 25 586 20 c 0
 591 13 591 5 589 -4 c 0
 586 -13 581 -15 573 -10 c 1
 574 -6 575 -2 575 0 c 1
 579 -12 581 -3 582 0 c 24
 584 6 585 11 580 15 c 0
 571 22 566 2 560 -5 c 1
 557 -5 547 -4 539 -5 c 24x3ec0
 521 -8 517 -15 494 -15 c 2
 477 -15 l 1x9ec0
 475 -14 474 -13 472 -11 c 0
 470 -9 466 -6 465 -6 c 0x5ec0
EndSplineSet
EndChar
StartChar: Oslash
Encoding: 216 216 103
Width: 612
VWidth: 881
Flags: W
HStem: 348 20G<373.556 386> 597 0<441.967 444>
Fore
272 579 m 0
 208 553 201 478 178 412 c 0
 164 352 176 261 161 202 c 1
 241 293 326 393 377 514 c 25
 384 567 294 587 272 579 c 0
414 536 m 1
 427 553 434 562 434 563 c 0
 450 582 446 594 423 597 c 1
 444 597 l 1
 562 597 l 1
 562 594 560 592 558 589 c 0
 555 587 552 585 548 582 c 0
 544 580 542 578 541 577 c 0
 513 545 473 485 447 448 c 1
 464 379 458 294 447 223 c 0
 416 118 383 12 263 -2 c 0
 217 -7 182 22 157 46 c 0
 149 53 138 43 124 15 c 0
 123 13 124 11 128 8 c 0
 131 5 134 3 137 2 c 0
 139 1 140 0 138 0 c 2
 0 0 l 1
 0 2 2 4 4 6 c 0
 7 8 10 9 14 11 c 0
 18 13 21 14 23 15 c 1
 112 133 l 1
 110 143 107 157 104 175 c 0
 88 243 94 314 107 379 c 0
 126 476 173 596 311 596 c 4
 360 595 387 564 414 536 c 1
180 80 m 1
 181 30 236 -11 277 26 c 1
 277 20 274 15 268 13 c 1
 268 11 l 1
 343 33 351 120 377 190 c 1
 386 244 384 309 388 368 c 1
 180 80 l 1
EndSplineSet
EndChar
StartChar: ae
Encoding: 230 230 106
Width: 404
VWidth: 881
Flags: W
HStem: -46 346<191.448 296.448 302.308 306.448> -46 6<183.541 188.448> 2 10<69.7962 98.4482> 285 13<167.45 178.448>
VStem: 10.4482 342<171 247 176.86 181>
Fore
298.448 258 m 1x08
 267.448 231 245.448 179 233.448 134 c 1
 234.448 137 304.448 185 313.448 212 c 24
 320.448 229 324.448 265 298.448 258 c 1x08
253.448 6 m 0
 229.448 7 216.448 2 200.448 2 c 1
 187.448 -13 172.448 -34 179.448 -39 c 1
 179.448 -40 181.448 -41 183.448 -42 c 0
 185.448 -43 186.448 -42 187.448 -40 c 0x68
 188.448 -40 188.448 -39 188.448 -37 c 0
 189.448 -33 191.448 -32 194.448 -35 c 0
 197.448 -37 197.448 -39 196.448 -42 c 0
 195.448 -44 193.448 -46 191.448 -46 c 0x88
 184.448 -49 179.448 -48 175.448 -43 c 0
 172.448 -38 171.448 -32 174.448 -24 c 1
 177.448 -18 187.448 -8 190.448 2 c 1
 182.448 3 174.448 4 165.448 6 c 0
 163.448 7 162.448 8 162.448 9 c 1
 162.448 10 166.448 12 172.448 16 c 0
 179.448 23 183.448 29 184.448 36 c 2
 188.448 97 l 1
 158.448 55 138.448 4 76.4482 2 c 1
 -0.551758 13 -12.5518 75 10.4482 171 c 0
 28.4482 232 46.4482 271 102.448 282 c 0
 145.448 289 173.448 270 192.448 245 c 1
 192.448 254 193.448 261 190.448 269 c 0
 188.448 278 184.448 283 178.448 285 c 0
 177.448 285 177.448 285 172.448 285 c 0
 169.448 285 167.448 285 167.448 287 c 1
 166.448 288 165.448 290 166.448 293 c 0
 166.448 295 167.448 297 169.448 298 c 1x38
 188.448 296 240.448 299 265.448 297 c 1
 265.448 291 l 0
 265.448 289 256.448 283 255.448 281 c 0
 254.448 280 253.448 278 252.448 277 c 1
 264.448 287 279.448 296 296.448 300 c 0x88
 340.448 309 362.448 275 352.448 247 c 16
 332.448 190 290.448 158 252.448 125 c 1
 253.448 122 252.448 122 256.448 116 c 0
 260.448 109 262.448 103 261.448 98 c 0
 259.448 93 251.448 78 245.448 65 c 17
 245.448 65 245.448 60 244.448 53 c 1
 257.448 36 272.448 27 272.448 27 c 9
 317.448 39 l 25
 318.448 38 321.448 38 320.448 37 c 24
 294.448 24 288.448 5 253.448 6 c 0
188.448 112 m 1
 192.448 150 195.448 195 186.448 236 c 0
 185.448 247 157.448 270 149.448 269 c 1
 109.448 249 80.4482 205 70.4482 163 c 0
 64.4482 117 47.4482 10 98.4482 12 c 1
 141.448 27 160.448 77 188.448 112 c 1
EndSplineSet
EndChar
StartChar: oslash
Encoding: 248 248 108
Width: 394
VWidth: 881
Flags: W
HStem: -2 302<247 249 151 217 217 217>
Fore
151 -2 m 2
 0 0 l 1
 0 2 1 4 4 6 c 0
 6 8 10 9 14 11 c 0
 18 13 21 14 22 15 c 1
 61 65 l 1
 35 114 66 190 82 225 c 0
 106 284 157 293 230 287 c 1
 231 289 231 291 229 293 c 0
 227 296 224 297 221 299 c 2
 217 300 l 1
 344 300 l 1
 344 298 343 296 340 293 c 0
 338 291 335 289 331 286 c 0
 327 283 325 281 324 281 c 1
 321 278 312 267 296 246 c 1
 312 204 313 178 298 112 c 0
 276 31 249 -6 151 -2 c 2
115 132 m 1
 161 202 181 220 222 274 c 1
 190 284 172 252 157 232 c 0
 131 201 122 175 115 132 c 1
138 34 m 1
 186 -9 219 76 235 105 c 0
 246 126 247 168 247 182 c 1
 138 34 l 1
EndSplineSet
EndChar
StartChar: afii57929
Encoding: 700 700 109
Width: 220
VWidth: 881
Flags: W
HStem: 506 5<104 111> 532 3<133 141> 592 20<73.5 74 102.5 120.709>
VStem: 48 8<552.233 558.688> 66 4<450.047 453 460 461.056 430 612 453 453> 73 3<571.874 590.559> 85 4<492.969 496> 120 5<543 544 544 547.906>
Fore
73 612 m 1
 75 609 76 602 76 590 c 0
 76 578 74 571 69 569 c 1
 73 581 74 595 73 612 c 1
67 589 m 1
 70 588 71 586 70 584 c 0
 69 581 68 577 66 571 c 0
 64 564 64 559 65 555 c 1
 61 537 62 523 66 515 c 1
 64 514 62 512 60 511 c 1
 60 511 61 509 62 505 c 0
 63 502 64 499 65 497 c 1
 67 498 71 502 76 510 c 0
 81 518 87 523 92 526 c 0
 94 527 97 528 101 529 c 0
 105 530 108 532 111 534 c 0
 114 535 116 538 119 541 c 1
 119 541 120 542 120 544 c 0
 121 546 121 548 122 548 c 1
 124 546 125 544 125 543 c 0
 125 543 124 540 122 537 c 0
 120 535 121 534 124 534 c 0
 125 534 127 535 130 535 c 0
 138 536 142 535 143 534 c 1
 143 533 143 533 141 532 c 0
 139 532 136 532 133 532 c 0
 130 533 126 532 123 531 c 0
 121 530 117 529 113 527 c 0
 108 524 105 523 105 522 c 1
 101 522 97 521 93 520 c 0
 89 519 86 516 83 513 c 0
 83 512 82 511 80 508 c 0
 79 506 78 505 78 504 c 2
 72 496 70 488 72 481 c 0
 73 475 75 470 78 464 c 1
 84 467 92 473 101 481 c 0
 110 490 113 497 111 503 c 1
 110 505 107 506 102 506 c 0
 97 506 94 505 92 503 c 256
 90 502 89 499 89 496 c 0
 89 492 89 492 89 491 c 1
 85 492 83 495 85 500 c 0
 86 505 90 508 95 510 c 0
 98 511 101 512 104 511 c 0
 108 511 111 511 114 511 c 0
 116 512 119 513 122 516 c 0
 124 518 126 520 127 520 c 0
 128 520 131 519 135 517 c 1
 134 517 131 516 127 515 c 0
 123 513 121 512 120 511 c 1
 117 507 116 501 119 494 c 1
 121 496 126 500 131 505 c 0
 137 510 141 515 146 520 c 0
 149 524 152 526 152 527 c 1
 108 581 l 1
 85 562 l 1
 92 558 100 558 107 562 c 1
 110 563 113 564 115 564 c 0
 117 564 118 563 117 563 c 0
 117 562 117 562 116 560 c 1
 116 560 114 558 109 556 c 1
 107 555 l 2
 105 554 105 553 105 549 c 0
 106 547 106 545 106 545 c 1
 105 544 103 542 100 539 c 0
 97 537 95 535 94 535 c 2
 89 534 86 534 83 536 c 0
 81 538 82 542 85 546 c 1
 87 544 89 543 91 543 c 0
 93 544 96 544 100 545 c 1
 99 552 l 1
 94 554 84 553 68 546 c 1
 65 549 l 1
 68 553 73 558 81 564 c 0
 89 571 95 576 99 581 c 0
 100 582 100 584 100 588 c 0
 99 592 101 595 104 597 c 1
 170 518 l 1
 168 517 164 517 156 519 c 0
 156 519 141 506 113 481 c 0
 85 456 70 444 70 445 c 1
 71 439 70 434 66 430 c 1
 0 509 l 1
 2 513 5 514 8 512 c 0
 12 511 15 511 17 512 c 1
 19 513 22 514 26 517 c 0
 29 520 33 523 36 527 c 0
 40 531 43 533 44 534 c 1
 46 531 l 1
 45 528 42 525 39 522 c 0
 35 519 31 515 25 511 c 0
 20 507 16 505 15 503 c 1
 19 498 23 495 25 494 c 0
 28 493 32 493 39 494 c 1
 37 498 36 501 34 503 c 1
 33 501 31 498 27 496 c 1
 25 505 28 509 36 509 c 1
 41 508 44 504 43 499 c 0
 43 493 40 489 35 486 c 1
 30 486 l 1
 61 449 l 1
 63 450 l 2
 65 451 66 452 66 453 c 1
 65 458 62 462 58 467 c 0
 54 472 52 476 51 478 c 1
 56 482 l 1
 56 481 58 477 61 471 c 0
 63 464 66 461 70 460 c 0
 74 458 74 464 68 478 c 0
 67 480 65 482 63 485 c 0
 61 488 60 490 59 492 c 0
 55 502 52 513 51 525 c 0
 51 527 50 531 48 537 c 0
 47 543 47 547 48 551 c 0
 48 555 51 559 56 563 c 1
 56 560 56 557 54 552 c 0
 52 547 51 544 51 543 c 0
 51 539 53 532 57 522 c 1
 59 524 l 1
 57 529 58 539 60 555 c 0
 62 570 65 582 68 589 c 1
 67 589 l 1
EndSplineSet
EndChar
StartChar: afii64937
Encoding: 701 701 110
Width: 220
VWidth: 881
Flags: W
HStem: 506 5<59 66> 532 3<29 29 29 37> 592 20G<96 96.5>
VStem: 65 5<545 549 549 552> 93 4<574.184 598.961> 114 4<473.911 478 526.041 536.72>
Fore
97 612 m 1
 95 609 93 602 93 590 c 0
 93 578 96 571 102 569 c 1
 98 581 96 595 97 612 c 1
103 589 m 1
 100 588 99 586 100 584 c 0
 102 581 103 577 104 571 c 0
 106 564 106 559 105 555 c 1
 109 537 108 523 104 515 c 1
 106 514 108 512 110 511 c 1
 110 511 109 509 109 505 c 0
 108 502 106 499 105 497 c 1
 104 498 100 502 94 510 c 0
 89 518 83 523 78 526 c 0
 76 527 74 528 70 529 c 0
 66 530 63 532 60 534 c 0
 56 535 54 538 51 541 c 1
 50 544 l 2
 49 546 48 548 48 548 c 1
 46 546 45 544 45 543 c 0
 45 543 46 540 49 537 c 0
 50 535 49 534 46 534 c 0
 45 534 43 535 40 535 c 0
 32 536 28 535 27 534 c 1
 27 533 27 533 29 532 c 0
 31 532 34 532 37 532 c 0
 40 533 44 532 47 531 c 0
 49 530 53 529 57 527 c 0
 64 523 64 523 66 522 c 1
 69 522 73 521 77 520 c 0
 81 519 84 516 87 513 c 0
 87 512 88 511 90 508 c 0
 91 506 92 505 92 504 c 2
 98 496 100 488 98 481 c 0
 97 475 95 470 92 464 c 1
 85 467 78 473 69 481 c 0
 60 490 57 497 59 503 c 1
 60 505 63 506 68 506 c 0
 73 506 76 505 78 503 c 256
 80 502 81 499 81 496 c 0
 81 492 81 492 81 491 c 1
 85 492 87 495 85 500 c 0
 84 505 80 508 75 510 c 0
 72 511 69 512 66 511 c 0
 62 511 59 511 56 511 c 0
 53 512 51 513 48 516 c 0
 46 518 44 520 43 520 c 0
 42 520 40 519 36 517 c 1
 36 517 39 516 43 515 c 0
 47 513 49 512 50 511 c 1
 53 507 54 501 51 494 c 1
 48 496 44 500 39 505 c 0
 33 510 29 515 24 520 c 0
 20 524 18 526 18 527 c 1
 63 581 l 1
 85 562 l 1
 77 558 70 558 63 562 c 1
 60 563 57 564 55 564 c 0
 53 564 52 563 53 563 c 0
 53 562 53 562 54 560 c 1
 54 560 57 558 61 556 c 1
 64 555 l 1
 65 554 65 553 65 549 c 0
 65 546 65 546 65 545 c 0
 65 544 67 542 70 539 c 0
 73 537 75 535 76 535 c 2
 81 534 84 534 87 536 c 0
 89 538 88 542 85 546 c 1
 83 544 81 543 79 543 c 0
 77 544 74 544 70 545 c 1
 71 552 l 1
 76 554 86 553 103 546 c 1
 105 549 l 1
 102 553 97 558 89 564 c 0
 81 571 75 576 71 581 c 0
 70 582 70 584 70 588 c 0
 71 592 69 595 66 597 c 1
 0 518 l 1
 1 517 6 517 14 519 c 1
 57 481 l 2
 85 456 100 444 100 445 c 1
 99 439 100 434 104 430 c 1
 170 509 l 1
 168 513 165 514 162 512 c 0
 159 511 156 511 153 512 c 0
 151 513 148 514 145 517 c 0
 140 521 140 521 134 527 c 0
 130 531 127 533 126 534 c 1
 124 531 l 1
 126 528 129 525 132 522 c 0
 135 519 139 515 145 511 c 0
 150 507 153 505 155 503 c 1
 151 498 147 495 145 494 c 0
 142 493 138 493 131 494 c 1
 133 498 134 501 136 503 c 1
 137 501 140 498 143 496 c 1
 145 505 142 509 134 509 c 1
 129 508 126 504 127 499 c 0
 128 493 130 489 135 486 c 1
 141 486 l 1
 110 449 l 1
 109 449 108 449 107 450 c 0
 105 451 104 452 105 453 c 0
 106 458 108 462 112 467 c 0
 116 472 118 476 118 478 c 1
 114 482 l 1
 114 481 112 477 109 471 c 0
 107 464 104 461 100 460 c 0
 96 458 96 464 102 478 c 0
 103 480 105 482 107 485 c 0
 109 488 110 490 111 492 c 0
 115 502 118 513 119 525 c 0
 119 527 120 531 121 537 c 0
 123 543 123 547 122 551 c 0
 121 555 119 559 114 563 c 1
 114 560 114 557 116 552 c 0
 118 547 118 544 118 543 c 0
 119 539 117 532 113 522 c 1
 112 524 l 1
 113 529 112 539 110 555 c 0
 108 570 105 582 102 589 c 1
 103 589 l 1
EndSplineSet
EndChar
